<?xml version="1.0" encoding="utf-8"?>
<!-- Generator: Adobe Illustrator 19.2.0, SVG Export Plug-In . SVG Version: 6.00 Build 0)  -->
<svg version="1.1" id="Layer_1" xmlns="http://www.w3.org/2000/svg" xmlns:xlink="http://www.w3.org/1999/xlink" x="0px" y="0px"
	 viewBox="0 0 611.3 60.1" style="enable-background:new 0 0 611.3 60.1;" xml:space="preserve">
<style type="text/css">
	.st0{fill:#2F3C75;}
</style>
<path class="st0" d="M611.3,37.1h-67.2V26.6h67.2V37.1z"/>
<g>
	<path class="st0" d="M414.4,31.6c-2-1.3-4.3-2.4-6.6-3.2c-2.4-0.8-4.6-1.7-6.6-2.5c-2-0.8-3.8-1.8-5.1-2.9
		c-1.4-1.1-2.1-2.6-2.1-4.5c0-2.2,0.8-4.1,2.5-5.6c1.6-1.5,3.9-2.3,6.8-2.3c1.9,0,3.5,0.2,5,0.7c1.5,0.5,2.8,1,4,1.7
		c1.2,0.8,2.3,1.6,3.3,2.5l4.8-8.3c-1.2-1.3-2.6-2.5-4.4-3.5c-1.5-0.9-3.3-1.7-5.6-2.4c-2.3-0.7-4.9-1.1-8-1.1c-3.2,0-6,0.5-8.6,1.4
		c-2.6,1-4.8,2.3-6.7,4c-1.8,1.7-3.3,3.6-4.3,5.9c-1,2.3-1.5,4.6-1.5,7.2c0,3.6,0.7,6.5,2.1,8.7c1.4,2.2,3.1,4,5.1,5.4
		c2,1.4,4.3,2.5,6.6,3.2c2.4,0.8,4.6,1.6,6.6,2.4c2,0.8,3.8,1.7,5.1,2.8c1.4,1.1,2.1,2.5,2.1,4.3c0,2.6-1,4.8-2.9,6.6
		c-2,1.8-4.9,2.6-8.9,2.6c-2.1,0-4-0.3-5.5-0.8c-1.6-0.6-3-1.2-4.2-2.1c-1.3-0.8-2.4-1.8-3.4-2.8l-5.3,8.3c1,1.1,2.2,2.1,3.5,3.1
		h32.1c0.4-0.3,0.8-0.6,1.1-0.9c2-1.8,3.6-3.9,4.7-6.3c1.1-2.4,1.6-5,1.6-7.7c0-3.5-0.7-6.2-2.1-8.4C418.2,34.7,416.5,33,414.4,31.6
		z"/>
	<path class="st0" d="M226.7,40v-0.4c1.8-0.9,3.4-2.1,4.8-3.7c1.2-1.3,2.3-3.1,3.3-5.4c1-2.3,1.5-5.1,1.5-8.5c0-3.1-0.5-5.9-1.4-8.4
		c-1-2.5-2.4-4.6-4.2-6.4c-1.8-1.8-4.1-3.1-6.8-4c-2.7-0.9-5.7-1.4-9.1-1.4h-22.4v58.4h12.3v-18h10.1l10.5,18h13.5L226.7,40z"/>
	<polygon class="st0" points="40.8,53.1 12.3,53.1 12.3,37.8 31.2,37.8 31.2,27.7 12.3,27.7 12.3,11.9 40.4,11.9 40.4,1.8 0,1.8 
		0,60.1 40.8,60.1 	"/>
</g>
</svg>
