<?xml version="1.0" encoding="utf-8"?>
<!-- Generator: Adobe Illustrator 15.0.0, SVG Export Plug-In . SVG Version: 6.00 Build 0)  -->
<!DOCTYPE svg PUBLIC "-//W3C//DTD SVG 1.1//EN" "http://www.w3.org/Graphics/SVG/1.1/DTD/svg11.dtd">
<svg version="1.1" id="Layer_1" xmlns="http://www.w3.org/2000/svg" xmlns:xlink="http://www.w3.org/1999/xlink" x="0px" y="0px"
	 width="92.812px" height="140.253px" viewBox="0 0 92.812 140.253" enable-background="new 0 0 92.812 140.253"
	 xml:space="preserve">
<path fill="#FFFFFF" d="M46.522,57.725H0.95l12.249,11.801h45.571L46.522,57.725z M16.678,61.032h-1.002V60.03h1.002V61.032z
	 M20.387,64.74h-1.002v-1.003h1.002V64.74z M23.994,68.348h-1.001v-1.002h1.001V68.348z M24.196,61.132h-1.305V59.93h1.305V61.132z
	 M27.703,72.055h-1.002v-1.002h1.002V72.055z M27.803,64.74H26.6v-1.203h1.203V64.74z M31.311,75.664h-1.002v-1.002h1.002V75.664z
	 M31.512,68.448h-1.304v-1.203h1.304V68.448z M31.712,61.332h-1.604v-1.604h1.604V61.332z M35.12,72.055h-1.203v-1.202h1.203V72.055
	z M35.32,64.94h-1.604v-1.604h1.604V64.94z M38.827,75.764h-1.304v-1.202h1.304V75.764z M39.027,68.648h-1.603v-1.604h1.603V68.648z
	 M39.228,61.432h-2.003v-1.903h2.003V61.432z M42.636,72.257h-1.603v-1.604h1.603V72.257z M42.836,65.141h-2.005v-2.004h2.005
	V65.141z M46.343,75.964H44.74V74.36h1.603V75.964z M46.544,68.848h-2.003v-2.004h2.003V68.848z M46.644,61.633h-2.305v-2.305h2.305
	V61.633z M50.152,72.457h-2.005v-2.004h2.005V72.457z M50.352,65.341h-2.403v-2.405h2.403V65.341z M53.861,76.165h-2.006v-2.004
	h2.006V76.165z M53.96,68.95h-2.305v-2.306h2.305V68.95z M57.669,72.657h-2.405v-2.405h2.405V72.657z M61.275,76.266h-2.305V73.96
	h2.305V76.266z"/>
<path fill="#FFFFFF" d="M78.281,121.512H1.558l12.248,11.802H90.53L78.281,121.512z M75.474,122.915h2.707v2.706h-2.707V122.915z
	 M68.158,122.915h2.706v2.706h-2.706V122.915z M18.75,124.819h-1.002v-1.001h1.002V124.819z M22.459,128.528h-1.002v-1.002h1.002
	V128.528z M26.065,132.137h-1.001v-1.002h1.001V132.137z M26.267,124.919h-1.304v-1.202h1.304V124.919z M29.774,135.844h-1.002
	v-1.002h1.002V135.844z M29.874,128.528h-1.203v-1.203h1.203V128.528z M33.383,139.451h-1.002v-1.002h1.002V139.451z
	 M33.583,132.236h-1.304v-1.203h1.304V132.236z M33.783,125.12H32.18v-1.604h1.604V125.12z M37.19,135.844h-1.202v-1.202h1.202
	V135.844z M37.391,128.729h-1.604v-1.604h1.604V128.729z M40.898,139.553h-1.303v-1.203h1.303V139.553z M41.099,132.437h-1.603
	v-1.604h1.603V132.437z M41.299,125.221h-2.003v-1.903h2.003V125.221z M44.707,136.044h-1.604v-1.604h1.604V136.044z M44.907,128.93
	h-2.005v-2.006h2.005V128.93z M48.415,139.752h-1.604v-1.603h1.604V139.752z M48.615,132.637h-2.003v-2.004h2.003V132.637z
	 M48.716,125.421h-2.305v-2.305h2.305V125.421z M52.223,136.244h-2.004v-2.004h2.004V136.244z M52.424,129.129H50.02v-2.404h2.404
	V129.129z M55.932,139.953h-2.005v-2.004h2.005V139.953z M56.031,132.737h-2.306v-2.306h2.306V132.737z M56.231,125.621h-2.704
	v-2.706h2.704V125.621z M59.74,136.445h-2.405v-2.405h2.405V136.445z M59.94,129.329h-2.706v-2.706h2.706V129.329z M63.347,140.053
	h-2.305v-2.306h2.305V140.053z M63.549,132.938h-2.707v-2.706h2.707V132.938z M63.648,125.621h-2.705v-2.706h2.705V125.621z
	 M67.257,136.646H64.55v-2.707h2.707V136.646z M67.357,129.329H64.65v-2.706h2.707V129.329z M70.864,140.253h-2.706v-2.706h2.706
	V140.253z M70.964,132.938h-2.705v-2.706h2.705V132.938z M71.867,126.623h2.705v2.706h-2.705V126.623z M74.673,136.646h-2.707
	v-2.707h2.707V136.646z M75.474,130.232h2.707v2.706h-2.707V130.232z M78.281,140.253h-2.707v-2.706h2.707V140.253z M81.888,136.646
	h-2.705v-2.707h2.705V136.646z M81.888,129.329h-2.705v-2.706h2.705V129.329z M85.496,140.253h-2.705v-2.706h2.705V140.253z
	 M85.496,132.938h-2.705v-2.706h2.705V132.938z M89.205,136.646h-2.707v-2.707h2.707V136.646z M90.106,137.547h2.706v2.706h-2.706
	V137.547z"/>
<g>
	<path fill="#EC6561" d="M11.389,3.463H7.694v50.402H3.693V3.463H0V0h11.389V3.463z"/>
	<path fill="#EC6561" d="M20.853,53.865h-4.001V0h4.001v24.086h4.232V0h4.001v53.865h-4.001V27.548h-4.232V53.865z"/>
	<path fill="#EC6561" d="M39.243,50.402h5.541v3.463h-9.542V0h9.465v3.463h-5.464v20.623h4.694v3.462h-4.694V50.402z"/>
</g>
<g>
	<path fill="#EC6561" d="M1.539,63.792h5.771c3.077,0,6.232,1.001,6.232,6.079v41.707c0,5.079-3.155,6.079-6.232,6.079H1.539V63.792
		z M5.54,67.255v46.939h1.539c1.77,0,2.463-0.692,2.463-2.539V69.794c0-1.847-0.693-2.539-2.463-2.539H5.54z"/>
	<path fill="#EC6561" d="M23.699,114.194h5.541v3.463h-9.542V63.792h9.465v3.463h-5.464v20.623h4.694v3.462h-4.694V114.194z"/>
	<path fill="#EC6561" d="M39.013,114.194h5.541v3.463h-9.542V63.792h9.465v3.463h-5.464v20.623h4.694v3.462h-4.694V114.194z"/>
	<path fill="#EC6561" d="M60.943,67.255h-3.694v50.402h-4.001V67.255h-3.693v-3.463h11.389V67.255z"/>
	<path fill="#EC6561" d="M69.946,112.271c0,1.616,0.539,2.463,2.001,2.463s2-0.847,2-2.463v-7.849
		c0-13.235-7.771-14.774-7.771-29.779v-4.925c0-4.464,2.077-6.464,5.925-6.464c3.771,0,5.849,2,5.849,6.464v12.234h-3.771V69.179
		c0-1.616-0.539-2.463-2.001-2.463s-2.001,0.847-2.001,2.463v6.079c0,13.235,7.772,14.774,7.772,29.779v6.695
		c0,4.463-2.078,6.464-5.925,6.464c-3.771,0-5.849-2.001-5.849-6.464V97.881h3.771V112.271z"/>
</g>
</svg>
