<?xml version="1.0" encoding="utf-8"?>
<!-- Generator: Adobe Illustrator 19.2.0, SVG Export Plug-In . SVG Version: 6.00 Build 0)  -->
<svg version="1.1" xmlns="http://www.w3.org/2000/svg" xmlns:xlink="http://www.w3.org/1999/xlink" x="0px" y="0px"
	 viewBox="0 0 193 179" style="enable-background:new 0 0 193 179;" xml:space="preserve">
<style type="text/css">
	.st0{fill:#212C5B;}
	.st1{fill:#5166A8;}
	.st2{fill:#657DB7;}
	.st3{fill:#39498A;}
</style>
<g id="Layer_1">
</g>
<g id="Layer_2">
	<g>
		<g>
			<rect x="52.1" y="109" class="st2" width="140.9" height="26"/>
		</g>
	</g>
	<g>
		<g>
			<rect y="68.9" class="st2" width="134" height="26"/>
		</g>
	</g>
	<g>
		<g>
			<rect x="101.4" y="28.8" class="st2" width="82.3" height="26"/>
		</g>
	</g>
	<g>
		<path class="st3" d="M72.2,179l-56-8.1V5l54.5,7.8l54.1-12.3L178,5.7v166.9l-49.2-5.5L72.2,179z M22.2,165.7l49.8,7.2l56.5-11.9
			l43.5,4.9V11.2l-46.8-4.6L70.9,18.9l-48.7-6.9V165.7z"/>
	</g>
	<path class="st3" d="M80.1,61.8c0-8.3-6.7-15-15-15s-15,6.7-15,15c0,7.3,5.2,13.3,12,14.7v36.7h6V76.5C75,75.1,80.1,69.1,80.1,61.8
		z M65.1,70.8c-5,0-9-4.1-9-9s4.1-9,9-9s9,4.1,9,9S70.1,70.8,65.1,70.8z"/>
</g>
<g id="Layer_3">
</g>
</svg>
