<?xml version="1.0" encoding="utf-8"?>
<!-- Generator: Adobe Illustrator 19.2.0, SVG Export Plug-In . SVG Version: 6.00 Build 0)  -->
<svg version="1.1" xmlns="http://www.w3.org/2000/svg" xmlns:xlink="http://www.w3.org/1999/xlink" x="0px" y="0px"
	 viewBox="0 0 193 179" style="enable-background:new 0 0 193 179;" xml:space="preserve">
<style type="text/css">
	.st0{fill:#212C5B;}
	.st1{fill:#5166A8;}
	.st2{fill:#657DB7;}
	.st3{fill:#39498A;}
</style>
<g id="Layer_1">
	<g>
		<g>
			<rect x="95.1" y="22" class="st0" width="97.9" height="26"/>
		</g>
	</g>
	<g>
		<g>
			<rect x="32.4" y="62.1" class="st0" width="111.2" height="26"/>
		</g>
	</g>
	<g>
		<g>
			<rect x="8" y="102.2" class="st0" width="56.8" height="26"/>
		</g>
	</g>
	<g>
		<rect x="29.5" y="173" class="st1" width="35.3" height="6"/>
	</g>
	<path class="st1" d="M165.3,83c0-45.5-37-82.5-82.5-82.5C37.3,0.5,0.3,37.5,0.3,83c0,31.5,17.8,59,43.9,72.9v21h6v-18.1
		c7.9,3.4,16.5,5.6,25.5,6.4L73.2,179h6.1l2.5-13.6c0.3,0,0.7,0,1,0c8,0,15.7-1.2,23.1-3.3L109,179h6.1l-3.5-18.7
		C142.9,148.6,165.3,118.3,165.3,83z M82.9,159.5l3.6-19.4h15.4l3,16.2C97.8,158.3,90.5,159.5,82.9,159.5z M97.1,114.4l3.6,19.6
		H87.6l3.6-19.6H97.1z M110.5,154.3l-7.3-39.8h2.3v-6H82.8v6h2.3l-8.3,44.8c-9.5-0.7-18.4-3.2-26.6-7.1V89.4l11.7-11.7
		c2.1,1.3,4.6,2.1,7.3,2.1c7.6,0,13.7-6.1,13.7-13.7s-6.1-13.7-13.7-13.7c-7.6,0-13.7,6.1-13.7,13.7c0,2.7,0.8,5.2,2.1,7.3
		L44.2,86.9V149C21.6,135.7,6.3,111.1,6.3,83c0-42.2,34.3-76.5,76.5-76.5s76.5,34.3,76.5,76.5C159.3,115.4,139,143.1,110.5,154.3z
		 M61.5,66.2c0-4.2,3.5-7.7,7.7-7.7c4.2,0,7.7,3.5,7.7,7.7s-3.5,7.7-7.7,7.7C65,73.9,61.5,70.4,61.5,66.2z"/>
</g>
<g id="Layer_2">
</g>
<g id="Layer_3">
</g>
</svg>
