<?xml version="1.0" encoding="utf-8"?>
<!-- Generator: Adobe Illustrator 19.2.0, SVG Export Plug-In . SVG Version: 6.00 Build 0)  -->
<svg version="1.1" xmlns="http://www.w3.org/2000/svg" xmlns:xlink="http://www.w3.org/1999/xlink" x="0px" y="0px"
	 viewBox="0 0 193 179" style="enable-background:new 0 0 193 179;" xml:space="preserve">
<style type="text/css">
	.st0{fill:#212C5B;}
	.st1{fill:#5166A8;}
	.st2{fill:#657DB7;}
	.st3{fill:#39498A;}
</style>
<g id="Layer_1">
</g>
<g id="Layer_2">
</g>
<g id="Layer_3">
	<g>
		<rect x="61" y="112.4" class="st1" width="70.5" height="26"/>
	</g>
	<g>
		<rect y="72.3" class="st1" width="131.4" height="26"/>
	</g>
	<g>
		<rect x="84.7" y="32.3" class="st1" width="108.3" height="26"/>
	</g>
	<g>
		<path class="st3" d="M120,0H24.4v179H157V33.8L120,0z M121.9,9.8l24.4,22.3h-24.4V9.8z M30.4,173V6h85.5v32.1H151V173H30.4z"/>
		<path class="st3" d="M116.9,134.6c-2-2.1-4.6-4.9-9.7-4.9c-5.1,0-7.7,2.9-9.7,4.9c-1.9,2-3,3.1-5.3,3.1c-2.3,0-3.4-1-5.3-3.1
			c-2-2.1-4.6-4.9-9.7-4.9c-5.1,0-7.7,2.9-9.7,4.9c-1.9,2-3,3.1-5.3,3.1c-2.3,0-3.4-1-5.3-3.1c-2-2.1-4.6-4.9-9.7-4.9v6
			c2.3,0,3.4,1,5.3,3.1c2,2.1,4.6,4.9,9.7,4.9c5.1,0,7.7-2.9,9.7-4.9c1.9-2,3-3.1,5.3-3.1c2.3,0,3.4,1,5.3,3.1
			c2,2.1,4.6,4.9,9.7,4.9c5.1,0,7.7-2.9,9.7-4.9c1.9-2,3-3.1,5.3-3.1c2.3,0,3.4,1,5.3,3.1c2,2.1,4.6,4.9,9.7,4.9v-6
			C119.9,137.6,118.8,136.6,116.9,134.6z"/>
		<path class="st3" d="M66.6,22.6H44.1v22.5h22.5V22.6z M60.6,39.1H50.1V28.6h10.5V39.1z"/>
	</g>
</g>
</svg>
