<?xml version="1.0" encoding="utf-8"?>
<!-- Generator: Adobe Illustrator 19.2.0, SVG Export Plug-In . SVG Version: 6.00 Build 0)  -->
<svg version="1.1" xmlns="http://www.w3.org/2000/svg" xmlns:xlink="http://www.w3.org/1999/xlink" x="0px" y="0px"
	 viewBox="0 0 193 179" style="enable-background:new 0 0 193 179;" xml:space="preserve">
<style type="text/css">
	.st0{fill:#212C5B;}
	.st1{fill:#5166A8;}
	.st2{fill:#657DB7;}
	.st3{fill:#39498A;}
	.st4{fill:#2A3470;}
</style>
<g id="Layer_1">
</g>
<g id="Layer_2">
	<g>
		<rect x="43.1" y="30.5" class="st4" width="87.3" height="26"/>
	</g>
	<g>
		<rect x="66.7" y="70.6" class="st4" width="126.3" height="26"/>
	</g>
	<g>
		<rect y="110.6" class="st4" width="77.3" height="26"/>
	</g>
	<g>
		<path class="st1" d="M61.5,111.4c-10-2-16.5-11.8-14.5-21.7l5.9,1.2c-1.4,6.7,3,13.3,9.8,14.7L61.5,111.4z"/>
	</g>
	<g>
		<path class="st1" d="M32.1,37.6c-0.8-6.8-6.9-11.8-13.8-11l-0.7-6C27.8,19.5,36.9,26.9,38,37L32.1,37.6z"/>
	</g>
	<g>
		<path class="st1" d="M135.8,98.4h-6c0-8.5,6.9-15.4,15.4-15.4v6C140,89,135.8,93.3,135.8,98.4z"/>
	</g>
	<g>
		<path class="st1" d="M131.2,27c-13.2,0-24-10.8-24-24h6c0,9.9,8.1,18,18,18V27z"/>
	</g>
	<g>
		<path class="st1" d="M135.8,98.4h-6c0-8-6.5-14.4-14.4-14.4v-6C126.6,78,135.8,87.2,135.8,98.4z"/>
	</g>
	<g>
		<path class="st1" d="M153.8,122.4c-13.2,0-24-10.8-24-24h6c0,9.9,8.1,18,18,18V122.4z"/>
	</g>
	<g>
		<path class="st1" d="M112.9,179l-0.5-1.2c-0.1-0.3-16.3-42.9-29.8-57.8c-3.8-4.2-12.7-8.7-23.4-8.7c-30.7,0-55.7-25-55.7-55.7
			S28.5,0,59.2,0h64c17.1,0,33.2,6.9,45.4,19.4c12.1,12.4,18.8,28.7,18.8,45.9c0,17.3-6.1,33.4-17.2,45.3
			c-11.3,12.2-26.9,18.9-43.9,18.9c-7.9,0-8.3,0.9-8.3,2.3l9.3,47.4H112.9z M59.2,6C31.8,6,9.6,28.3,9.6,55.7s22.3,49.7,49.7,49.7
			c12.6,0,23.1,5.4,27.9,10.7c12.4,13.7,26.8,49.6,30,57.4l3.1,0l-8.3-41.3v-0.3c0-8.5,8.6-8.5,14.3-8.5c31.4,0,55.1-25,55.1-58.1
			c0-32.7-26.1-59.2-58.1-59.2H59.2z"/>
	</g>
	<g>
		<path class="st1" d="M79.7,73.7l-6-55.7h23.1l-5.9,55.1L79.7,73.7z M80.3,24L85,67.4l0.3,0L90,24H80.3z"/>
	</g>
	<g>
		<path class="st1" d="M84.3,99.9c-5.6,0-10.2-4.6-10.2-10.2c0-5.6,4.6-10.2,10.2-10.2c5.6,0,10.2,4.6,10.2,10.2
			C94.5,95.4,89.9,99.9,84.3,99.9z M84.3,85.6c-2.3,0-4.2,1.9-4.2,4.2c0,2.3,1.9,4.2,4.2,4.2c2.3,0,4.2-1.9,4.2-4.2
			C88.5,87.4,86.6,85.6,84.3,85.6z"/>
	</g>
</g>
<g id="Layer_3">
</g>
</svg>
