<?xml version="1.0" encoding="utf-8"?>
<!-- Generator: Adobe Illustrator 21.0.2, SVG Export Plug-In . SVG Version: 6.00 Build 0)  -->
<svg version="1.1" id="Layer_1" xmlns="http://www.w3.org/2000/svg" xmlns:xlink="http://www.w3.org/1999/xlink" x="0px" y="0px"
	 viewBox="0 0 506.7 1457.9" style="enable-background:new 0 0 506.7 1457.9;" xml:space="preserve">
<style type="text/css">
	.st0{fill:#EB6661;}
	.st1{fill:#24245A;}
	.st2{fill:#C64852;}
</style>
<g>
	<g>
		<path class="st0" d="M124.1,329.1h63.3l85.7,230.7h-56.4l-16-46.1h-90.6l-16,46.1H38.4L124.1,329.1z M187.5,468.6l-32-86.5
			l-32.1,86.5H187.5z"/>
	</g>
	<g>
		<path class="st0" d="M347.8,467.6l-89.7-138.4h64.6l51.1,85.7l51.1-85.7h64.6l-89.7,138.4V561h-52.1V467.6z"/>
	</g>
	<g>
		<path class="st0" d="M53.9,636.3h152.3v46.8H105.4v42.5h85.4v48.1h-85.4v45.8h103.9V867H53.9V636.3z"/>
	</g>
	<g>
		<path class="st0" d="M282.7,636.3H373c50.1,0,86,33,86,76.8c0,27.7-17,53.1-41.4,67.9l53.6,86h-61.6l-44.7-74.5h-30.8V867h-51.4
			V636.3z M372.3,749.3c20.8,0,34.6-15.2,34.6-33s-13.8-33-34.6-33h-38.2v65.9H372.3z"/>
	</g>
	<g>
		<path class="st0" d="M290.3,1165.1v-54.9c18.3,11.9,39.7,21.4,68.2,21.4c17.5,0,41.9-5.3,41.9-20.4c0-32.6-112.4-17.1-112.4-94.3
			c0-42.9,34.6-73.8,87-73.8c21.1,0,46.5,5.1,61.9,12.5v52.9c-14.3-9.1-36.8-16.7-56.3-16.7c-24.4,0-40.9,8.9-40.9,21.1
			c0,32.3,114.7,15.8,114.7,93.9c0,43.2-34.9,74.8-87.7,74.8C329.9,1181.8,307.2,1173.2,290.3,1165.1z"/>
	</g>
	<g>
		<g>
			<path class="st0" d="M55.3,22h52.1v181.6h114v49.1H55.3V22z"/>
		</g>
	</g>
	<g>
		<path class="st1" d="M316,493.7l-80.6-123.1l31.6-18.3l65.3,100.9v92.3l32.8,32.8h53.7l-49.9,28.8H316V493.7z"/>
	</g>
	<g>
		<path class="st1" d="M22.9,545.4l29.5,32.8h50.8l-49.9,28.8H0L22.9,545.4z M178,560.9h-68.9l10.1-28.8h77.5l4.6,13.4l39.4,32.8
			h59.7l-49.9,28.8H194L178,560.9z M158.4,417l13.7,37.1h-27.4L158.4,417z"/>
	</g>
	<g>
		<path class="st1" d="M22.7,69.2l17.1-9.9v179l32.8,32.8H240L190,299.9H22.7V69.2z"/>
	</g>
	<g>
		<g>
			<path class="st1" d="M21.4,683.5l17.1-9.9v179l32.8,32.8h156.9l-49.9,28.8H21.4V683.5z M175.3,711.2h-52.6v-12.7h100.4
				l-38.4,22.1L175.3,711.2z M122.7,789.1h84.9l-27.7,16h-57.2V789.1z"/>
		</g>
	</g>
	<g>
		<g>
			<path class="st1" d="M250.1,683.5l17.1-9.9v179l35.3,32.8h50.6l-49.9,28.8h-53.1V683.5z M349.8,724.2v-25.7h41.5
				c0.2,1.2,0.2,2.3,0.2,3.5c0,15.5-10.4,28.8-26.4,32.1C361.2,729.6,356.1,726.2,349.8,724.2z M353.1,837.9v-32h13l28,46.6
				l52.6,32.8h60l-49.9,28.8h-43.3L353.1,837.9z"/>
		</g>
	</g>
	<g>
		<g>
			<path class="st1" d="M274.9,1095.8c-10.4-6.8-16.1-20.3-16.1-34.9c0-17,5.4-32.1,15.3-44.2c2,9.9,6.4,17.8,12.2,24.4l13.7,16.2
				c18.5,21.6,24.6,29.2,49.3,38.6c9.6,3.6,21.3,7.3,31.1,11.2c-8.1,7.4-24.6,10.2-37.2,10.2
				C314.6,1117.2,293.2,1107.7,274.9,1095.8z M259.4,1212.3v-52.4l15.5-9.2l32.8,32.8c16.2,8.1,37.9,16.6,73.2,16.6
				c19.4,0,36.4-4.3,50.1-11.9l-46.8,27c-15.7,9.1-33.1,13.7-53.2,13.7C296.5,1229,275.2,1220.4,259.4,1212.3z M360.4,1022
				c5.9-7.9,19.6-13.4,37.6-13.4c19.4,0,42,8.4,58.3,19.3l-35.9,20.8C404.3,1034.2,380.4,1027.9,360.4,1022z"/>
		</g>
	</g>
	<g>
		<path class="st2" d="M22.9,545.4h55.7l0.7-1.8h2v4.8h-0.5l1.8,2.5v-1.3h4.6v4.6H85l3.3,4.3v-3H93v4.6h-3.5l13.7,18.1H52.4
			L22.9,545.4z M82.4,537.7h4.8v4.9h-4.8V537.7z M85.4,525.8h2v5.1h-3.6L85.4,525.8z M105.3,537.2h-5.8v-5.8h-5.9v-5.9h5.1v-5.1
			h-5.1v5.1h-5.9v-5.9h5.1v-4.9h-3.5l5.3-15.3h90.6l11.4,32.8h-77.5l-2.8,8.2V538h-5.1v5.1h-5.9V537.2z M88.2,531.7h5.1v5.1h-5.1
			V531.7z M88.3,543.6h4.8v4.8h-4.8V543.6z M94.1,537.7H99v4.9h-4.9V537.7z M94.1,549.5H99v4.8h-4.9V549.5z M94.3,561.2h4.6v4.8
			h-4.6V561.2z M97.9,512.8v-3.3h-3.5v3.3H97.9z M104.5,531.2v-4.9h-4.9v4.9H104.5z M99.9,543.4h5.1v5.1h-5.1V543.4z M100,555.3h4.8
			v4.8H100V555.3z M100.2,567.2h4.6v4.6h-4.6V567.2z M103.8,518.7v-3.5h-3.5v3.5H103.8z M106.8,505.2v-3.8h-4v3.8H106.8z
			 M110.4,537.2v-4.9h-4.9v4.9H110.4z M105.8,549.4h5.1v4.9h-5.1V549.4z M106,561.2h3.1l-1.6,4.8H106V561.2z M109.6,524.7v-3.5h-3.3
			v3.5H109.6z M112.9,511.3v-3.8h-4v3.8H112.9z M111.2,445.2h1.5v5.8h-3.6L111.2,445.2z M111.2,543.1h4.1l-2.1,5.9h-2V543.1z
			 M115.5,530.4v-3.3h-3.5v3.3H115.5z M112.7,441.3l0.7-1.8h5.1v5.8h-5.8V441.3z M112.9,451.1h5.6v3h-5.6V451.1z M119.2,517.6v-4
			H115v4H119.2z M119.3,505.2v-3.8h-4v3.8H119.3z M124.6,451.1h5.6v-5.8h-5.8v5.6h-5.8v-5.8h5.6v-5.8h-5.8v-5.8h-3l4.6-12.4h3.6
			v-4.6h-2l4.9-13.4h2.5v-4h-1l5.4-14.5h1v-2.6l5.4-14.7l5.6,15.2h-1.5v2h2v-0.7l12.2,33h-3.5v3.6h2.1l-4.9,13.7h-3.5v4.3h1.8
			l-4.8,12.9h-3.5v2.6h-6.1v-2.8h-5.8v2.8h-5.8V451.1z M124.1,433.2v-5.3h-5.3v5.3H124.1z M125.1,523.7v-4h-4v4H125.1z M125.4,511.3
			v-3.8h-4v3.8H125.4z M130,439.1v-5.3h-5.3v5.3H130z M129.7,427.1v-4.8h-4.8v4.8H129.7z M129.5,415.2v-4.5h-4.4v4.5H129.5z
			 M131.4,529.8v-4h-4v4H131.4z M131.7,517.6v-4h-4.1v4H131.7z M131.7,505.2v-3.8h-4v3.8H131.7z M135.8,445.1v-5.3h-5.3v5.3H135.8z
			 M135.6,433v-4.8h-4.8v4.8H135.6z M135.3,421v-4.3H131v4.3H135.3z M135.1,409.1v-4h-4v4H135.1z M134.8,397.1v-3.3h-3.3v3.3H134.8z
			 M137.6,523.7v-4h-4v4H137.6z M137.8,511.3v-3.8h-4v3.8H137.8z M141.7,450.8v-5.3h-5.3v5.3H141.7z M141.4,439v-4.8h-4.8v4.8H141.4
			z M141.2,426.9v-4.3H137v4.3H141.2z M141.1,414.9v-3.8h-4v3.8H141.1z M140.6,403v-3.3h-3.3v3.3H140.6z M140.4,390.8v-2.6h-2.6v2.6
			H140.4z M140.1,378.8v-2h-2v2H140.1z M144,517.6v-4h-4.1v4H144z M143.9,529.8v-4h-4v4H143.9z M144,505.2v-3.8h-4v3.8H144z
			 M147.3,444.7v-4.8h-4.8v4.8H147.3z M147.2,432.9v-4.4h-4.4v4.4H147.2z M146.8,420.8v-4h-3.8v4H146.8z M146.5,408.8v-3.3h-3.3v3.3
			H146.5z M146.2,396.8v-2.6h-2.6v2.6H146.2z M150,523.7v-4h-4v4H150z M150.1,511.3v-3.8h-4v3.8H150.1z M152.8,426.8v-4h-4v4H152.8z
			 M152.4,414.7v-3.3h-3.3v3.3H152.4z M152,402.5v-2.6h-2.6v2.6H152z M156.4,517.6v-4h-4.1v4H156.4z M156.2,529.8v-4h-4v4H156.2z
			 M156.4,505.2v-3.8h-4v3.8H156.4z M162.3,523.7v-4h-4v4H162.3z M162.5,511.3v-3.8h-4v3.8H162.5z M168.8,517.6v-4h-4.1v4H168.8z
			 M168.6,529.8v-4h-4v4H168.6z M168.8,505.2v-3.8h-4v3.8H168.8z M174.7,523.7v-4h-4v4H174.7z M174.9,511.3v-3.8h-4v3.8H174.9z
			 M181.1,517.6v-4H177v4H181.1z M181,529.8v-4h-4v4H181z M181.1,505.2v-3.8h-4v3.8H181.1z M187.1,523.7v-4h-4v4H187.1z
			 M187.2,511.3v-3.8h-4v3.8H187.2z M193.3,529.8v-4h-4v4H193.3z M201.2,545.4h56.4l42.7,32.8h-59.7L201.2,545.4z"/>
	</g>
	<g>
		<path class="st2" d="M332.3,545.4h52.1l34.4,32.8h-53.7L332.3,545.4z M384.4,453l1-1.5h3.3v4.1h-4.3V453z M385.2,463.8h3v3h-3
			V463.8z M385.7,476.2h2v1.8h-2V476.2z M390,445.2h4.9v4.9H390V445.2z M390.7,457.6h3.6v3.8h-3.6V457.6z M391.2,469.9h2.6v2.6h-2.6
			V469.9z M391.6,482.1h1.6v1.6h-1.6V482.1z M395.4,436.1v2.6h-1.8L395.4,436.1z M395.6,439h5.6v5.8h-5.6V439z M396.1,451.3h4.6v4.4
			h-4.6V451.3z M396.8,463.7h3.3v3.3h-3.3V463.7z M397.3,476h2.3v2.1h-2.3V476z M401.2,427.3v5.8h-3.8L401.2,427.3z M401.4,426.9
			l3.6-5.6h2.1v5.8h-5.8V426.9z M401.4,433.2h5.8v5.6h-5.8V433.2z M401.5,445.1h5.4v5.4h-5.4V445.1z M402.2,457.4h4.1v4.1h-4.1
			V457.4z M402.9,469.8h2.8v3h-2.8V469.8z M403.4,482h1.8v2h-1.8V482z M407.3,417.9l1.5-2.5h4.3v5.9h-5.8V417.9z M407.3,427.3h5.8
			v5.8h-5.8V427.3z M407.3,439h5.8v5.8h-5.8V439z M407.6,451.1h4.9v4.9h-4.9V451.1z M408.3,463.5h3.8v3.6h-3.8V463.5z M408.8,475.9
			h2.6v2.5h-2.6V475.9z M409.3,488.1h1.6v1.6h-1.6V488.1z M424.8,421.3h5.9v-5.9h-5.9V421.3H419v-5.9h5.8v-5.8H419v5.8h-5.9v-5.8
			h-0.5l0.5-0.8v0.7h5.8v-5.8h-2.5l2.6-4.1v4h5.8v-5.6h-4.6l4-6.1h0.5V391l3.5-5.1h2.3v-3.8l1.5-2.3h4.3v-5.1h-1l1.8-2.8v2h4.9v-4.9
			h-3l12.2-19h2.1v-3.1l1.8-2.8l0.2-0.2v0.2h3.8v-3.8h-1.5l3.6-5.8v3.5h3.5v-3.5h-3.5l14-20.5l18.8,26.4l3,3.8l-5.1,7.7h-1.3v2.1
			l-2.5,3.6h-3.6v4h1l-2.6,4v-2.1h-4.3v4.3h2.8l-12.4,18.8h-2.6v4l-1.2,1.8h-4.8v5.3h1.3l-1.8,2.6v-2.1h-5.4v5.4h3.3l-3.6,5.6v-5.3
			h-5.6v5.6h5.3l-4,6.1h-1.5v2l-2.5,3.8h-3.5v5.3l-0.3,0.5h-5.4v-5.8h-5.9v5.8h-5.9V421.3z M413.1,421.3h5.9v5.8h-5.9V421.3z
			 M413.2,433.2h5.6v5.6h-5.6V433.2z M413.2,444.9h5.6v5.6h-5.6V444.9z M413.7,457.2h4.6v4.5h-4.6V457.2z M414.4,469.6h3.3v3.3h-3.3
			V469.6z M414.9,481.8h2.3v2.3h-2.3V481.8z M419,427.3h5.8v5.8H419V427.3z M419,439h5.8v5.8H419V439z M419.2,450.8h5.4v2.6
			l-1.8,2.8h-3.6V450.8z M430.5,397.7v-5.6h-5.6v5.6H430.5z M430.5,409.5v-5.6h-5.6v5.6H430.5z M424.9,433h5.8v5.8h-5.8V433z
			 M424.9,444.9h5.4l-3.8,5.6h-1.6V444.9z M436.5,415.4v-5.8h-5.8v5.8H436.5z M430.7,427.3h5.8v5.8h-5.8V427.3z M430.7,439h3.5
			l-3.5,5.3V439z M436.3,391.7v-5.3h-5.4v5.3H436.3z M436.5,403.5v-5.6h-5.6v5.6H436.5z M442.4,409.5v-5.6h-5.8v5.6H442.4z
			 M442.4,421.3v-5.8h-5.8v5.8H442.4z M436.6,433h1.5l-1.5,2.3V433z M442.2,397.6v-5.4h-5.4v5.4H442.2z M442.1,385.7v-5.1H437v5.1
			H442.1z M448.2,403.5v-5.4h-5.6v5.4H448.2z M448.2,415.4v-5.8h-5.6v5.8H448.2z M448,391.7v-5.3h-5.3v5.3H448z M447.9,379.8v-4.9
			h-4.9v4.9H447.9z M447.7,367.9v-4.6h-4.6v4.6H447.7z M453.9,397.6v-5.3h-5.4v5.3H453.9z M453.8,385.7v-5.1h-5.1v5.1H453.8z
			 M453.6,373.9v-4.8h-4.8v4.8H453.6z M453.5,362v-4.4H449v4.4H453.5z M459.7,391.7v-5.3h-5.3v5.3H459.7z M459.6,379.8v-4.9h-4.9
			v4.9H459.6z M459.4,367.9v-4.6h-4.6v4.6H459.4z M459.2,355.9v-4.1h-4.3v4.1H459.2z M465.5,385.7v-5.1h-4.9v5.1H465.5z
			 M465.3,373.9v-4.8h-4.6v4.8H465.3z M465.2,361.8v-4.3h-4.3v4.3H465.2z M465,350v-4h-4v4H465z M471.3,379.8V375h-4.8v4.8H471.3z
			 M471.1,367.8v-4.5h-4.5v4.5H471.1z M470.9,355.9v-4.1h-4.1v4.1H470.9z M470.8,343.9v-3.6H467v3.6H470.8z M470.4,332v-3.3h-3.1
			v3.3H470.4z M477,373.7v-4.4h-4.6v4.4H477z M476.9,361.8v-4.1h-4.3v4.1H476.9z M476.7,349.8V346h-4v3.8H476.7z M476.4,337.9v-3.3
			h-3.3v3.3H476.4z M476.2,325.9v-2.8h-3v2.8H476.2z M482.6,355.7v-3.8h-4v3.8H482.6z M482.3,343.9v-3.5h-3.5v3.5H482.3z
			 M482.1,331.8v-3H479v3H482.1z M488.2,349.8v-3.6h-3.6v3.6H488.2z M488.1,337.8v-3.1h-3.1v3.1H488.1z M494,343.9v-3.5h-3.3v3.5
			H494z"/>
	</g>
	<g>
		<path class="st2" d="M38.5,852.6h156.9l32.8,32.8H71.3L38.5,852.6z M73.8,857.9v-1.6h-1.6v1.6H73.8z M79.7,863.8v-1.6H78v1.6H79.7
			z M86,857.9v-2h-2.1v2H86z M85.6,869.7v-1.6H84v1.6H85.6z M117.8,703.3H112v-5.8h-5.9v-5.9h-5.9v-5.8h-5.8v-5.9h-4.4v-6.3h3.5
			v-4.3h-3.5v-0.7h100.9l32.8,29.8H118.1v4.4h4.6v6.3h-4.9V703.3z M89.9,686.5h3.8v4.1h-3.8V686.5z M117.8,793.9H112v-5.8h-5.9v-5.9
			h-5.9v-5.8h-5.8v-5.9h-4.4v-6.3h3.5V760h-3.5v-0.7h85.4l32.8,29.8h-90v4.4h4.6v6.3h-4.9V793.9z M89.9,777.1h3.8v4.1h-3.8V777.1z
			 M91.9,863.8v-2h-2v2H91.9z M91.7,875.8v-1.6h-1.6v1.6H91.7z M90.6,699.3h2v2h-2V699.3z M90.6,790h2v2h-2V790z M99.1,679.5v-4.4
			l-4.4-0.2v4.6H99.1z M99.1,770.2v-4.6h-4.4v4.6H99.1z M95.4,692.2h4.1v4.3h-4.1V692.2z M95.4,782.9h4.1v4.3h-4.1V782.9z
			 M98.3,858.2v-2.6h-2.6v2.6H98.3z M98,869.9v-2h-2.1v2H98z M97.7,881.8v-1.6H96v1.6H97.7z M96.3,705.1h2.1v2h-2.1V705.1z
			 M96.3,795.7h2.1v2h-2.1V795.7z M101.6,763.1v-1.6H100v1.6H101.6z M105.1,685.5v-4.6h-4.6v4.6H105.1z M105.1,776.1v-4.6h-4.6v4.6
			H105.1z M101.3,698.2h4.1v4.1h-4.1V698.2z M101.3,788.8h4.1v4.1h-4.1V788.8z M104.3,864.1v-2.6h-2.6v2.6H104.3z M103.9,875.8v-2
			h-2v2H103.9z M102.3,801.7h2v2h-2V801.7z M104.9,672.4v-1.6h-1.6v1.6H104.9z M107.7,769.2v-1.6h-1.6v1.6H107.7z M111,691.2v-4.4
			l-4.6-0.2v4.6H111z M111,781.9v-4.6h-4.6v4.6H111z M107.1,704.1h4.1v4.1h-4.1V704.1z M107.1,794.7h4.1v4.1h-4.1V794.7z
			 M110.7,858.5v-3.3h-3.3v3.3H110.7z M110.4,870.2v-2.6h-2.6v2.6H110.4z M110,881.9v-2h-2.1v2H110z M111,678.5v-1.6h-1.6v1.6H111z
			 M114,763.3v-2h-2.1v2H114z M113.6,775.1v-1.6H112v1.6H113.6z M116.8,697.2v-4.6h-4.4v4.6H116.8z M116.8,787.8v-4.6h-4.4v4.6
			H116.8z M113,800.5h4.1v4.1H113V800.5z M116.6,864.4v-3.3h-3.3v3.3H116.6z M116.3,876.1v-2.6h-2.6v2.6H116.3z M117.3,672.6v-2
			h-2.1v2H117.3z M116.9,684.5v-1.6h-1.6v1.6H116.9z M119.9,769.2v-2h-2v2H119.9z M119.7,781.2v-1.6h-1.6v1.6H119.7z M122.9,858.7
			v-3.8h-3.8v3.8H122.9z M122.7,870.5v-3.3h-3.3v3.3H122.7z M122.4,882.2v-2.6h-2.6v2.6H122.4z M123.2,678.5v-2h-2v2H123.2z
			 M123,690.6v-1.6h-1.6v1.6H123z M126.3,763.6v-2.6h-2.6v2.6H126.3z M126,775.3v-2h-2.1v2H126z M125.7,787.1v-1.6H124v1.6H125.7z
			 M129,864.8v-4h-4v4H129z M128.6,876.5v-3.3h-3.3v3.3H128.6z M129.6,672.9v-2.6H127v2.6H129.6z M129.3,684.6v-2h-2.1v2H129.3z
			 M129,696.5v-1.6h-1.6v1.6H129z M132.3,769.5v-2.6h-2.6v2.6H132.3z M131.9,781.2v-2h-2v2H131.9z M135.2,859v-4.4h-4.5v4.4H135.2z
			 M134.9,870.7v-3.8h-3.8v3.8H134.9z M134.7,882.6v-3.3h-3.3v3.3H134.7z M135.6,678.9v-2.6h-2.6v2.6H135.6z M135.2,690.6v-2h-2v2
			H135.2z M138.7,763.7v-3.1h-3.3v3.1H138.7z M138.4,775.6V773h-2.6v2.6H138.4z M138,787.3v-2h-2.1v2H138z M141.3,865.1v-4.4h-4.4
			v4.4H141.3z M141,876.8v-4h-4v4H141z M142,673.1V670h-3.3v3.1H142z M141.7,685v-2.6H139v2.6H141.7z M141.3,696.7v-2h-2.1v2H141.3z
			 M144.6,769.8v-3.3h-3.3v3.3H144.6z M144.3,781.5v-2.6h-2.6v2.6H144.3z M147.1,859v-4.4h-4.5v4.4H147.1z M147.3,871v-4.4h-4.5v4.4
			H147.3z M146.9,882.7v-3.8h-3.8v3.8H146.9z M147.9,679.2v-3.3h-3.3v3.3H147.9z M147.6,690.9v-2.6H145v2.6H147.6z M150.9,764.1
			v-3.8h-3.8v3.8H150.9z M150.7,775.9v-3.3h-3.3v3.3H150.7z M150.4,787.6V785h-2.6v2.6H150.4z M153.2,865.1v-4.4h-4.5v4.4H153.2z
			 M153.4,877.1v-4.4h-4.4v4.4H153.4z M154.2,673.4v-3.8h-3.8v3.8H154.2z M154,685.3V682h-3.3v3.3H154z M153.7,697v-2.6h-2.6v2.6
			H153.7z M157,770.2v-4h-4v4H157z M156.7,781.9v-3.3h-3.3v3.3H156.7z M159.1,859v-4.4h-4.5v4.4H159.1z M159.1,871v-4.4h-4.5v4.4
			H159.1z M159.3,883.1v-4.4h-4.4v4.4H159.3z M160.3,679.5v-4h-4v4H160.3z M160,691.2v-3.3h-3.3v3.3H160z M163.3,764.4V760h-4.4v4.4
			H163.3z M162.9,776.1v-3.8h-3.8v3.8H162.9z M162.8,788v-3.3h-3.3v3.3H162.8z M165.2,865.1v-4.4h-4.5v4.4H165.2z M165.2,877.1v-4.4
			h-4.5v4.4H165.2z M166.6,673.8v-4.4h-4.5v4.4H166.6z M166.2,685.5v-3.8h-3.8v3.8H166.2z M166.1,697.3V694h-3.3v3.3H166.1z
			 M169.4,770.5v-4.4h-4.5v4.4H169.4z M169,782.2v-4h-4v4H169z M171,859v-4.4h-4.4v4.4H171z M171.2,871v-4.4h-4.5v4.4H171.2z
			 M171.2,883.1v-4.4h-4.5v4.4H171.2z M172.6,679.9v-4.4h-4.4v4.4H172.6z M172.3,691.6v-4h-4v4H172.3z M175.3,764.4V760h-4.4v4.4
			H175.3z M175.3,776.4V772h-4.4v4.4H175.3z M175,788.1v-3.8h-3.8v3.8H175z M177.1,865.1v-4.4h-4.5v4.4H177.1z M177.3,877.1v-4.4
			h-4.4v4.4H177.3z M178.6,673.8v-4.4h-4.5v4.4H178.6z M178.6,685.8v-4.4h-4.5v4.4H178.6z M178.3,697.5v-3.8h-3.8v3.8H178.3z
			 M181.4,770.5v-4.4h-4.5v4.4H181.4z M181.4,782.5v-4.5h-4.5v4.5H181.4z M183,859v-4.4h-4.5v4.4H183z M183,871v-4.4h-4.5v4.4H183z
			 M183.2,883.1v-4.4h-4.5v4.4H183.2z M184.7,679.9v-4.4h-4.4v4.4H184.7z M184.7,691.9v-4.5h-4.4v4.5H184.7z M187.3,776.4V772h-4.5
			v4.4H187.3z M187.3,788.5V784h-4.5v4.4H187.3z M189.1,865.1v-4.4h-4.5v4.4H189.1z M189.1,877.1v-4.4h-4.5v4.4H189.1z M190.6,673.8
			v-4.4h-4.4v4.4H190.6z M190.6,685.8v-4.4h-4.4v4.4H190.6z M190.6,697.8v-4.4h-4.4v4.4H190.6z M193.4,782.5v-4.5H189v4.5H193.4z
			 M194.9,859v-4.4h-4.4v4.4H194.9z M195.1,871v-4.4h-4.5v4.4H195.1z M195.1,883.1v-4.4h-4.5v4.4H195.1z M196.7,679.9v-4.4h-4.5v4.4
			H196.7z M196.7,691.9v-4.5h-4.5v4.5H196.7z M199.3,788.5V784h-4.5v4.4H199.3z M201,865.1v-4.4h-4.5v4.4H201z M201.2,877.1v-4.4
			h-4.4v4.4H201.2z M202.6,685.8v-4.4h-4.4v4.4H202.6z M202.6,697.8v-4.4h-4.4v4.4H202.6z M206.9,871v-4.4h-4.4v4.4H206.9z
			 M207.1,883.1v-4.4h-4.5v4.4H207.1z M208.7,691.9v-4.5h-4.5v4.5H208.7z M213,877.1v-4.4h-4.5v4.4H213z M214.7,697.8v-4.4h-4.5v4.4
			H214.7z M219,883.1v-4.4h-4.5v4.4H219z"/>
	</g>
	<g>
		<path class="st2" d="M267.2,852.6h51.4l34.4,32.8h-50.6L267.2,852.6z M345,703.4h-5.9v-5.9h-5.9v-5.9h-5.8v-5.8h-5.9v-5.9h-2.8
			v-6.1h1.8V669h36.4c19.4,0,32.8,13.2,34.4,29.5h-46v4.6h4.4v6.1H345V703.4z M318.7,686.5h2.1v4.1h-2.1V686.5z M318.7,699.3h1v2h-1
			V699.3z M348.3,816.3h-5.9v-5.9h-5.9v-5.8h-5.8v-5.9h-6.1v-5.8H319v-6.1h4.9v-5.4h-5.3v-3.3h30.8l16.8,27.9h-13.2v5.4h-4.5v4.6
			h4.5v6.1h-4.8V816.3z M320,799.3h4.1v4.1H320V799.3z M321,812.2h2v2h-2V812.2z M326.4,679.5v-4.6h-4.6v4.6H326.4z M322.4,692.4
			h4.3v4.1h-4.3V692.4z M323.6,705.1h2v2.1h-2V705.1z M329.7,792.4v-4.6h-4.8v4.6H329.7z M325.7,805.3h4.1v4.1h-4.1V805.3z
			 M326.9,818.1h2v2h-2V818.1z M332.3,685.5v-4.6h-4.6v4.6H332.3z M331.7,672.9v-3.3h-3.3v3.3H331.7z M328.4,698.2h4.1v4.3h-4.1
			V698.2z M329.5,711h2v2h-2V711z M335.5,798.4v-4.6H331v4.6H335.5z M331.7,811h4.1v4.3h-4.1V811z M332.7,823.9h2.1v2h-2.1V823.9z
			 M338.1,691.2v-4.4h-4.6v4.4H338.1z M337.6,679.5v-3.3h-3.3v3.3H337.6z M334.3,704.1h4.1v4.1h-4.1V704.1z M335.3,716.9h2v2h-2
			V716.9z M341.4,804.3v-4.6h-4.6v4.6H341.4z M337.4,817h4.3v4.1h-4.3V817z M338.6,829.8h2v2h-2V829.8z M344,697.2v-4.6h-4.6v4.6
			H344z M340.1,710h4.3v4.1h-4.3V710z M343.9,672.9v-3.3h-3.3v3.3H343.9z M343.9,685.3V682h-3.3v3.3H343.9z M341.2,722.7h2v2.1h-2
			V722.7z M347.3,810.1v-4.5h-4.6v4.5H347.3z M343.4,822.9h4.1v4.1h-4.1V822.9z M344.5,835.6h2v2.1h-2V835.6z M346,715.8h3.8v4.1
			H346V715.8z M349.8,679.5v-3.3h-3.3v3.3H349.8z M350.1,691.7v-3.3h-3.3v3.3H350.1z M347,728.6h2.1v2H347V728.6z M349.3,828.7h3.8
			v4.3h-3.8V828.7z M350.3,841.5h2v2h-2V841.5z M356.1,685.3V682h-3.3v3.3H356.1z M356.1,697.7v-3.3h-3.3v3.3H356.1z M355.6,672.4
			v-2.3h-2.3v2.3H355.6z M362.3,691.7v-3.3H359v3.3H362.3z M361.5,679v-2.3h-2.3v2.3H361.5z M368.3,697.7v-3.3H365v3.3H368.3z
			 M367.6,684.8v-2.1h-2.1v2.1H367.6z M374,691.2v-2.3h-2.3v2.3H374z M373.5,678.5v-1.6h-1.6v1.6H373.5z M379.8,697.2V695h-2.1v2.1
			H379.8z M379.8,684.5v-1.6h-1.6v1.6H379.8z M386.1,690.9v-1.6h-1.6v1.6H386.1z M394.1,852.6h61.6l50.9,32.8h-60L394.1,852.6z
			 M442.4,792.8h-6.8V787h-5.9v-5.4h-6.1v-4.8h-6.3v-4.9h-6.4v-5.8H405v4.9l-2.8-4.5c6.3-3.8,11.9-8.2,17-13.2v4.3h4.6V753h-4.3
			c1.8-1.8,3.5-3.6,5.1-5.4v4.6h5.6v-5.4h5.8v5.8h-5.4v5.4h5.4v-5.3h5.8v5.8h-5.4v5.4h5.6v-5.4h5.8v5.8h-5.4v5.6h5.6v-5.4h5.6v5.8
			h-5.3v5.4h5.4v-5.3h5.8v4.8l-0.8,1H454v4.6l-1.8,1.6h-3.6v3c-1.5,1.2-2.8,2.1-4.3,3.1h-2v4h3.1l2.6,4.1v0.3h-5.6V792.8z
			 M405.7,772h4.6v5.4H409L405.7,772z M411.4,781.4v-4.3h4.9v4.9h-4.5L411.4,781.4z M417,763.1v-3.6h-3.6v3.6H417z M418,782.4h4.4
			v4.5H418V782.4z M419,793.6h2.1v3.3L419,793.6z M423,769v-3.6h-3.5v3.6H423z M424.3,788h4v4h-4V788z M424.6,798.5h2.6v2.6h-2.6
			V798.5z M429.7,763.4v-4.6h-4.6v4.6H429.7z M430.1,740.5v6.1h-4.6C426.8,745,429.1,741.8,430.1,740.5z M429.1,774.8v-3.5h-3.6v3.5
			H429.1z M430.4,793.1h3.6v3.6h-3.6V793.1z M430.6,739.7l2.6-4.1h2.3v4.8h-4.9V739.7z M435.5,769.3v-4.6h-4.5v4.6H435.5z
			 M435.2,780.6v-3.8h-4v3.8H435.2z M431.7,803.1h1.8v1.8h-1.8V803.1z M436.5,741.3h4.8v4.8h-4.8V741.3z M441.4,775.3v-4.6h-4.6v4.6
			H441.4z M437,730.1h3.8v3.8H437V730.1z M441.3,786.5v-4h-4.1v4H441.3z M437.5,798h3.1v3.1h-3.1V798z M440.4,719.2v2.5h-0.8
			L440.4,719.2z M442.4,747.3h4.8v4.8h-4.8V747.3z M447.4,781.1v-4.6h-4.6v4.6H447.4z M442.9,735.9h3.8v4h-3.8V735.9z M443.2,724.7
			h3v3h-3V724.7z M443.7,713.3h2.1v2.1h-2.1V713.3z M443.9,802.6h2.6v2.6h-2.6V802.6z M444.1,702.1h1.3v1.3h-1.3V702.1z
			 M448.2,753.2h4.9v4.8h-4.9V753.2z M448.7,741.8h4v4h-4V741.8z M449,797.9l2.3,3.5h-2.5L449,797.9z M449.2,730.6h3v3h-3V730.6z
			 M449.7,719.2h2v2.1h-2V719.2z M450,707.9h1.5v1.5H450V707.9z M451,807.3h1.8v1.8H451V807.3z M454.1,759h4.8v4.8h-4.8V759z
			 M454.6,747.8h3.8v3.8h-3.8V747.8z M455.1,736.4h3v3h-3V736.4z M455.4,725.2h2.1v2h-2.1V725.2z M455.8,713.6h1.5v1.5h-1.5V713.6z
			 M460.1,764.9h4.8v3.1l-1.2,1.6h-3.6V764.9z M460.4,753.5h4v4h-4V753.5z M460.9,742.3h3v3h-3V742.3z M461.4,730.9h2v2.1h-2V730.9z
			 M461.7,719.6h1.5v1.5h-1.5V719.6z M466.3,759.5h3.5l-2.1,4h-1.3V759.5z M466.8,748.3h3v2.8h-3V748.3z M467.3,736.9h2v2h-2V736.9z
			 M467.6,725.5h1.3v1.3h-1.3V725.5z M473.1,742.8h2.1l-0.3,2h-1.8V742.8z M473.4,731.3h1.5v1.5h-1.5V731.3z"/>
	</g>
	<g>
		<path class="st2" d="M428.5,1178.6h5.9v5.9h3l-3.3,2v-1.8h-5.3v4.8l-3,1.5h-2.5v1.2c-2.5,1-4.9,2-7.6,2.8v-3.6H412v3.8h3.1
			c-5.9,2-11.7,3-17.6,4v-1.2H395v1.5c-3.5,0.5-10.1,0.8-14.2,0.8c-35.3,0-57-8.6-73.2-16.6l-32.8-32.8
			c16.8,8.1,39.6,16.6,76.5,16.6c10.9,0,21.9-1.5,31.3-4.1v2.5h3.8v-3.6c4.4-1.6,8.7-3.3,12.9-5.4v4h5.4v-5.3h-3l3.3-2v1.8h5.8v5.8
			h5.9v5.9h5.9v5.8h5.8V1178.6z M285.6,1040.4l1.2,1.3C286.3,1041.3,285.9,1040.9,285.6,1040.4z M286.8,1041.8
			c4.8,5.3,11.4,10.4,18.1,14h-0.3v2.3h2.3v-1.2c16.6,8.9,34.4,13.4,49.9,18.3v1.2h3.5c2.1,0.8,4.1,1.5,5.9,2.3h-3.6v3.6h3.6v-3.6
			c5.3,2,10.7,4.8,13.8,7.7v2h1.8c2,2.3,3.1,5.1,3.1,8.4c0,4.8-2.1,7.7-4.6,10.2l-2.1-0.8v-4.3h-4.1v2.8l-13.7-4.9v-3.6h-3.8v2.3
			c-4.6-1.5-9.6-3.5-14-5.3v-2.6h-3.5v1.2c-7.1-3.3-15-8.4-19.9-13.2C307.5,1067.1,296.2,1052.3,286.8,1041.8z M312.8,1061.5h-2.5
			v2.6h2.5V1061.5z M316.1,1070.1h2.6v-2.8h-2.6V1070.1z M321.9,1076h3v-2.8h-3V1076z M327,994.6h-2l0.8-2h1.2V994.6z M327.6,1082
			h3.1v-3h-3.1V1082z M327.8,1070.1h2.8v-2.8h-2.8V1070.1z M334.1,990h-4.8v-2.1l3.3-2.6h1v-0.7c3.3-2,6.9-3.3,8.1-3.6v2.6h3.5v-3.5
			h-1c6.1-1.6,13.2-2.6,21.1-2.6c19.4,0,42,7.6,58.3,17.6l32.8,32.8c-16-10.9-39.7-19.3-57.4-19.3c-11.2,0-17.6,1.3-24.7,3.8v-3H371
			v3.5h2c-1.5,0.7-3,1.3-4.4,2.1h-4.9v3.5l-1,0.8h-3.8v-4.8h4.1v-5.3h-5.3v4.1h-4.8v-4.8h4.3v-5.3h-5.4v4.3h-4.8v-4.8h4.3v-5.4h-5.3
			v4.3h-4.8v-4.8h4.3v-5.3H340v4.3h-4.8v-4.8h4.3v-5.4h-5.4V990z M330.8,1000.4v-2h2v2H330.8z M333.4,1087.9h3.3v-3.1h-3.3V1087.9z
			 M333.6,1076h3v-3h-3V1076z M336.7,1006.2v-1.8h1.8v1.8H336.7z M339.3,1082.1h3.3v-3.3h-3.3V1082.1z M342.5,1012.1v-2h2v2H342.5z
			 M345.1,1088.1h3.5v-3.5h-3.5V1088.1z M345.3,1076.2h3.1v-3.3h-3.1V1076.2z M347.4,989.5h3.6v-3.6h-3.6V989.5z M348.4,1017.9v-1.8
			h2v1.8H348.4z M350.9,1094h3.6v-3.6h-3.6V1094z M351,1082.1h3.5v-3.3H351V1082.1z M353.3,995.3h3.5v-3.5h-3.5V995.3z M353.5,983.4
			h3.1v-3.1h-3.1V983.4z M356,1169h-1.6v1.5h1.6V1169z M356.8,1088.1h3.6v-3.5h-3.6V1088.1z M359.3,1001.2h3.5v-3.5h-3.5V1001.2z
			 M359.4,989.2h3.1v-3h-3.1V989.2z M361.7,1174.8h-1.5v1.6h1.5V1174.8z M362.6,1094.2h3.8v-3.8h-3.8V1094.2z M365,1007.2h3.6v-3.6
			H365V1007.2z M365.4,995.1h3V992h-3V995.1z M365.5,983.1h1.6v-1.5h-1.6V983.1z M368,1168.5h-2.3v2.3h2.3V1168.5z M367.7,1180.7
			h-1.5v1.5h1.5V1180.7z M368.3,1088.2h4v-3.8h-4V1088.2z M368.3,1100.1h4v-4h-4V1100.1z M371.1,1001.1h3.1v-3.1h-3.1V1001.1z
			 M371.5,989h1.5v-1.6h-1.5V989z M373.9,1174.4h-2.3v2.3h2.3V1174.4z M373.6,1186.6H372v1.5h1.6V1186.6z M374.3,1094.2h4v-4h-4
			V1094.2z M377.1,1006.8h3.1v-3h-3.1V1006.8z M380.2,1168.2h-3.1v3.1h3.1V1168.2z M377.2,995h1.6v-1.6h-1.6V995z M379.9,1180.2
			h-2.3v2.5h2.3V1180.2z M379.4,1192.4h-1.5v1.5h1.5V1192.4z M380,1100.1h4.1v-4.1H380V1100.1z M386,1174.1h-3v3h3V1174.1z
			 M383.2,1000.7h1.6v-1.5h-1.6V1000.7z M385.6,1186.1h-2.3v2.3h2.3V1186.1z M385.3,1198.3h-1.5v1.5h1.5V1198.3z M392.2,1167.8h-3.8
			v3.8h3.8V1167.8z M391.9,1179.9h-3.1v3.1h3.1V1179.9z M389.1,1006.7h1.5v-1.6h-1.5V1006.7z M391.6,1192.1h-2.3v2.3h2.3V1192.1z
			 M398.5,1161.6H394v4.5h4.5V1161.6z M398.2,1173.6h-3.8v4h3.8V1173.6z M397.8,1185.8h-3.1v3.1h3.1V1185.8z M404.4,1167.5h-4.6v4.4
			h4.6V1167.5z M404.1,1179.5h-4v3.8h4V1179.5z M403.6,1191.7h-3v3h3V1191.7z M410.7,1161.3h-5.3v5.3h5.3V1161.3z M410.2,1173.3
			h-4.5v4.6h4.5V1173.3z M409.9,1185.5h-3.8v3.8h3.8V1185.5z M411,1155v-5.4h5.4v5.4H411z M416.5,1167.2h-5.3v5.1h5.3V1167.2z
			 M416.1,1179.2h-4.5v4.4h4.5V1179.2z M422.2,1160.9h-5.4v-5.4h5.4V1160.9z M417.1,1149.2v-4.8h4.8v4.8H417.1z M422.4,1173h-5.3
			v5.3h5.3V1173z M422.1,1185.2h-4.6v4.4h4.6V1185.2z M422.7,1161.3h5.4v5.4h-5.4V1161.3z M423.1,1149.9h4.8v4.8h-4.8V1149.9z
			 M428.2,1178.9h-5.1v5.3h5.1V1178.9z M427.5,1138.3v4.3h-4.1v-4.3H427.5z M434.1,1172.6h-5.6v-5.4h5.6V1172.6z M428.8,1155.6h4.9
			v4.9h-4.9V1155.6z M429.2,1144.3h4.3v4.3h-4.3V1144.3z M429.5,1132.9h3.6v3.5h-3.6V1132.9z M432.9,1121.9v2.5h-1.2L432.9,1121.9z
			 M434.4,1173h5.4v5.6h-5.4V1173z M434.8,1161.6h4.9v4.9h-4.9V1161.6z M435.1,1150.2h4.3v4.1h-4.3V1150.2z M435.4,1138.7h3.6v3.6
			h-3.6V1138.7z M435.7,1127.3h3v3h-3V1127.3z M438.4,1115.8v2.5h-2.5v-2.5H438.4z M440.4,1178.9h4.3l-4.3,3.5V1178.9z
			 M440.7,1167.5h4.8v4.8h-4.8V1167.5z M441,1156h4.1v4.3H441V1156z M441.3,1144.6h3.5v3.6h-3.5V1144.6z M441.5,1133.1h3.1v3.1h-3.1
			V1133.1z M441.8,1121.7h2.5v2.5h-2.5V1121.7z M442,1110.2h2v2h-2V1110.2z M443.8,1098.6v1.5h-1.5v-1.5H443.8z M446.5,1173.3h3.8
			l-3.8,4V1173.3z M446.8,1161.9h4.3v4.3h-4.3V1161.9z M447.1,1150.5h3.6v3.5h-3.6V1150.5z M447.4,1139h3v3h-3V1139z M447.6,1127.5
			h2.6v2.6h-2.6V1127.5z M447.9,1116.1h2v2h-2V1116.1z M449.8,1104.6v1.5h-1.5v-1.5H449.8z M452.7,1167.8h2.1l-2.1,2.8V1167.8z
			 M453.1,1156.3h3.6v3.6h-3.6V1156.3z M453.2,1144.9h3.1v3h-3.1V1144.9z M453.5,1133.4h2.5v2.5h-2.5V1133.4z M453.9,1121.9h2v2h-2
			V1121.9z M455.5,1110.5v1.5H454v-1.5H455.5z M459.2,1150.7h3.1v3.1h-3.1V1150.7z M462,1141.8h-2.5v-2.5h2.5V1141.8z M461.6,1129.8
			h-2v-2h2V1129.8z M461.5,1117.7H460v-1.5h1.5V1117.7z M465.2,1145.1h0.7l-0.7,2.3V1145.1z M467.6,1133.7v2h-2v-2H467.6z
			 M467.2,1123.7h-1.5v-1.5h1.5V1123.7z"/>
	</g>
	<g>
		<path class="st2" d="M39.9,238.3h167.3l32.8,32.8H72.7L39.9,238.3z M121.9,72.3H116v-5.9h-5.9v-5.9h-5.9v-5.9h-5.9v-5.9h-5.6v-6.1
			H98V37h-6.1V7.5l34.4,32.8v3.5h-3.5v4h3.5v7.4h-3.8v4.8h3.8v6.8h-4.3v5.4h4.3v6.1h-4.5V72.3z M109.3,243.7v-1.6h-1.6v1.6H109.3z
			 M92.6,54.7H98v5.4h-5.4V54.7z M97.7,30.3v-4.8h-4.8v4.8H97.7z M92.9,66.7h4.9v4.9h-4.9V66.7z M97.4,18.1v-4h-4.1v4H97.4z
			 M93.3,78.7h4.3V83h-4.3V78.7z M93.6,90.8h3.6v3.6h-3.6V90.8z M93.9,103h3v3h-3V103z M94.3,115h2.3v2.3h-2.3V115z M94.6,127h1.6
			v1.6h-1.6V127z M104,48.4V43h-5.6v5.4H104z M115.4,249.8v-1.6h-1.6v1.6H115.4z M98.5,60.6h5.4V66h-5.4V60.6z M103.6,36.2v-4.8
			h-4.9v4.8H103.6z M98.9,72.6h4.9v4.8h-4.9V72.6z M103.3,24v-4H99v4H103.3z M99.2,84.7h4.3v4.3h-4.3V84.7z M99.5,96.7h3.6v3.6h-3.6
			V96.7z M99.9,108.7h3v3h-3V108.7z M100.2,120.9h2.3v2.3h-2.3V120.9z M100.5,132.9h1.6v1.6h-1.6V132.9z M121.6,243.9v-2h-2.1v2
			H121.6z M109.9,54.3v-5.4h-5.6v5.4H109.9z M121.3,255.7v-1.6h-1.6v1.6H121.3z M104.5,66.5h5.4V72h-5.4V66.5z M109.6,42.1v-4.8
			h-4.8v4.8H109.6z M104.8,78.4h4.8v4.9h-4.8V78.4z M109.3,29.9v-4h-4.1v4H109.3z M105.1,90.6h4.1v4.1h-4.1V90.6z M105.3,102.6h3.6
			v3.6h-3.6V102.6z M105.6,114.7h3v3h-3V114.7z M106,126.7h2.3v2.3H106V126.7z M106.3,138.9h1.6v1.6h-1.6V138.9z M115.8,60.3v-5.4
			h-5.6v5.4H115.8z M127.6,249.8v-2h-2v2H127.6z M110.4,72.5h5.4v5.4h-5.4V72.5z M127.4,261.8v-1.6h-1.6v1.6H127.4z M110.6,84.3h4.9
			v4.9h-4.9V84.3z M115.5,48.1v-4.8h-4.8v4.8H115.5z M110.9,96.4h4.3v4.3h-4.3V96.4z M115.2,35.9v-4h-4.1v4H115.2z M111.2,108.4h3.6
			v3.6h-3.6V108.4z M111.6,120.6h3v3h-3V120.6z M111.9,132.6h2.3v2.3h-2.3V132.6z M112.2,144.6h1.6v1.6h-1.6V144.6z M134,244.2v-2.6
			h-2.6v2.6H134z M121.8,66.2v-5.4h-5.6v5.4H121.8z M133.7,255.9v-2h-2.1v2H133.7z M116.3,78.4h5.4v5.4h-5.4V78.4z M133.3,267.8
			v-1.6h-1.6v1.6H133.3z M116.5,90.3h4.8V95h-4.8V90.3z M121.4,54v-4.8h-4.8V54H121.4z M116.8,102.3h4.3v4.3h-4.3V102.3z
			 M121.1,41.8v-4H117v4H121.1z M117.2,114.3h3.6v3.6h-3.6V114.3z M117.5,126.4h3v3h-3V126.4z M117.8,138.6h2.3v2.3h-2.3V138.6z
			 M118.2,150.6h1.6v1.6h-1.6V150.6z M139.9,250.1v-2.6h-2.6v2.6H139.9z M122.3,84.3h4.1v5.4h-4.1V84.3z M139.6,261.8v-2h-2v2H139.6
			z M122.4,96h4v4.9h-4V96z M122.6,108.1h3.8v4.3h-3.8V108.1z M122.9,120.3h3.5v3.6h-3.5V120.3z M123.3,132.3h3v3h-3V132.3z
			 M123.6,144.3h2.3v2.3h-2.3V144.3z M123.9,156.4h1.6v1.6h-1.6V156.4z M146.4,244.4v-3.1h-3.3v3.1H146.4z M146,256.2v-2.6h-2.6v2.6
			H146z M145.7,267.9v-2h-2.1v2H145.7z M152.3,250.5v-3.3H149v3.3H152.3z M152,262.2v-2.6h-2.6v2.6H152z M158.6,244.7v-3.8h-3.8v3.8
			H158.6z M158.4,256.6v-3.3h-3.3v3.3H158.4z M158.1,268.3v-2.6h-2.6v2.6H158.1z M164.6,250.8v-4h-4v4H164.6z M164.3,262.5v-3.3H161
			v3.3H164.3z M170.9,245v-4.4h-4.4v4.4H170.9z M170.6,256.7v-3.8h-3.8v3.8H170.6z M170.4,268.6v-3.3h-3.3v3.3H170.4z M177,251.1
			v-4.4h-4.5v4.4H177z M176.7,262.8v-4h-4v4H176.7z M182.9,257v-4.4h-4.5v4.4H182.9z M183.1,245v-4.4h-4.4v4.4H183.1z M182.6,268.8
			V265h-3.8v3.8H182.6z M189,263.1v-4.5h-4.5v4.5H189z M189.2,251.1v-4.4h-4.5v4.4H189.2z M195,245v-4.4h-4.5v4.4H195z M195,269.1
			v-4.4h-4.5v4.4H195z M195.1,257v-4.4h-4.4v4.4H195.1z M201.1,251.1v-4.4h-4.4v4.4H201.1z M201.2,263.1v-4.5h-4.5v4.5H201.2z
			 M207,245v-4.4h-4.5v4.4H207z M207,257v-4.4h-4.5v4.4H207z M207.2,269.1v-4.4h-4.5v4.4H207.2z M213.1,251.1v-4.4h-4.4v4.4H213.1z
			 M213.1,263.1v-4.5h-4.4v4.5H213.1z M219,257v-4.4h-4.4v4.4H219z M219,269.1v-4.4h-4.4v4.4H219z M225.1,263.1v-4.5h-4.5v4.5H225.1
			z M231.1,269.1v-4.4h-4.4v4.4H231.1z"/>
	</g>
	<g>
		<path class="st1" d="M204.9,477.5H75.6l-17,45.7h-4.3l69.4-186.7h33l69.4,186.7h-4.3L204.9,477.5z M203.4,473.6l-49.3-133.2h-27.7
			L77.1,473.6H203.4z"/>
	</g>
	<g>
		<path class="st1" d="M430.1,336.9l-69.7,110.8v75.5h-4v-75.6L287,336.9h4.6l66.8,107.1l67.1-107.1H430.1z"/>
	</g>
	<g>
		<path class="st1" d="M173.1,826.9v4H62.1V643.3h106.5v4H66v86h87v4H66v89.7H173.1z"/>
	</g>
	<g>
		<path class="st1" d="M368.1,756.5l45.3,73.8h-4.6l-45-73.3c-2,0.2-4.1,0.2-6.3,0.2h-62.6v73.2h-4V643.4h66.6
			c36.4,0,62,23.4,62,56.9C419.5,730.5,398.7,752.4,368.1,756.5z M357.5,753.2c34.3,0,57.8-21.6,57.8-52.9
			c0-31.3-23.6-52.9-57.8-52.9h-62.6v105.8H357.5z"/>
	</g>
	<g>
		<path class="st1" d="M414,1095c0,31.3-24.6,49.6-65.9,49.6c-19.3,0-35.9-3-50.9-9.1v-4.3c14.8,6.3,31.3,9.4,50.9,9.4
			c39.2,0,61.8-16.8,61.8-45.7c0-31.3-26.9-38.4-55-45.7c-28.5-7.4-58.3-14.8-58.3-48.1c0-31.1,25.9-50.4,67.1-50.4
			c14.3,0,28.5,3.5,37.7,7.3v4.3c-10.7-4.6-25.2-7.6-37.7-7.6c-39.1,0-63,17.8-63,46.5c0,30.3,26.7,36.8,55.2,44.2
			C384.2,1052.6,414,1060.7,414,1095z"/>
	</g>
	<g>
		<g>
			<path class="st1" d="M63.9,29.8h4v181.8h117v4h-121V29.8z"/>
		</g>
	</g>
</g>
<g>
	<g>
		<path class="st1" d="M31.7,1014.4h-6.3l-0.6,8.7h-4.9l5.6-71.4h6.7l5.6,71.4h-5.4L31.7,1014.4z M25.8,1009.8h5.6l-1.2-16.3
			c-0.7-9.6-1.2-19.4-1.6-29c-0.4,9.6-1,19.4-1.6,29L25.8,1009.8z"/>
		<path class="st1" d="M60.5,951.7h7.6c4.1,0,8.3,1.3,8.3,8.1v55.3c0,6.7-4.2,8.1-8.3,8.1h-7.6V951.7z M65.8,956.3v62.2h2
			c2.3,0,3.3-0.9,3.3-3.4v-55.5c0-2.4-0.9-3.4-3.3-3.4H65.8z"/>
		<path class="st1" d="M89.4,1018.5h7.3v4.6H84.1v-71.4h12.5v4.6h-7.2v27.3h6.2v4.6h-6.2V1018.5z"/>
		<path class="st1" d="M108.7,1015.9c0,2.1,0.7,3.3,2.7,3.3s2.7-1.1,2.7-3.3v-10.4c0-17.5-10.3-19.6-10.3-39.5v-6.5
			c0-5.9,2.8-8.6,7.9-8.6c5,0,7.8,2.7,7.8,8.6v16.2h-5v-16.9c0-2.1-0.7-3.3-2.7-3.3s-2.7,1.1-2.7,3.3v8.1
			c0,17.5,10.3,19.6,10.3,39.5v8.9c0,5.9-2.8,8.6-7.9,8.6c-5,0-7.8-2.7-7.8-8.6v-18.4h5V1015.9z"/>
		<path class="st1" d="M126.8,951.7h5.3v71.4h-5.3V951.7z"/>
		<path class="st1" d="M150.4,988.6h-2.8V984h7.9v39.1h-2.8l-0.5-2.4c-1,2.2-3.2,3.2-5.8,3.2c-4,0-6.8-2.2-6.8-8.6v-55.7
			c0-5.9,2.9-8.6,8-8.6c5,0,7.9,2.7,7.9,8.6v19.8h-5v-20.5c0-2.1-0.8-3.3-2.8-3.3c-1.9,0-2.8,1.1-2.8,3.3v57.1
			c0,2.1,0.8,3.3,2.7,3.3c1.9,0,2.9-1.1,2.9-3.3V988.6z"/>
		<path class="st1" d="M180,951.7v71.4h-5.4l-5.4-38.6c-0.7-4.8-1.5-12.3-2-17.2c0.1,5,0.5,12.7,0.5,17.3v38.5h-4.6v-71.4h6.7
			l4.2,30.7c0.6,4.4,1.4,12.7,2,17.6c-0.2-4.9-0.5-13.3-0.5-17.9v-30.4H180z"/>
		<path class="st1" d="M29.2,1100.5c1.9,0,2.8-1.1,2.8-3.3v-23.4h5v22.6c0,5.9-2.9,8.6-7.9,8.6c-5.1,0-8-2.7-8-8.6v-55.7
			c0-5.9,2.9-8.6,8-8.6c5,0,7.9,2.7,7.9,8.6v20.6h-5v-21.3c0-2.1-0.8-3.3-2.8-3.3c-1.9,0-2.8,1.1-2.8,3.3v57.1
			C26.4,1099.4,27.2,1100.5,29.2,1100.5z"/>
		<path class="st1" d="M44.3,1040.8c0-5.9,3-8.6,8.1-8.6c5.1,0,8.1,2.7,8.1,8.6v55.7c0,5.9-3,8.6-8.1,8.6c-5.1,0-8.1-2.7-8.1-8.6
			V1040.8z M52.3,1100.5c1.9,0,2.8-1.1,2.8-3.3v-57.1c0-2.1-0.8-3.3-2.8-3.3c-1.9,0-2.8,1.1-2.8,3.3v57.1
			C49.6,1099.4,50.4,1100.5,52.3,1100.5z"/>
		<path class="st1" d="M84.9,1033v71.4h-5.4l-5.4-38.6c-0.7-4.8-1.5-12.3-2-17.2c0.1,5,0.5,12.7,0.5,17.3v38.5H68V1033h6.7l4.2,30.7
			c0.6,4.4,1.4,12.7,2,17.6c-0.2-4.9-0.5-13.3-0.5-17.9V1033H84.9z"/>
		<path class="st1" d="M98,1104.4h-5.3V1033H105v4.6H98v28.6h5.9v4.6H98V1104.4z"/>
		<path class="st1" d="M117.1,1099.8h7.3v4.6h-12.6V1033h12.5v4.6h-7.2v27.3h6.2v4.6h-6.2V1099.8z"/>
		<path class="st1" d="M137.1,1071v33.3h-5.3V1033h7.8c4.1,0,8.3,1.3,8.3,8.1v21c0,4.1-1.5,5.9-3.7,6.7c2.1,0.7,3.7,2.7,3.7,6.7
			v17.4c0,8,0.5,10,1.2,11.4h-5.7c-0.4-1-0.8-2.5-0.8-6.6v-21.9c0-3.7-1-4.8-4.1-4.8H137.1z M139.2,1066.5c2.3,0,3.3-0.8,3.3-3.2
			v-22.4c0-2.4-0.9-3.4-3.3-3.4h-2.1v29H139.2z"/>
		<path class="st1" d="M161.5,1099.8h7.3v4.6h-12.6V1033h12.5v4.6h-7.2v27.3h6.2v4.6h-6.2V1099.8z"/>
		<path class="st1" d="M193.1,1033v71.4h-5.4l-5.4-38.6c-0.7-4.8-1.5-12.3-2-17.2c0.1,5,0.5,12.7,0.5,17.3v38.5h-4.6V1033h6.7
			l4.2,30.7c0.6,4.4,1.4,12.7,2,17.6c-0.2-4.9-0.5-13.3-0.5-17.9V1033H193.1z"/>
		<path class="st1" d="M208.7,1100.5c1.9,0,2.8-1.1,2.8-3.3v-23.4h5v22.6c0,5.9-2.9,8.6-7.9,8.6c-5.1,0-8-2.7-8-8.6v-55.7
			c0-5.9,2.9-8.6,8-8.6c5,0,7.9,2.7,7.9,8.6v20.6h-5v-21.3c0-2.1-0.8-3.3-2.8-3.3c-1.9,0-2.8,1.1-2.8,3.3v57.1
			C206,1099.4,206.8,1100.5,208.7,1100.5z"/>
		<path class="st1" d="M229.3,1099.8h7.3v4.6H224V1033h12.5v4.6h-7.2v27.3h6.2v4.6h-6.2V1099.8z"/>
		<path class="st1" d="M26.8,1185.7h-5.3v-71.4h12.2v4.6h-6.9v28.6h5.9v4.6h-5.9V1185.7z"/>
		<path class="st1" d="M40.5,1122.1c0-5.9,3-8.6,8.1-8.6c5.1,0,8.1,2.7,8.1,8.6v55.7c0,5.9-3,8.6-8.1,8.6c-5.1,0-8.1-2.7-8.1-8.6
			V1122.1z M48.5,1181.8c1.9,0,2.8-1.1,2.8-3.3v-57.1c0-2.1-0.8-3.3-2.8-3.3c-1.9,0-2.8,1.1-2.8,3.3v57.1
			C45.8,1180.7,46.6,1181.8,48.5,1181.8z"/>
		<path class="st1" d="M69.5,1152.3v33.3h-5.3v-71.4h7.8c4.1,0,8.3,1.3,8.3,8.1v21c0,4.1-1.5,5.9-3.7,6.7c2.1,0.7,3.7,2.7,3.7,6.7
			v17.4c0,8,0.5,10,1.2,11.4h-5.7c-0.4-1-0.8-2.5-0.8-6.6v-21.9c0-3.7-1-4.8-4.1-4.8H69.5z M71.6,1147.8c2.3,0,3.3-0.8,3.3-3.2
			v-22.4c0-2.4-0.9-3.4-3.3-3.4h-2.1v29H71.6z"/>
		<path class="st1" d="M117.4,1118.9h-4.9v66.8h-5.3v-66.8h-4.9v-4.6h15.1V1118.9z"/>
		<path class="st1" d="M129.6,1185.7h-5.3v-71.4h5.3v31.9h5.6v-31.9h5.3v71.4h-5.3v-34.9h-5.6V1185.7z"/>
		<path class="st1" d="M153.6,1181.1h7.3v4.6h-12.6v-71.4h12.5v4.6h-7.2v27.3h6.2v4.6h-6.2V1181.1z"/>
		<path class="st1" d="M31.7,1258.3h-6.3l-0.6,8.7h-4.9l5.6-71.4h6.7l5.6,71.4h-5.4L31.7,1258.3z M25.8,1253.7h5.6l-1.2-16.3
			c-0.7-9.6-1.2-19.4-1.6-29c-0.4,9.6-1,19.4-1.6,29L25.8,1253.7z"/>
		<path class="st1" d="M50.2,1266.9h-5.3v-71.4h7.6c4.1,0,8.3,1.3,8.3,8.1v24.8c0,6.7-4.2,8.1-8.3,8.1h-2.3V1266.9z M50.2,1200.2
			v31.7h2c2.3,0,3.3-0.9,3.3-3.3v-25.1c0-2.4-0.9-3.4-3.3-3.4H50.2z"/>
		<path class="st1" d="M73.4,1266.9h-5.3v-71.4h7.6c4.1,0,8.3,1.3,8.3,8.1v24.8c0,6.7-4.2,8.1-8.3,8.1h-2.3V1266.9z M73.4,1200.2
			v31.7h2c2.3,0,3.3-0.9,3.3-3.3v-25.1c0-2.4-0.9-3.4-3.3-3.4H73.4z"/>
		<path class="st1" d="M91.3,1195.6h5.3v66.8h6.9v4.6H91.3V1195.6z"/>
		<path class="st1" d="M115.6,1262.4h7.3v4.6h-12.6v-71.4h12.5v4.6h-7.2v27.3h6.2v4.6h-6.2V1262.4z"/>
		<path class="st1" d="M29.2,1344.4c1.9,0,2.8-1.1,2.8-3.3v-23.4h5v22.6c0,5.9-2.9,8.6-7.9,8.6c-5.1,0-8-2.7-8-8.6v-55.7
			c0-5.9,2.9-8.6,8-8.6c5,0,7.9,2.7,7.9,8.6v20.6h-5V1284c0-2.1-0.8-3.3-2.8-3.3c-1.9,0-2.8,1.1-2.8,3.3v57.1
			C26.4,1343.2,27.2,1344.4,29.2,1344.4z"/>
		<path class="st1" d="M44.3,1284.7c0-5.9,3-8.6,8.1-8.6c5.1,0,8.1,2.7,8.1,8.6v55.7c0,5.9-3,8.6-8.1,8.6c-5.1,0-8.1-2.7-8.1-8.6
			V1284.7z M52.3,1344.4c1.9,0,2.8-1.1,2.8-3.3V1284c0-2.1-0.8-3.3-2.8-3.3c-1.9,0-2.8,1.1-2.8,3.3v57.1
			C49.6,1343.2,50.4,1344.4,52.3,1344.4z"/>
		<path class="st1" d="M80.8,1306.3l2.9-29.5h7.4v71.4h-5.2v-33.9c0-7.6,0.3-17.5,0.5-25.3c-0.6,7.8-1.4,17.5-2,25.1l-3.3,34.1h-3.9
			l-3.3-34.1c-0.7-7.5-1.4-17.3-2-25.1c0.1,7.8,0.5,17.6,0.5,25.3v33.9H68v-71.4h7.5l2.9,29.5c0.5,5.7,0.9,12.6,1.1,19
			C79.8,1319,80.3,1312,80.8,1306.3z"/>
		<path class="st1" d="M111.8,1306.3l2.9-29.5h7.4v71.4h-5.2v-33.9c0-7.6,0.3-17.5,0.5-25.3c-0.6,7.8-1.4,17.5-2,25.1l-3.3,34.1
			h-3.9l-3.3-34.1c-0.7-7.5-1.4-17.3-2-25.1c0.1,7.8,0.5,17.6,0.5,25.3v33.9h-4.5v-71.4h7.5l2.9,29.5c0.5,5.7,0.9,12.6,1.1,19
			C110.8,1319,111.3,1312,111.8,1306.3z"/>
		<path class="st1" d="M137.9,1344.4c1.8,0,2.8-1.1,2.8-3.2v-64.3h4.9v63.9c0,5.6-2.8,8.2-7.9,8.2c-5,0-8-2.5-8-8.2v-63.9h5.3v64.3
			C135.1,1343.2,136,1344.4,137.9,1344.4z"/>
		<path class="st1" d="M170.2,1276.9v71.4h-5.4l-5.4-38.6c-0.7-4.8-1.5-12.3-2-17.2c0.1,5,0.5,12.7,0.5,17.3v38.5h-4.6v-71.4h6.7
			l4.2,30.7c0.6,4.4,1.4,12.7,2,17.6c-0.2-4.9-0.5-13.3-0.5-17.9v-30.4H170.2z"/>
		<path class="st1" d="M178,1276.9h5.3v71.4H178V1276.9z"/>
		<path class="st1" d="M205.2,1281.4h-4.9v66.8H195v-66.8h-4.9v-4.6h15.1V1281.4z"/>
		<path class="st1" d="M222.5,1276.9h4.8l-6.3,48.7v22.6h-5.3v-22.6l-6.3-48.7h5.4l2.4,21.5c0.5,4.1,1.1,10.5,1.4,16.1
			c0.3-5.6,0.8-12,1.3-16.1L222.5,1276.9z"/>
	</g>
</g>
<g>
	<path class="st1" d="M26.1,1393.6h-5.2v-3.3h9.2v14.1c0,4-2.6,6.6-6.8,6.6c-2.9,0-4.3-1.3-4.3-1.3l1.6-2.9c0,0,0.9,0.7,2.4,0.7
		c1.7,0,3-1.3,3-3.2V1393.6z"/>
	<path class="st1" d="M46.7,1409.7c0,0-3,1.3-5.8,1.3c-4,0-6.2-2.2-6.2-5v-9.9h3.7v9.9c0,1,0.9,1.9,2.4,1.9c1,0,2-0.4,2-0.4V1396
		h3.7V1409.7z"/>
	<path class="st1" d="M51,1396.6c0,0,3-1.2,5.8-1.2c4,0,6.2,2.2,6.2,5v9.9h-3.7v-9.9c0-1-0.9-1.9-2.4-1.9c-1,0-2,0.3-2,0.3v11.5H51
		V1396.6z"/>
	<path class="st1" d="M70.3,1405c0,0,0.4,2.9,3.5,2.9c1.7,0,2.7-1,2.7-1l1.4,2.6c0,0-1.3,1.6-4.5,1.6c-4.2,0-7.1-2.9-7.1-7.8
		c0-5.2,2.6-7.8,6.2-7.8c3.6,0,6.2,2.6,6.2,7.8l-1.4,1.7H70.3z M70.3,1401.9H75c-0.1-2.2-1.3-3.3-2.3-3.3
		C71.6,1398.6,70.5,1399.8,70.3,1401.9z"/>
	<path class="st1" d="M94.8,1400.9c-2,0-3.3,1.2-3.3,1.2l-2.3-1.6v-10.2h12.4v3.3h-8.4v4.5c0,0,1-0.6,2.6-0.6c3.7,0,6.6,2.9,6.6,6.8
		c0,3.9-2.9,6.8-7.8,6.8c-4.2,0-6.3-2.6-6.3-2.6l1.7-2.7c0,0,1.6,1.9,4.3,1.9c2.6,0,3.9-1.3,3.9-3.3
		C98.3,1402.2,97,1400.9,94.8,1400.9z"/>
	<path class="st1" d="M116.5,1402.2h-10.9v-3.5h10.9V1402.2z"/>
	<path class="st1" d="M119.4,1410.4l6-16.7v-0.1h-8.5v-3.3h12.8v3.3l-6,16.9H119.4z"/>
	<path class="st1" d="M144.2,1393.1c-2.4,0-4,1.6-4,1.6l-1.6-2.7c0,0,1.9-2.3,5.9-2.3c4.6,0,7.5,2.9,7.5,6.5c0,3.3-2,5.2-3.9,7.1
		l-4.3,3.7v0.1h8.4v3.3h-13.5v-3.3l6.9-6.3c1.3-1.3,2.3-2.3,2.3-4.6C147.8,1394.4,146.5,1393.1,144.2,1393.1z"/>
	<path class="st1" d="M155,1400.3c0-7.2,3.5-10.7,7.8-10.7s7.8,3.5,7.8,10.7s-3.5,10.7-7.8,10.7S155,1407.6,155,1400.3z
		 M166.5,1400.3c0-5.3-1.9-7.2-3.7-7.2s-3.7,1.9-3.7,7.2s1.9,7.2,3.7,7.2S166.5,1405.7,166.5,1400.3z"/>
	<path class="st1" d="M181.7,1390.3v20.2h-4v-15h-0.1l-2.6,2.6l-1.9-2.6l5.2-5.2H181.7z"/>
	<path class="st1" d="M187.4,1410.4l6-16.7v-0.1H185v-3.3h12.8v3.3l-6,16.9H187.4z"/>
	<path class="st1" d="M33.5,1439.1c0,3.6-2.9,6.5-7.8,6.5c-4.2,0-6.3-2.6-6.3-2.6l1.7-2.7c0,0,1.6,1.9,4.3,1.9c2.6,0,3.9-1.3,3.9-3
		c0-3.6-9.1-1.7-9.1-8.8c0-3.3,2.7-6,6.9-6c4,0,5.9,2.3,5.9,2.3l-1.6,2.7c0,0-1.6-1.6-4-1.6c-1.9,0-3,1.2-3,2.6
		C24.5,1434,33.5,1432.3,33.5,1439.1z"/>
	<path class="st1" d="M48,1444.7c0,0-2.7,0.9-5.9,0.9c-3.9,0-5.9-2-5.9-5c0-3,2-5,5.8-5c1.3,0,2.3,0.3,2.3,0.3
		c0-1.7-0.9-2.6-2.3-2.6c-1.7,0-3,1-3,1l-1.4-2.6c0,0,1.9-1.6,4.6-1.6c3.6,0,5.9,2.3,5.9,6.3V1444.7z M42.1,1438.7
		c-1.3,0-2,0.7-2,1.9s0.7,1.9,2,1.9c1.2,0,2.2-0.3,2.2-0.3v-3.2C44.3,1438.9,43.3,1438.7,42.1,1438.7z"/>
	<path class="st1" d="M52.3,1431.2c0,0,3-1.2,5.8-1.2c4,0,6.2,2.2,6.2,5v9.9h-3.7v-9.9c0-1-0.9-1.9-2.4-1.9c-1,0-2,0.3-2,0.3v11.5
		h-3.7V1431.2z"/>
	<path class="st1" d="M80.8,1428.1h-5.2v-3.3h9.2v14.1c0,4-2.6,6.6-6.8,6.6c-2.9,0-4.3-1.3-4.3-1.3l1.6-2.9c0,0,0.9,0.7,2.4,0.7
		c1.7,0,3-1.3,3-3.2V1428.1z"/>
	<path class="st1" d="M95.2,1430c3.7,0,6.6,2.9,6.6,7.8s-2.9,7.8-6.6,7.8s-6.6-2.9-6.6-7.8S91.5,1430,95.2,1430z M95.2,1442.4
		c1.4,0,2.7-1.3,2.7-4.6s-1.3-4.6-2.7-4.6s-2.7,1.3-2.7,4.6S93.8,1442.4,95.2,1442.4z"/>
	<path class="st1" d="M109.1,1445.6c-3.5,0-5-1.9-5-1.9l1.4-2.6c0,0,1.4,1.3,3.3,1.3c1.7,0,2.4-0.7,2.4-1.7c0-2.2-6.6-0.7-6.6-5.9
		c0-2.7,2-4.8,5.5-4.8c3.2,0,4.8,1.7,4.8,1.7l-1.4,2.6c0,0-1.2-1.2-3-1.2c-1.2,0-1.9,0.7-1.9,1.6c0,2.4,6.6,0.4,6.6,5.9
		C115.1,1443.4,112.9,1445.6,109.1,1445.6z"/>
	<path class="st1" d="M121.6,1439.5c0,0,0.4,2.9,3.5,2.9c1.7,0,2.7-1,2.7-1l1.4,2.6c0,0-1.3,1.6-4.5,1.6c-4.2,0-7.1-2.9-7.1-7.8
		c0-5.2,2.6-7.8,6.2-7.8c3.6,0,6.2,2.6,6.2,7.8l-1.4,1.7H121.6z M121.6,1436.5h4.6c-0.1-2.2-1.3-3.3-2.3-3.3
		C122.9,1433.2,121.7,1434.3,121.6,1436.5z"/>
	<path class="st1" d="M133.7,1448.7l-0.9-1.3c0,0,1.2-0.9,1.4-2v-0.1c0,0-1.7-0.3-1.7-2.2c0-1.3,0.9-2.2,2-2.2s2,0.9,2,2.4
		C136.6,1447.2,133.7,1448.7,133.7,1448.7z"/>
	<path class="st1" d="M155.3,1424.3c3.6,0,5.5,1.9,5.5,1.9l-1.7,2.7c0,0-1.3-1.2-3.5-1.2c-3,0-5.2,2.2-5.2,7.2s2.2,7.2,5.2,7.2
		c2.4,0,3.7-1.4,3.7-1.4l1.7,2.7c0,0-2,2.2-5.8,2.2c-5.2,0-9.1-3.9-9.1-10.7S150.1,1424.3,155.3,1424.3z"/>
	<path class="st1" d="M167.1,1445h-4.2l6.5-20.2h5l6.5,20.2h-4.2l-1.3-4h-7.1L167.1,1445z M172,1430.2h-0.1l-2.3,7.3h4.8L172,1430.2
		z"/>
</g>
</svg>
