<?xml version="1.0" encoding="utf-8"?>
<!-- Generator: Adobe Illustrator 21.0.2, SVG Export Plug-In . SVG Version: 6.00 Build 0)  -->
<svg version="1.1" id="Layer_1" xmlns="http://www.w3.org/2000/svg" xmlns:xlink="http://www.w3.org/1999/xlink" x="0px" y="0px"
	 viewBox="0 0 793.3 966.8" style="enable-background:new 0 0 793.3 966.8;" xml:space="preserve">
<style type="text/css">
	.st0{fill:#24245A;}
	.st1{fill:#EB6661;}
	.st2{fill:#C64852;}
</style>
<g>
	<g>
		<path class="st0" d="M414.8,346.2h-5l-0.5,6.8h-3.8l4.4-56h5.3l4.4,56h-4.2L414.8,346.2z M410.1,342.6h4.4l-1-12.8
			c-0.6-7.5-1-15.2-1.3-22.7c-0.3,7.5-0.8,15.2-1.3,22.7L410.1,342.6z"/>
		<path class="st0" d="M437.3,297h6c3.2,0,6.5,1,6.5,6.3v43.4c0,5.3-3.3,6.3-6.5,6.3h-6V297z M441.5,300.6v48.8h1.6
			c1.8,0,2.6-0.7,2.6-2.6v-43.5c0-1.9-0.7-2.6-2.6-2.6H441.5z"/>
		<path class="st0" d="M460,349.4h5.8v3.6h-9.9v-56h9.8v3.6H460V322h4.9v3.6H460V349.4z"/>
		<path class="st0" d="M475.2,347.4c0,1.7,0.6,2.6,2.1,2.6c1.5,0,2.1-0.9,2.1-2.6v-8.2c0-13.8-8.1-15.4-8.1-31v-5.1
			c0-4.6,2.2-6.7,6.2-6.7c3.9,0,6.1,2.1,6.1,6.7v12.7h-3.9v-13.3c0-1.7-0.6-2.6-2.1-2.6c-1.5,0-2.1,0.9-2.1,2.6v6.3
			c0,13.8,8.1,15.4,8.1,31v7c0,4.6-2.2,6.7-6.2,6.7c-3.9,0-6.1-2.1-6.1-6.7v-14.4h3.9V347.4z"/>
		<path class="st0" d="M489.4,297h4.2v56h-4.2V297z"/>
		<path class="st0" d="M507.9,325.9h-2.2v-3.6h6.2V353h-2.2l-0.4-1.9c-0.8,1.8-2.5,2.5-4.6,2.5c-3.1,0-5.4-1.8-5.4-6.7v-43.7
			c0-4.6,2.2-6.7,6.2-6.7c3.9,0,6.2,2.1,6.2,6.7v15.5h-3.9v-16.1c0-1.7-0.6-2.6-2.2-2.6c-1.5,0-2.2,0.9-2.2,2.6v44.8
			c0,1.7,0.6,2.6,2.1,2.6c1.5,0,2.2-0.9,2.2-2.6V325.9z"/>
		<path class="st0" d="M531.1,297v56h-4.2l-4.2-30.3c-0.6-3.8-1.2-9.7-1.6-13.5c0.1,3.9,0.4,10,0.4,13.6V353h-3.6v-56h5.3l3.3,24.1
			c0.5,3.4,1.1,10,1.6,13.8c-0.2-3.8-0.4-10.4-0.4-14.1V297H531.1z"/>
		<path class="st0" d="M556.1,350c1.5,0,2.2-0.9,2.2-2.6v-18.3h3.9v17.8c0,4.6-2.2,6.7-6.2,6.7c-4,0-6.2-2.1-6.2-6.7v-43.7
			c0-4.6,2.2-6.7,6.2-6.7c3.9,0,6.2,2.1,6.2,6.7v16.2h-3.9v-16.7c0-1.7-0.6-2.6-2.2-2.6c-1.5,0-2.2,0.9-2.2,2.6v44.8
			C553.9,349.1,554.5,350,556.1,350z"/>
		<path class="st0" d="M567.9,303.1c0-4.6,2.3-6.7,6.3-6.7s6.3,2.1,6.3,6.7v43.7c0,4.6-2.3,6.7-6.3,6.7s-6.3-2.1-6.3-6.7V303.1z
			 M574.2,350c1.5,0,2.2-0.9,2.2-2.6v-44.8c0-1.7-0.6-2.6-2.2-2.6c-1.5,0-2.2,0.9-2.2,2.6v44.8C572.1,349.1,572.7,350,574.2,350z"/>
		<path class="st0" d="M599.8,297v56h-4.2l-4.2-30.3c-0.6-3.8-1.2-9.7-1.6-13.5c0.1,3.9,0.4,10,0.4,13.6V353h-3.6v-56h5.3l3.3,24.1
			c0.5,3.4,1.1,10,1.6,13.8c-0.2-3.8-0.4-10.4-0.4-14.1V297H599.8z"/>
		<path class="st0" d="M610.1,353h-4.2v-56h9.6v3.6h-5.4V323h4.6v3.6h-4.6V353z"/>
		<path class="st0" d="M625.1,349.4h5.8v3.6h-9.9v-56h9.8v3.6h-5.7V322h4.9v3.6h-4.9V349.4z"/>
		<path class="st0" d="M640.7,326.8V353h-4.2v-56h6.1c3.2,0,6.5,1,6.5,6.3v16.5c0,3.2-1.2,4.6-2.9,5.3c1.7,0.6,2.9,2.1,2.9,5.3V344
			c0,6.2,0.4,7.8,1,9h-4.5c-0.3-0.8-0.6-2-0.6-5.2v-17.2c0-2.9-0.8-3.8-3.2-3.8H640.7z M642.4,323.3c1.8,0,2.6-0.6,2.6-2.5v-17.6
			c0-1.9-0.7-2.6-2.6-2.6h-1.7v22.7H642.4z"/>
		<path class="st0" d="M659.9,349.4h5.8v3.6h-9.9v-56h9.8v3.6h-5.7V322h4.9v3.6h-4.9V349.4z"/>
		<path class="st0" d="M684.6,297v56h-4.2l-4.2-30.3c-0.6-3.8-1.2-9.7-1.6-13.5c0.1,3.9,0.4,10,0.4,13.6V353h-3.6v-56h5.3l3.3,24.1
			c0.5,3.4,1.1,10,1.6,13.8c-0.2-3.8-0.4-10.4-0.4-14.1V297H684.6z"/>
		<path class="st0" d="M696.9,350c1.5,0,2.2-0.9,2.2-2.6v-18.3h3.9v17.8c0,4.6-2.2,6.7-6.2,6.7c-4,0-6.2-2.1-6.2-6.7v-43.7
			c0-4.6,2.2-6.7,6.2-6.7c3.9,0,6.2,2.1,6.2,6.7v16.2h-3.9v-16.7c0-1.7-0.6-2.6-2.2-2.6c-1.5,0-2.2,0.9-2.2,2.6v44.8
			C694.8,349.1,695.4,350,696.9,350z"/>
		<path class="st0" d="M713.1,349.4h5.8v3.6h-9.9v-56h9.8v3.6h-5.7V322h4.9v3.6h-4.9V349.4z"/>
		<path class="st0" d="M410.9,416.8h-4.2v-56h9.6v3.6h-5.4v22.4h4.6v3.6h-4.6V416.8z"/>
		<path class="st0" d="M421.6,366.9c0-4.6,2.3-6.7,6.3-6.7s6.3,2.1,6.3,6.7v43.7c0,4.6-2.3,6.7-6.3,6.7s-6.3-2.1-6.3-6.7V366.9z
			 M428,413.7c1.5,0,2.2-0.9,2.2-2.6v-44.8c0-1.7-0.6-2.6-2.2-2.6c-1.5,0-2.2,0.9-2.2,2.6v44.8C425.8,412.8,426.4,413.7,428,413.7z"
			/>
		<path class="st0" d="M444.4,390.6v26.2h-4.2v-56h6.1c3.2,0,6.5,1,6.5,6.3v16.5c0,3.2-1.2,4.6-2.9,5.3c1.7,0.6,2.9,2.1,2.9,5.3
			v13.7c0,6.2,0.4,7.8,1,9h-4.5c-0.3-0.8-0.6-2-0.6-5.2v-17.2c0-2.9-0.8-3.8-3.2-3.8H444.4z M446.1,387.1c1.8,0,2.6-0.6,2.6-2.5V367
			c0-1.9-0.7-2.6-2.6-2.6h-1.7v22.7H446.1z"/>
		<path class="st0" d="M482,364.4h-3.8v52.4H474v-52.4h-3.8v-3.6H482V364.4z"/>
		<path class="st0" d="M491.5,416.8h-4.2v-56h4.2v25h4.4v-25h4.2v56h-4.2v-27.4h-4.4V416.8z"/>
		<path class="st0" d="M510.4,413.2h5.8v3.6h-9.9v-56h9.8v3.6h-5.7v21.4h4.9v3.6h-4.9V413.2z"/>
		<path class="st0" d="M542.2,410h-5l-0.5,6.8h-3.8l4.4-56h5.3l4.4,56h-4.2L542.2,410z M537.6,406.4h4.4l-1-12.8
			c-0.6-7.5-1-15.2-1.3-22.7c-0.3,7.5-0.8,15.2-1.3,22.7L537.6,406.4z"/>
		<path class="st0" d="M556.7,416.8h-4.2v-56h6c3.2,0,6.5,1,6.5,6.3v19.4c0,5.3-3.3,6.3-6.5,6.3h-1.8V416.8z M556.7,364.4v24.9h1.6
			c1.8,0,2.6-0.7,2.6-2.6V367c0-1.9-0.7-2.6-2.6-2.6H556.7z"/>
		<path class="st0" d="M574.9,416.8h-4.2v-56h6c3.2,0,6.5,1,6.5,6.3v19.4c0,5.3-3.3,6.3-6.5,6.3h-1.8V416.8z M574.9,364.4v24.9h1.6
			c1.8,0,2.6-0.7,2.6-2.6V367c0-1.9-0.7-2.6-2.6-2.6H574.9z"/>
		<path class="st0" d="M588.9,360.8h4.2v52.4h5.4v3.6h-9.6V360.8z"/>
		<path class="st0" d="M608,413.2h5.8v3.6h-9.9v-56h9.8v3.6H608v21.4h4.9v3.6H608V413.2z"/>
		<path class="st0" d="M637.9,413.7c1.5,0,2.2-0.9,2.2-2.6v-18.3h3.9v17.8c0,4.6-2.2,6.7-6.2,6.7c-4,0-6.2-2.1-6.2-6.7v-43.7
			c0-4.6,2.2-6.7,6.2-6.7c3.9,0,6.2,2.1,6.2,6.7v16.2H640v-16.7c0-1.7-0.6-2.6-2.2-2.6c-1.5,0-2.2,0.9-2.2,2.6v44.8
			C635.7,412.8,636.4,413.7,637.9,413.7z"/>
		<path class="st0" d="M649.7,366.9c0-4.6,2.3-6.7,6.3-6.7s6.3,2.1,6.3,6.7v43.7c0,4.6-2.3,6.7-6.3,6.7s-6.3-2.1-6.3-6.7V366.9z
			 M656,413.7c1.5,0,2.2-0.9,2.2-2.6v-44.8c0-1.7-0.6-2.6-2.2-2.6c-1.5,0-2.2,0.9-2.2,2.6v44.8C653.9,412.8,654.5,413.7,656,413.7z"
			/>
		<path class="st0" d="M678.4,383.9l2.2-23.1h5.8v56h-4.1v-26.6c0-6,0.2-13.8,0.4-19.8c-0.5,6.1-1.1,13.8-1.6,19.7l-2.6,26.7h-3
			l-2.6-26.7c-0.6-5.9-1.1-13.6-1.6-19.7c0.1,6.1,0.4,13.8,0.4,19.8v26.6h-3.5v-56h5.9l2.2,23.1c0.4,4.5,0.7,9.9,0.9,14.9
			C677.6,393.8,678,388.4,678.4,383.9z"/>
		<path class="st0" d="M702.7,383.9l2.2-23.1h5.8v56h-4.1v-26.6c0-6,0.2-13.8,0.4-19.8c-0.5,6.1-1.1,13.8-1.6,19.7l-2.6,26.7h-3
			l-2.6-26.7c-0.6-5.9-1.1-13.6-1.6-19.7c0.1,6.1,0.4,13.8,0.4,19.8v26.6h-3.5v-56h5.9l2.2,23.1c0.4,4.5,0.7,9.9,0.9,14.9
			C701.9,393.8,702.3,388.4,702.7,383.9z"/>
		<path class="st0" d="M723.2,413.7c1.4,0,2.2-0.9,2.2-2.5v-50.5h3.8v50.2c0,4.4-2.2,6.4-6.2,6.4c-3.9,0-6.2-2-6.2-6.4v-50.2h4.2
			v50.5C721,412.8,721.7,413.7,723.2,413.7z"/>
		<path class="st0" d="M748.5,360.8v56h-4.2l-4.2-30.3c-0.6-3.8-1.2-9.7-1.6-13.5c0.1,3.9,0.4,10,0.4,13.6v30.2h-3.6v-56h5.3
			l3.3,24.1c0.5,3.4,1.1,10,1.6,13.8c-0.2-3.8-0.4-10.4-0.4-14.1v-23.8H748.5z"/>
		<path class="st0" d="M754.6,360.8h4.2v56h-4.2V360.8z"/>
		<path class="st0" d="M776,364.4h-3.8v52.4H768v-52.4h-3.8v-3.6H776V364.4z"/>
		<path class="st0" d="M789.6,360.8h3.8l-5,38.2v17.8h-4.2V399l-5-38.2h4.2l1.9,16.9c0.4,3.2,0.9,8.2,1.1,12.6
			c0.2-4.4,0.6-9.4,1-12.6L789.6,360.8z"/>
	</g>
</g>
<g>
	<path class="st0" d="M410.3,437.7h-4.1v-2.6h7.2v11.1c0,3.2-2,5.2-5.3,5.2c-2.3,0-3.4-1-3.4-1l1.2-2.3c0,0,0.7,0.6,1.9,0.6
		c1.4,0,2.4-1,2.4-2.5V437.7z"/>
	<path class="st0" d="M426.5,450.3c0,0-2.4,1-4.5,1c-3.2,0-4.9-1.7-4.9-4v-7.8h2.9v7.8c0,0.8,0.7,1.5,1.9,1.5c0.8,0,1.6-0.3,1.6-0.3
		v-8.9h2.9V450.3z"/>
	<path class="st0" d="M430,440.1c0,0,2.4-0.9,4.5-0.9c3.2,0,4.9,1.7,4.9,4v7.8h-2.9v-7.8c0-0.8-0.7-1.5-1.9-1.5
		c-0.8,0-1.6,0.2-1.6,0.2v9H430V440.1z"/>
	<path class="st0" d="M445.2,446.6c0,0,0.3,2.3,2.7,2.3c1.4,0,2.1-0.8,2.1-0.8l1.1,2c0,0-1,1.2-3.5,1.2c-3.3,0-5.5-2.3-5.5-6.1
		c0-4.1,2-6.1,4.9-6.1c2.8,0,4.9,2,4.9,6.1l-1.1,1.4H445.2z M445.2,444.2h3.6c-0.1-1.7-1-2.6-1.8-2.6S445.3,442.5,445.2,444.2z"/>
	<path class="st0" d="M464.4,443.4c-1.6,0-2.6,0.9-2.6,0.9l-1.8-1.2v-8h9.7v2.6h-6.6v3.5c0,0,0.8-0.5,2-0.5c2.9,0,5.2,2.3,5.2,5.3
		s-2.3,5.3-6.1,5.3c-3.3,0-5-2-5-2l1.4-2.1c0,0,1.2,1.5,3.4,1.5c2,0,3.1-1,3.1-2.6S466.1,443.4,464.4,443.4z"/>
	<path class="st0" d="M481.5,444.5h-8.6v-2.7h8.6V444.5z"/>
	<path class="st0" d="M483.8,450.9l4.7-13.1v-0.1h-6.7v-2.6h10.1v2.6l-4.7,13.2H483.8z"/>
	<path class="st0" d="M503.2,437.3c-1.9,0-3.2,1.2-3.2,1.2l-1.2-2.1c0,0,1.5-1.8,4.6-1.8c3.6,0,5.9,2.3,5.9,5.1
		c0,2.6-1.6,4.1-3.1,5.5l-3.4,2.9v0.1h6.6v2.6h-10.6v-2.6l5.4-5c1-1,1.8-1.8,1.8-3.6C506,438.4,505,437.3,503.2,437.3z"/>
	<path class="st0" d="M511.8,443c0-5.6,2.7-8.4,6.1-8.4s6.1,2.7,6.1,8.4s-2.7,8.4-6.1,8.4S511.8,448.6,511.8,443z M520.8,443
		c0-4.2-1.5-5.6-2.9-5.6s-2.9,1.5-2.9,5.6s1.5,5.6,2.9,5.6S520.8,447.2,520.8,443z"/>
	<path class="st0" d="M532.7,435.1v15.8h-3.2v-11.8h-0.1l-2,2l-1.5-2l4.1-4.1H532.7z"/>
	<path class="st0" d="M537.3,450.9l4.7-13.1v-0.1h-6.7v-2.6h10.1v2.6l-4.7,13.2H537.3z"/>
	<path class="st0" d="M560,454.9h-8.4v-2.6h8.4V454.9z"/>
	<path class="st0" d="M577.3,446.3c0,2.8-2.3,5.1-6.1,5.1c-3.3,0-5-2-5-2l1.4-2.1c0,0,1.2,1.5,3.4,1.5c2,0,3.1-1,3.1-2.4
		c0-2.8-7.1-1.4-7.1-6.9c0-2.6,2.1-4.7,5.4-4.7c3.2,0,4.6,1.8,4.6,1.8l-1.2,2.1c0,0-1.2-1.2-3.2-1.2c-1.5,0-2.4,0.9-2.4,2
		C570.2,442.3,577.3,441,577.3,446.3z"/>
	<path class="st0" d="M588.7,450.7c0,0-2.1,0.7-4.6,0.7c-3.1,0-4.6-1.6-4.6-4s1.6-4,4.5-4c1,0,1.8,0.2,1.8,0.2c0-1.4-0.7-2-1.8-2
		c-1.4,0-2.4,0.8-2.4,0.8l-1.1-2c0,0,1.5-1.2,3.6-1.2c2.8,0,4.6,1.8,4.6,5V450.7z M584,445.9c-1,0-1.6,0.6-1.6,1.5
		c0,0.9,0.6,1.5,1.6,1.5c0.9,0,1.7-0.2,1.7-0.2v-2.5C585.7,446.2,585,445.9,584,445.9z"/>
	<path class="st0" d="M592.1,440.1c0,0,2.4-0.9,4.5-0.9c3.2,0,4.9,1.7,4.9,4v7.8h-2.9v-7.8c0-0.8-0.7-1.5-1.9-1.5
		c-0.8,0-1.6,0.2-1.6,0.2v9h-2.9V440.1z"/>
	<path class="st0" d="M614.4,437.7h-4.1v-2.6h7.2v11.1c0,3.2-2,5.2-5.3,5.2c-2.3,0-3.4-1-3.4-1l1.2-2.3c0,0,0.7,0.6,1.9,0.6
		c1.4,0,2.4-1,2.4-2.5V437.7z"/>
	<path class="st0" d="M625.8,439.1c2.9,0,5.2,2.3,5.2,6.1s-2.3,6.1-5.2,6.1c-2.9,0-5.2-2.3-5.2-6.1S622.9,439.1,625.8,439.1z
		 M625.8,448.9c1.1,0,2.1-1,2.1-3.6s-1-3.6-2.1-3.6s-2.1,1-2.1,3.6S624.7,448.9,625.8,448.9z"/>
	<path class="st0" d="M636.7,451.4c-2.7,0-4-1.5-4-1.5l1.1-2c0,0,1.1,1,2.6,1c1.4,0,1.9-0.6,1.9-1.4c0-1.7-5.2-0.6-5.2-4.6
		c0-2.1,1.6-3.7,4.3-3.7c2.5,0,3.7,1.4,3.7,1.4l-1.1,2c0,0-0.9-0.9-2.4-0.9c-0.9,0-1.5,0.6-1.5,1.2c0,1.9,5.2,0.3,5.2,4.6
		C641.4,449.7,639.7,451.4,636.7,451.4z"/>
	<path class="st0" d="M646.6,446.6c0,0,0.3,2.3,2.7,2.3c1.4,0,2.1-0.8,2.1-0.8l1.1,2c0,0-1,1.2-3.5,1.2c-3.3,0-5.5-2.3-5.5-6.1
		c0-4.1,2-6.1,4.9-6.1c2.8,0,4.9,2,4.9,6.1l-1.1,1.4H646.6z M646.6,444.2h3.6c-0.1-1.7-1-2.6-1.8-2.6S646.7,442.5,646.6,444.2z"/>
	<path class="st0" d="M656.1,453.8l-0.7-1c0,0,0.9-0.7,1.1-1.6v-0.1c0,0-1.4-0.2-1.4-1.7c0-1,0.7-1.7,1.6-1.7c0.9,0,1.6,0.7,1.6,1.9
		C658.3,452.6,656.1,453.8,656.1,453.8z"/>
	<path class="st0" d="M673,434.6c2.8,0,4.3,1.5,4.3,1.5l-1.4,2.1c0,0-1-0.9-2.7-0.9c-2.4,0-4.1,1.7-4.1,5.6c0,4,1.7,5.6,4.1,5.6
		c1.9,0,2.9-1.1,2.9-1.1l1.4,2.1c0,0-1.6,1.7-4.5,1.7c-4.1,0-7.1-3.1-7.1-8.4S669,434.6,673,434.6z"/>
	<path class="st0" d="M682.3,450.9H679l5.1-15.8h4l5.1,15.8h-3.3l-1-3.2h-5.5L682.3,450.9z M686.2,439.3H686l-1.8,5.8h3.7
		L686.2,439.3z"/>
</g>
<g>
	<g>
		<path class="st1" d="M99.8,254.1h50l67.7,182.3H173l-12.6-36.5H88.8l-12.6,36.5h-44L99.8,254.1z M150,364.3l-25.3-68.4l-25.4,68.4
			H150z"/>
	</g>
	<g>
		<path class="st1" d="M276.6,363.5l-70.8-109.4h51l40.4,67.7l40.4-67.7h51l-70.8,109.4v73.9h-41.1V363.5z"/>
	</g>
	<g>
		<path class="st1" d="M226.9,496.8h120.3v37h-79.7v33.6H335v38h-67.5v36.2h82.1v37.5H226.9V496.8z"/>
	</g>
	<g>
		<path class="st1" d="M407.6,496.8H479c39.6,0,68,26,68,60.7c0,21.9-13.4,41.9-32.7,53.6l42.3,68h-48.7l-35.3-58.9h-24.4v58.9
			h-40.6V496.8z M478.5,586.1c16.4,0,27.3-12,27.3-26c0-14.1-10.9-26-27.3-26h-30.2v52.1H478.5z"/>
	</g>
	<g>
		<path class="st1" d="M413.7,914.6v-43.4c14.5,9.4,31.4,16.9,53.9,16.9c13.8,0,33.1-4.2,33.1-16.1c0-25.8-88.8-13.5-88.8-74.5
			c0-33.9,27.3-58.3,68.8-58.3c16.7,0,36.7,4,48.9,9.9v41.8c-11.3-7.2-29.1-13.2-44.5-13.2c-19.3,0-32.3,7-32.3,16.7
			c0,25.5,90.6,12.5,90.6,74.2c0,34.1-27.6,59.1-69.3,59.1C444.9,927.8,427,921,413.7,914.6z"/>
	</g>
	<g>
		<g>
			<path class="st1" d="M31.8,11.4h41.1v143.5H163v38.8H31.8V11.4z"/>
		</g>
	</g>
	<g>
		<path class="st0" d="M251.5,384.1l-63.7-97.3l25-14.5l51.6,79.7V425l25.9,25.9h42.5l-39.5,22.8h-41.8V384.1z"/>
	</g>
	<g>
		<path class="st0" d="M19.9,425l23.3,25.9h40.1l-39.5,22.8H1.8L19.9,425z M142.5,437.2H88l7.9-22.8h61.2l3.6,10.5l31.1,25.9h47.1
			l-39.5,22.8h-44.5L142.5,437.2z M127,323.5l10.8,29.3h-21.6L127,323.5z"/>
	</g>
	<g>
		<path class="st0" d="M6,48.7l13.5-7.8v141.4l25.9,25.9h132.2L138.2,231H6V48.7z"/>
	</g>
	<g>
		<g>
			<path class="st0" d="M201.2,534.1l13.5-7.8v141.4l25.9,25.9h124l-39.5,22.8h-124V534.1z M322.8,555.9h-41.5v-10h79.3l-30.3,17.4
				L322.8,555.9z M281.2,617.5h67.1l-21.9,12.6h-45.2V617.5z"/>
		</g>
	</g>
	<g>
		<g>
			<path class="st0" d="M381.9,534.1l13.5-7.8v141.4l27.9,25.9h40l-39.5,22.8h-41.9V534.1z M460.7,566.2v-20.3h32.8
				c0.1,0.9,0.1,1.8,0.1,2.7c0,12.2-8.2,22.8-20.8,25.4C469.6,570.5,465.6,567.8,460.7,566.2z M463.3,656.1v-25.3h10.3l22.1,36.9
				l41.5,25.9h47.4l-39.5,22.8h-34.2L463.3,656.1z"/>
		</g>
	</g>
	<g>
		<g>
			<path class="st0" d="M401.5,859.9c-8.2-5.3-12.8-16-12.8-27.6c0-13.4,4.3-25.4,12.1-34.9c1.6,7.8,5.1,14.1,9.6,19.3l10.8,12.8
				c14.6,17.1,19.4,23,38.9,30.5c7.6,2.9,16.8,5.7,24.6,8.9c-6.4,5.9-19.4,8.1-29.4,8.1C432.9,876.8,415.9,869.2,401.5,859.9z
				 M389.2,951.9v-41.4l12.2-7.3l25.9,25.9c12.8,6.4,29.9,13.2,57.8,13.2c15.4,0,28.8-3.4,39.6-9.4l-37,21.4
				c-12.4,7.2-26.2,10.8-42.1,10.8C418.5,965.1,401.7,958.3,389.2,951.9z M469.1,801.5c4.7-6.3,15.5-10.5,29.7-10.5
				c15.4,0,33.2,6.6,46.1,15.2l-28.4,16.4C503.7,811.2,484.8,806.2,469.1,801.5z"/>
		</g>
	</g>
	<g>
		<path class="st2" d="M19.9,425h44l0.5-1.4H66v3.8h-0.4l1.4,2v-1h3.6v3.6H69l2.6,3.4v-2.3h3.6v3.6h-2.7l10.8,14.3H43.2L19.9,425z
			 M66.9,418.9h3.8v3.9h-3.8V418.9z M69.3,409.5h1.6v4H68L69.3,409.5z M85,418.5h-4.6v-4.6h-4.7v-4.7h4v-4h-4v4h-4.7v-4.7h4v-3.9
			h-2.7l4.2-12.1h71.6l9,25.9H96l-2.2,6.5v-1.8h-4v4H85V418.5z M71.5,414.2h4v4h-4V414.2z M71.6,423.6h3.8v3.8h-3.8V423.6z
			 M76.2,418.9h3.9v3.9h-3.9V418.9z M76.2,428.2h3.9v3.8h-3.9V428.2z M76.3,437.5H80v3.8h-3.6V437.5z M79.2,399.2v-2.6h-2.7v2.6
			H79.2z M84.4,413.8v-3.9h-3.9v3.9H84.4z M80.7,423.4h4v4h-4V423.4z M80.9,432.8h3.8v3.8h-3.8V432.8z M81,442.2h3.6v3.6H81V442.2z
			 M83.9,403.9v-2.7h-2.7v2.7H83.9z M86.2,393.2v-3h-3.1v3H86.2z M89.1,418.5v-3.9h-3.9v3.9H89.1z M85.4,428.1h4v3.9h-4V428.1z
			 M85.6,437.5H88l-1.3,3.8h-1.2V437.5z M88.4,408.6v-2.7h-2.6v2.7H88.4z M91,398v-3h-3.1v3H91z M89.7,345.8h1.2v4.6H88L89.7,345.8z
			 M89.7,423.2H93l-1.7,4.7h-1.6V423.2z M93.1,413.1v-2.6h-2.7v2.6H93.1z M90.9,342.7l0.5-1.4h4v4.6h-4.6V342.7z M91,350.5h4.4v2.3
			H91V350.5z M96,403v-3.1h-3.3v3.1H96z M96.1,393.2v-3H93v3H96.1z M100.3,350.5h4.4v-4.6h-4.6v4.4h-4.6v-4.6h4.4v-4.6h-4.6v-4.6
			h-2.3l3.6-9.8h2.9v-3.6h-1.6l3.9-10.5h2v-3.1h-0.8l4.3-11.5h0.8v-2.1l4.3-11.6l4.4,12h-1.2v1.6h1.6v-0.5l9.6,26h-2.7v2.9h1.7
			l-3.9,10.8h-2.7v3.4h1.4l-3.8,10.2h-2.7v2.1h-4.8v-2.2h-4.6v2.2h-4.6V350.5z M99.9,336.3v-4.2h-4.2v4.2H99.9z M100.7,407.8v-3.1
			h-3.1v3.1H100.7z M100.9,398v-3h-3.1v3H100.9z M104.6,341v-4.2h-4.2v4.2H104.6z M104.3,331.5v-3.8h-3.8v3.8H104.3z M104.2,322.1
			v-3.5h-3.5v3.5H104.2z M105.6,412.6v-3.1h-3.1v3.1H105.6z M105.9,403v-3.1h-3.3v3.1H105.9z M105.9,393.2v-3h-3.1v3H105.9z
			 M109.1,345.7v-4.2H105v4.2H109.1z M109,336.2v-3.8h-3.8v3.8H109z M108.7,326.7v-3.4h-3.4v3.4H108.7z M108.6,317.3v-3.1h-3.1v3.1
			H108.6z M108.3,307.8v-2.6h-2.6v2.6H108.3z M110.6,407.8v-3.1h-3.1v3.1H110.6z M110.7,398v-3h-3.1v3H110.7z M113.8,350.2v-4.2
			h-4.2v4.2H113.8z M113.6,340.9v-3.8h-3.8v3.8H113.6z M113.4,331.4V328H110v3.4H113.4z M113.3,321.9v-3h-3.1v3H113.3z M112.9,312.5
			v-2.6h-2.6v2.6H112.9z M112.8,302.8v-2.1h-2.1v2.1H112.8z M112.5,293.3v-1.6h-1.6v1.6H112.5z M115.6,403v-3.1h-3.3v3.1H115.6z
			 M115.5,412.6v-3.1h-3.1v3.1H115.5z M115.6,393.2v-3h-3.1v3H115.6z M118.2,345.4v-3.8h-3.8v3.8H118.2z M118.1,336v-3.5h-3.5v3.5
			H118.1z M117.8,326.5v-3.1h-3v3.1H117.8z M117.6,317v-2.6H115v2.6H117.6z M117.3,307.5v-2.1h-2.1v2.1H117.3z M120.3,407.8v-3.1
			h-3.1v3.1H120.3z M120.5,398v-3h-3.1v3H120.5z M122.5,331.2v-3.1h-3.1v3.1H122.5z M122.3,321.7v-2.6h-2.6v2.6H122.3z M121.9,312.1
			V310h-2.1v2.1H121.9z M125.4,403v-3.1h-3.3v3.1H125.4z M125.3,412.6v-3.1h-3.1v3.1H125.3z M125.4,393.2v-3h-3.1v3H125.4z
			 M130.1,407.8v-3.1H127v3.1H130.1z M130.2,398v-3h-3.1v3H130.2z M135.2,403v-3.1h-3.3v3.1H135.2z M135,412.6v-3.1h-3.1v3.1H135z
			 M135.2,393.2v-3H132v3H135.2z M139.9,407.8v-3.1h-3.1v3.1H139.9z M140,398v-3h-3.1v3H140z M144.9,403v-3.1h-3.3v3.1H144.9z
			 M144.8,412.6v-3.1h-3.1v3.1H144.8z M144.9,393.2v-3h-3.1v3H144.9z M149.6,407.8v-3.1h-3.1v3.1H149.6z M149.8,398v-3h-3.1v3H149.8
			z M154.6,412.6v-3.1h-3.1v3.1H154.6z M160.8,425h44.5l33.7,25.9h-47.1L160.8,425z"/>
	</g>
	<g>
		<path class="st2" d="M264.4,425h41.1l27.2,25.9h-42.5L264.4,425z M305.5,351.9l0.8-1.2h2.6v3.3h-3.4V351.9z M306.2,360.5h2.3v2.3
			h-2.3V360.5z M306.6,370.3h1.6v1.4h-1.6V370.3z M310,345.8h3.9v3.9H310V345.8z M310.5,355.6h2.9v3h-2.9V355.6z M310.9,365.3h2.1
			v2.1h-2.1V365.3z M311.3,375h1.3v1.3h-1.3V375z M314.3,338.7v2.1h-1.4L314.3,338.7z M314.4,340.9h4.4v4.6h-4.4V340.9z
			 M314.8,350.6h3.6v3.5h-3.6V350.6z M315.3,360.4h2.6v2.6h-2.6V360.4z M315.7,370.2h1.8v1.7h-1.8V370.2z M318.8,331.6v4.6h-3
			L318.8,331.6z M319,331.4l2.9-4.4h1.7v4.6H319V331.4z M319,336.3h4.6v4.4H319V336.3z M319.1,345.7h4.3v4.3h-4.3V345.7z
			 M319.6,355.5h3.3v3.3h-3.3V355.5z M320.1,365.2h2.2v2.3h-2.2V365.2z M320.5,374.9h1.4v1.6h-1.4V374.9z M323.6,324.2l1.2-2h3.4
			v4.7h-4.6V324.2z M323.6,331.6h4.6v4.6h-4.6V331.6z M323.6,340.9h4.6v4.6h-4.6V340.9z M323.9,350.5h3.9v3.9h-3.9V350.5z
			 M324.4,360.3h3v2.9h-3V360.3z M324.8,370h2.1v2h-2.1V370z M325.2,379.7h1.3v1.3h-1.3V379.7z M337.4,326.9h4.7v-4.7h-4.7V326.9
			h-4.6v-4.7h4.6v-4.6h-4.6v4.6h-4.7v-4.6h-0.4l0.4-0.7v0.5h4.6V313h-2l2.1-3.3v3.1h4.6v-4.4h-3.6l3.1-4.8h0.4V303l2.7-4h1.8v-3
			l1.2-1.8h3.4v-4h-0.8l1.4-2.2v1.6h3.9v-3.9h-2.3l9.6-15h1.7v-2.5l1.4-2.2l0.1-0.1v0.1h3v-3h-1.2l2.9-4.6v2.7h2.7v-2.7h-2.7
			l11.2-15.6l14.7,20.3l2.3,3l-4,6.1h-1v1.7l-2,2.9h-2.9v3.1h0.8l-2.1,3.1v-1.7h-3.4v3.4h2.2l-9.8,14.8h-2.1v3.1l-0.9,1.4h-3.8v4.2
			h1l-1.4,2.1v-1.7h-4.3v4.3h2.6l-2.9,4.4v-4.2h-4.4v4.4h4.2l-3.1,4.8h-1.2v1.6l-2,3h-2.7v4.2l-0.3,0.4h-4.3v-4.6h-4.7v4.6h-4.7
			V326.9z M328.2,326.9h4.7v4.6h-4.7V326.9z M328.3,336.3h4.4v4.4h-4.4V336.3z M328.3,345.6h4.4v4.4h-4.4V345.6z M328.7,355.3h3.6
			v3.5h-3.6V355.3z M329.2,365.1h2.6v2.6h-2.6V365.1z M329.6,374.7h1.8v1.8h-1.8V374.7z M332.9,331.6h4.6v4.6h-4.6V331.6z
			 M332.9,340.9h4.6v4.6h-4.6V340.9z M333,350.2h4.3v2.1l-1.4,2.2H333V350.2z M342,308.3v-4.4h-4.4v4.4H342z M342,317.6v-4.4h-4.4
			v4.4H342z M337.6,336.2h4.6v4.6h-4.6V336.2z M337.6,345.6h4.3l-3,4.4h-1.3V345.6z M346.7,322.2v-4.6h-4.6v4.6H346.7z M342.1,331.6
			h4.6v4.6h-4.6V331.6z M342.1,340.9h2.7l-2.7,4.2V340.9z M346.6,303.5v-4.2h-4.3v4.2H346.6z M346.7,312.9v-4.4h-4.4v4.4H346.7z
			 M351.4,317.6v-4.4h-4.6v4.4H351.4z M351.4,326.9v-4.6h-4.6v4.6H351.4z M346.8,336.2h1.2l-1.2,1.8V336.2z M351.2,308.2v-4.3h-4.3
			v4.3H351.2z M351.1,298.8v-4h-4v4H351.1z M355.9,312.9v-4.3h-4.4v4.3H355.9z M355.9,322.2v-4.6h-4.4v4.6H355.9z M355.8,303.5v-4.2
			h-4.2v4.2H355.8z M355.7,294.1v-3.9h-3.9v3.9H355.7z M355.5,284.7v-3.6h-3.6v3.6H355.5z M360.5,308.2V304h-4.3v4.2H360.5z
			 M360.4,298.8v-4h-4v4H360.4z M360.2,289.4v-3.8h-3.8v3.8H360.2z M360.1,280.1v-3.5h-3.5v3.5H360.1z M365,303.5v-4.2h-4.2v4.2H365
			z M364.9,294.1v-3.9H361v3.9H364.9z M364.8,284.7v-3.6h-3.6v3.6H364.8z M364.7,275.2V272h-3.4v3.3H364.7z M369.6,298.8v-4h-3.9v4
			H369.6z M369.5,289.4v-3.8h-3.6v3.8H369.5z M369.3,279.9v-3.4H366v3.4H369.3z M369.2,270.6v-3.1h-3.1v3.1H369.2z M374.2,294.1
			v-3.8h-3.8v3.8H374.2z M374,284.6v-3.5h-3.5v3.5H374z M373.9,275.2V272h-3.3v3.3H373.9z M373.8,265.7v-2.9h-3v2.9H373.8z
			 M373.5,256.4v-2.6H371v2.6H373.5z M378.7,289.3v-3.5h-3.6v3.5H378.7z M378.6,279.9v-3.3h-3.4v3.3H378.6z M378.5,270.4v-3h-3.1v3
			H378.5z M378.2,261v-2.6h-2.6v2.6H378.2z M378.1,251.5v-2.2h-2.3v2.2H378.1z M383.1,275.1v-3H380v3H383.1z M382.9,265.7V263h-2.7
			v2.7H382.9z M382.8,256.2v-2.3h-2.5v2.3H382.8z M387.6,270.4v-2.9h-2.9v2.9H387.6z M387.4,260.9v-2.5H385v2.5H387.4z M392.1,265.7
			V263h-2.6v2.7H392.1z"/>
	</g>
	<g>
		<path class="st2" d="M214.7,667.7h124l25.9,25.9h-124L214.7,667.7z M242.6,671.8v-1.3h-1.3v1.3H242.6z M247.2,676.5v-1.3h-1.3v1.3
			H247.2z M252.2,671.8v-1.6h-1.7v1.6H252.2z M251.9,681.2v-1.3h-1.3v1.3H251.9z M277.3,549.7h-4.6v-4.6h-4.7v-4.7h-4.7v-4.6h-4.6
			v-4.7h-3.5v-4.9h2.7v-3.4h-2.7v-0.5H335l25.9,23.6h-83.3v3.5h3.6v4.9h-3.9V549.7z M255.3,536.4h3v3.3h-3V536.4z M277.3,621.3h-4.6
			v-4.6h-4.7v-4.7h-4.7v-4.6h-4.6v-4.7h-3.5v-4.9h2.7v-3.4h-2.7V594h67.5l25.9,23.6h-71.1v3.5h3.6v4.9h-3.9V621.3z M255.3,608h3v3.3
			h-3V608z M256.9,676.5V675h-1.6v1.6H256.9z M256.8,686v-1.3h-1.3v1.3H256.8z M255.8,546.6h1.6v1.6h-1.6V546.6z M255.8,618.2h1.6
			v1.6h-1.6V618.2z M262.6,530.9v-3.5l-3.5-0.1v3.6H262.6z M262.6,602.6v-3.6h-3.5v3.6H262.6z M259.6,541h3.3v3.4h-3.3V541z
			 M259.6,612.6h3.3v3.4h-3.3V612.6z M262,672.1V670h-2.1v2.1H262z M261.7,681.3v-1.6H260v1.6H261.7z M261.4,690.7v-1.3h-1.3v1.3
			H261.4z M260.4,551.1h1.7v1.6h-1.7V551.1z M260.4,622.7h1.7v1.6h-1.7V622.7z M264.6,597v-1.3h-1.3v1.3H264.6z M267.3,535.6V532
			h-3.6v3.6H267.3z M267.3,607.3v-3.6h-3.6v3.6H267.3z M264.3,545.7h3.3v3.3h-3.3V545.7z M264.3,617.3h3.3v3.3h-3.3V617.3z
			 M266.7,676.8v-2.1h-2.1v2.1H266.7z M266.4,686v-1.6h-1.6v1.6H266.4z M265.1,627.4h1.6v1.6h-1.6V627.4z M267.2,525.3V524h-1.3v1.3
			H267.2z M269.4,601.8v-1.3h-1.3v1.3H269.4z M272,540.2v-3.5l-3.6-0.1v3.6H272z M272,611.8v-3.6h-3.6v3.6H272z M268.9,550.3h3.3
			v3.3h-3.3V550.3z M268.9,622h3.3v3.3h-3.3V622z M271.7,672.4v-2.6h-2.6v2.6H271.7z M271.5,681.6v-2.1h-2.1v2.1H271.5z
			 M271.2,690.8v-1.6h-1.7v1.6H271.2z M272,530.2v-1.3h-1.3v1.3H272z M274.3,597.1v-1.6h-1.7v1.6H274.3z M274.1,606.5v-1.3h-1.3v1.3
			H274.1z M276.5,544.9v-3.6H273v3.6H276.5z M276.5,616.5v-3.6H273v3.6H276.5z M273.6,626.5h3.3v3.3h-3.3V626.5z M276.4,677v-2.6
			h-2.6v2.6H276.4z M276.2,686.3v-2.1h-2.1v2.1H276.2z M276.9,525.5v-1.6h-1.7v1.6H276.9z M276.7,534.9v-1.3h-1.3v1.3H276.7z
			 M279,601.8v-1.6h-1.6v1.6H279z M278.9,611.3V610h-1.3v1.3H278.9z M281.4,672.5v-3h-3v3H281.4z M281.2,681.9v-2.6h-2.6v2.6H281.2z
			 M281,691.1V689h-2.1v2.1H281z M281.6,530.2v-1.6h-1.6v1.6H281.6z M281.5,539.7v-1.3h-1.3v1.3H281.5z M284.1,597.4v-2.1H282v2.1
			H284.1z M283.8,606.6V605h-1.7v1.6H283.8z M283.6,616v-1.3h-1.3v1.3H283.6z M286.2,677.3v-3.1h-3.1v3.1H286.2z M285.9,686.6v-2.6
			h-2.6v2.6H285.9z M286.7,525.7v-2.1h-2.1v2.1H286.7z M286.4,535v-1.6h-1.7v1.6H286.4z M286.2,544.4v-1.3h-1.3v1.3H286.2z
			 M288.8,602V600h-2.1v2.1H288.8z M288.5,611.3v-1.6H287v1.6H288.5z M291.1,672.7v-3.5h-3.5v3.5H291.1z M290.9,682v-3h-3v3H290.9z
			 M290.7,691.4v-2.6h-2.6v2.6H290.7z M291.4,530.4v-2.1h-2.1v2.1H291.4z M291.1,539.7v-1.6h-1.6v1.6H291.1z M293.9,597.5V595h-2.6
			v2.5H293.9z M293.6,606.9v-2.1h-2.1v2.1H293.6z M293.3,616.1v-1.6h-1.7v1.6H293.3z M295.9,677.6v-3.5h-3.5v3.5H295.9z
			 M295.7,686.8v-3.1h-3.1v3.1H295.7z M296.5,525.9v-2.5h-2.6v2.5H296.5z M296.2,535.2v-2.1h-2.1v2.1H296.2z M295.9,544.5v-1.6h-1.7
			v1.6H295.9z M298.6,602.3v-2.6h-2.6v2.6H298.6z M298.3,611.5v-2.1h-2.1v2.1H298.3z M300.5,672.7v-3.5H297v3.5H300.5z M300.6,682.3
			v-3.5h-3.5v3.5H300.6z M300.4,691.5v-3h-3v3H300.4z M301.2,530.7v-2.6h-2.6v2.6H301.2z M300.9,539.9v-2.1h-2.1v2.1H300.9z
			 M303.5,597.7v-3h-3v3H303.5z M303.4,607.1v-2.6h-2.6v2.6H303.4z M303.1,616.4v-2.1H301v2.1H303.1z M305.3,677.6v-3.5h-3.5v3.5
			H305.3z M305.5,687.1v-3.5h-3.5v3.5H305.5z M306.1,526.1v-3h-3v3H306.1z M306,535.5v-2.6h-2.6v2.6H306z M305.7,544.7v-2.1h-2.1
			v2.1H305.7z M308.3,602.6v-3.1h-3.1v3.1H308.3z M308.1,611.8v-2.6h-2.6v2.6H308.1z M310,672.7v-3.5h-3.5v3.5H310z M310,682.3v-3.5
			h-3.5v3.5H310z M310.1,691.8v-3.5h-3.5v3.5H310.1z M310.9,530.9v-3.1h-3.1v3.1H310.9z M310.7,540.2v-2.6h-2.6v2.6H310.7z
			 M313.3,598v-3.5h-3.5v3.5H313.3z M313,607.3v-3h-3v3H313z M312.9,616.6V614h-2.6v2.6H312.9z M314.8,677.6v-3.5h-3.5v3.5H314.8z
			 M314.8,687.1v-3.5h-3.5v3.5H314.8z M315.9,526.4v-3.5h-3.5v3.5H315.9z M315.6,535.6v-3h-3v3H315.6z M315.5,545v-2.6h-2.6v2.6
			H315.5z M318.1,602.8v-3.5h-3.5v3.5H318.1z M317.8,612.1v-3.1h-3.1v3.1H317.8z M319.4,672.7v-3.5h-3.5v3.5H319.4z M319.5,682.3
			v-3.5H316v3.5H319.5z M319.5,691.8v-3.5H316v3.5H319.5z M320.7,531.2v-3.5h-3.5v3.5H320.7z M320.4,540.5v-3.1h-3.1v3.1H320.4z
			 M322.8,598v-3.5h-3.5v3.5H322.8z M322.8,607.5V604h-3.5v3.5H322.8z M322.5,616.8v-3h-3v3H322.5z M324.2,677.6v-3.5h-3.5v3.5
			H324.2z M324.3,687.1v-3.5h-3.5v3.5H324.3z M325.4,526.4v-3.5h-3.5v3.5H325.4z M325.4,535.9v-3.5h-3.5v3.5H325.4z M325.1,545.1v-3
			h-3v3H325.1z M327.6,602.8v-3.5h-3.5v3.5H327.6z M327.6,612.3v-3.5h-3.5v3.5H327.6z M328.9,672.7v-3.5h-3.5v3.5H328.9z
			 M328.9,682.3v-3.5h-3.5v3.5H328.9z M329,691.8v-3.5h-3.5v3.5H329z M330.2,531.2v-3.5h-3.5v3.5H330.2z M330.2,540.7v-3.5h-3.5v3.5
			H330.2z M332.3,607.5V604h-3.5v3.5H332.3z M332.3,617v-3.5h-3.5v3.5H332.3z M333.7,677.6v-3.5h-3.5v3.5H333.7z M333.7,687.1v-3.5
			h-3.5v3.5H333.7z M334.9,526.4v-3.5h-3.5v3.5H334.9z M334.9,535.9v-3.5h-3.5v3.5H334.9z M334.9,545.4v-3.5h-3.5v3.5H334.9z
			 M337.1,612.3v-3.5h-3.5v3.5H337.1z M338.3,672.7v-3.5h-3.5v3.5H338.3z M338.4,682.3v-3.5h-3.5v3.5H338.4z M338.4,691.8v-3.5h-3.5
			v3.5H338.4z M339.7,531.2v-3.5h-3.5v3.5H339.7z M339.7,540.7v-3.5h-3.5v3.5H339.7z M341.8,617v-3.5h-3.5v3.5H341.8z M343.1,677.6
			v-3.5h-3.5v3.5H343.1z M343.2,687.1v-3.5h-3.5v3.5H343.2z M344.4,535.9v-3.5h-3.5v3.5H344.4z M344.4,545.4v-3.5h-3.5v3.5H344.4z
			 M347.8,682.3v-3.5h-3.5v3.5H347.8z M347.9,691.8v-3.5h-3.5v3.5H347.9z M349.2,540.7v-3.5h-3.5v3.5H349.2z M352.6,687.1v-3.5h-3.5
			v3.5H352.6z M353.9,545.4v-3.5h-3.5v3.5H353.9z M357.3,691.8v-3.5h-3.5v3.5H357.3z"/>
	</g>
	<g>
		<path class="st2" d="M395.4,667.7H436l27.2,25.9h-40L395.4,667.7z M456.9,549.8h-4.7v-4.7h-4.7v-4.7h-4.6v-4.6h-4.7v-4.7H436v-4.8
			h1.4v-3.8h28.8c15.4,0,25.9,10.4,27.2,23.3h-36.3v3.6h3.5v4.8h-3.8V549.8z M436,536.4h1.7v3.3H436V536.4z M436,546.6h0.8v1.6H436
			V546.6z M459.5,639h-4.7v-4.7h-4.7v-4.6h-4.6v-4.7h-4.8v-4.6h-4.4v-4.8h3.9v-4.3H436v-2.6h24.4l13.3,22h-10.4v4.3h-3.5v3.6h3.5
			v4.8h-3.8V639z M437.1,625.6h3.3v3.3h-3.3V625.6z M437.9,635.8h1.6v1.6h-1.6V635.8z M442.2,530.9v-3.6h-3.6v3.6H442.2z M439,541.1
			h3.4v3.3H439V541.1z M440,551.1h1.6v1.7H440V551.1z M444.8,620.1v-3.6H441v3.6H444.8z M441.6,630.3h3.3v3.3h-3.3V630.3z
			 M442.6,640.5h1.6v1.6h-1.6V640.5z M446.9,535.6V532h-3.6v3.6H446.9z M446.3,525.7v-2.6h-2.6v2.6H446.3z M443.7,545.7h3.3v3.4
			h-3.3V545.7z M444.6,555.8h1.6v1.6h-1.6V555.8z M449.3,624.8v-3.6h-3.5v3.6H449.3z M446.3,634.9h3.3v3.4h-3.3V634.9z M447.1,645
			h1.7v1.6h-1.7V645z M451.4,540.2v-3.5h-3.6v3.5H451.4z M451,530.9v-2.6h-2.6v2.6H451z M448.4,550.3h3.3v3.3h-3.3V550.3z
			 M449.2,560.5h1.6v1.6h-1.6V560.5z M454,629.5v-3.6h-3.6v3.6H454z M450.9,639.5h3.4v3.3h-3.4V639.5z M451.8,649.7h1.6v1.6h-1.6
			V649.7z M456.1,544.9v-3.6h-3.6v3.6H456.1z M453,555h3.4v3.3H453V555z M456,525.7v-2.6h-2.6v2.6H456z M456,535.5v-2.6h-2.6v2.6
			H456z M453.9,565.1h1.6v1.7h-1.6V565.1z M458.7,634.1v-3.5h-3.6v3.5H458.7z M455.6,644.2h3.3v3.3h-3.3V644.2z M456.5,654.3h1.6
			v1.7h-1.6V654.3z M457.7,559.6h3v3.3h-3V559.6z M460.7,530.9v-2.6h-2.6v2.6H460.7z M460.9,540.6V538h-2.6v2.6H460.9z M458.4,569.7
			h1.7v1.6h-1.7V569.7z M460.3,648.8h3v3.4h-3V648.8z M461,658.9h1.6v1.6H461V658.9z M465.6,535.5v-2.6H463v2.6H465.6z M465.6,545.3
			v-2.6H463v2.6H465.6z M465.2,525.3v-1.8h-1.8v1.8H465.2z M470.6,540.6V538h-2.6v2.6H470.6z M469.9,530.6v-1.8h-1.8v1.8H469.9z
			 M475.2,545.3v-2.6h-2.6v2.6H475.2z M474.7,535.1v-1.7H473v1.7H474.7z M479.8,540.2v-1.8H478v1.8H479.8z M479.4,530.2v-1.3h-1.3
			v1.3H479.4z M484.4,544.9v-1.7h-1.7v1.7H484.4z M484.4,534.9v-1.3h-1.3v1.3H484.4z M489.3,539.9v-1.3H488v1.3H489.3z M495.7,667.7
			h48.7l40.2,25.9h-47.4L495.7,667.7z M533.8,620.4h-5.3v-4.6h-4.7v-4.3H519v-3.8H514v-3.9H509v-4.6h-4.7v3.9l-2.2-3.5
			c4.9-3,9.4-6.5,13.4-10.4v3.4h3.6V589h-3.4c1.4-1.4,2.7-2.9,4-4.3v3.6h4.4v-4.3h4.6v4.6h-4.3v4.3h4.3v-4.2h4.6v4.6H529v4.3h4.4
			v-4.3h4.6v4.6h-4.3v4.4h4.4V598h4.4v4.6h-4.2v4.3h4.3v-4.2h4.6v3.8l-0.7,0.8H543v3.6l-1.4,1.3h-2.9v2.3c-1.2,0.9-2.2,1.7-3.4,2.5
			h-1.6v3.1h2.5l2.1,3.3v0.3h-4.4V620.4z M504.8,604h3.6v4.3h-1L504.8,604z M509.4,611.4V608h3.9v3.9h-3.5L509.4,611.4z M513.8,597
			v-2.9h-2.9v2.9H513.8z M514.6,612.2h3.5v3.5h-3.5V612.2z M515.3,621.1h1.7v2.6L515.3,621.1z M518.5,601.7v-2.9h-2.7v2.9H518.5z
			 M519.5,616.6h3.1v3.1h-3.1V616.6z M519.8,625h2.1v2.1h-2.1V625z M523.8,597.2v-3.6h-3.6v3.6H523.8z M524.1,579.1v4.8h-3.6
			C521.5,582.6,523.3,580.2,524.1,579.1z M523.3,606.2v-2.7h-2.9v2.7H523.3z M524.3,620.7h2.9v2.9h-2.9V620.7z M524.5,578.5l2.1-3.3
			h1.8v3.8h-3.9V578.5z M528.4,601.9v-3.6h-3.5v3.6H528.4z M528.1,610.8v-3H525v3H528.1z M525.4,628.6h1.4v1.4h-1.4V628.6z
			 M529.1,579.8h3.8v3.8h-3.8V579.8z M533.1,606.6V603h-3.6v3.6H533.1z M529.5,570.9h3v3h-3V570.9z M532.9,615.5v-3.1h-3.3v3.1
			H532.9z M529.9,624.6h2.5v2.5h-2.5V624.6z M532.3,562.3v2h-0.7L532.3,562.3z M533.8,584.5h3.8v3.8h-3.8V584.5z M537.7,611.2v-3.6
			h-3.6v3.6H537.7z M534.2,575.5h3v3.1h-3V575.5z M534.5,566.6h2.3v2.3h-2.3V566.6z M534.9,557.6h1.7v1.7h-1.7V557.6z M535,628.2
			h2.1v2.1H535V628.2z M535.1,548.8h1v1h-1V548.8z M538.4,589.2h3.9v3.8h-3.9V589.2z M538.8,580.2h3.1v3.1h-3.1V580.2z M539,624.4
			l1.8,2.7h-2L539,624.4z M539.2,571.3h2.3v2.3h-2.3V571.3z M539.6,562.3h1.6v1.7h-1.6V562.3z M539.8,553.3h1.2v1.2h-1.2V553.3z
			 M540.6,631.9h1.4v1.4h-1.4V631.9z M543.1,593.7h3.8v3.8h-3.8V593.7z M543.5,584.9h3v3h-3V584.9z M543.9,575.9h2.3v2.3h-2.3V575.9
			z M544.1,567h1.7v1.6h-1.7V567z M544.4,557.9h1.2v1.2h-1.2V557.9z M547.8,598.4h3.8v2.5l-0.9,1.3h-2.9V598.4z M548,589.4h3.1v3.1
			H548V589.4z M548.4,580.6h2.3v2.3h-2.3V580.6z M548.8,571.6h1.6v1.7h-1.6V571.6z M549.1,562.6h1.2v1.2h-1.2V562.6z M552.7,594.1
			h2.7l-1.7,3.1h-1V594.1z M553.1,585.2h2.3v2.2h-2.3V585.2z M553.5,576.3h1.6v1.6h-1.6V576.3z M553.8,567.3h1v1h-1V567.3z
			 M558.1,580.9h1.7l-0.3,1.6h-1.4V580.9z M558.3,571.8h1.2v1.2h-1.2V571.8z"/>
	</g>
	<g>
		<path class="st2" d="M522.8,925.2h4.7v4.7h2.3l-2.6,1.6V930h-4.2v3.8l-2.3,1.2h-2v0.9c-2,0.8-3.9,1.6-6,2.2v-2.9h-3v3h2.5
			c-4.7,1.6-9.2,2.3-13.9,3.1v-0.9h-2v1.2c-2.7,0.4-7.9,0.7-11.2,0.7c-27.9,0-45.1-6.8-57.8-13.2l-25.9-25.9
			c13.3,6.4,31.3,13.2,60.4,13.2c8.6,0,17.3-1.2,24.7-3.3v2h3v-2.9c3.5-1.3,6.9-2.6,10.2-4.3v3.1h4.3v-4.2h-2.3l2.6-1.6v1.4h4.6v4.6
			h4.7v4.7h4.7v4.6h4.6V925.2z M409.9,816.1l0.9,1C410.5,816.8,410.2,816.5,409.9,816.1z M410.8,817.1c3.8,4.2,9,8.2,14.3,11.1h-0.3
			v1.8h1.8v-0.9c13.2,7,27.2,10.5,39.5,14.5v0.9h2.7c1.7,0.7,3.3,1.2,4.7,1.8h-2.9v2.9h2.9v-2.9c4.2,1.6,8.5,3.8,10.9,6.1v1.6h1.4
			c1.6,1.8,2.5,4,2.5,6.6c0,3.8-1.7,6.1-3.6,8.1l-1.7-0.7v-3.4h-3.3v2.2l-10.8-3.9v-2.9h-3v1.8c-3.6-1.2-7.6-2.7-11.1-4.2v-2.1h-2.7
			v0.9c-5.6-2.6-11.9-6.6-15.8-10.4C427.3,837.2,418.3,825.5,410.8,817.1z M431.4,832.8h-2v2.1h2V832.8z M434,839.5h2.1v-2.2H434
			V839.5z M438.6,844.2h2.3V842h-2.3V844.2z M442.6,779.9h-1.6l0.7-1.6h0.9V779.9z M443.1,848.9h2.5v-2.3h-2.5V848.9z M443.3,839.5
			h2.2v-2.2h-2.2V839.5z M448.2,776.3h-3.8v-1.7l2.6-2.1h0.8V772c2.6-1.6,5.5-2.6,6.4-2.9v2.1h2.7v-2.7h-0.8
			c4.8-1.3,10.4-2.1,16.7-2.1c15.4,0,33.2,6,46.1,13.9l25.9,25.9c-12.6-8.6-31.4-15.2-45.3-15.2c-8.9,0-13.9,1-19.5,3v-2.3h-2.6v2.7
			h1.6c-1.2,0.5-2.3,1-3.5,1.7h-3.9v2.7l-0.8,0.7h-3v-3.8h3.3v-4.2h-4.2v3.3h-3.8V791h3.4v-4.2h-4.3v3.4h-3.8v-3.8h3.4v-4.3h-4.2
			v3.4h-3.8v-3.8h3.4v-4.2h-4.3v3.4h-3.8v-3.8h3.4v-4.3h-4.3V776.3z M445.6,784.5v-1.6h1.6v1.6H445.6z M447.7,853.6h2.6v-2.5h-2.6
			V853.6z M447.8,844.2h2.3v-2.3h-2.3V844.2z M450.3,789v-1.4h1.4v1.4H450.3z M452.4,849h2.6v-2.6h-2.6V849z M454.9,793.7v-1.6h1.6
			v1.6H454.9z M456.9,853.7h2.7V851h-2.7V853.7z M457.1,844.4h2.5v-2.6h-2.5V844.4z M458.8,775.9h2.9V773h-2.9V775.9z M459.5,798.3
			v-1.4h1.6v1.4H459.5z M461.5,858.4h2.9v-2.9h-2.9V858.4z M461.6,849h2.7v-2.6h-2.7V849z M463.5,780.4h2.7v-2.7h-2.7V780.4z
			 M463.6,771h2.5v-2.5h-2.5V771z M465.5,917.7h-1.3v1.2h1.3V917.7z M466.2,853.7h2.9V851h-2.9V853.7z M468.1,785.1h2.7v-2.7h-2.7
			V785.1z M468.3,775.6h2.5v-2.3h-2.5V775.6z M470.1,922.2h-1.2v1.3h1.2V922.2z M470.7,858.6h3v-3h-3V858.6z M472.7,789.8h2.9v-2.9
			h-2.9V789.8z M473,780.3h2.3v-2.5H473V780.3z M473.1,770.8h1.3v-1.2h-1.3V770.8z M475,917.3h-1.8v1.8h1.8V917.3z M474.8,926.9
			h-1.2v1.2h1.2V926.9z M475.3,853.9h3.1v-3h-3.1V853.9z M475.3,863.2h3.1v-3.1h-3.1V863.2z M477.5,785h2.5v-2.5h-2.5V785z
			 M477.8,775.5h1.2v-1.3h-1.2V775.5z M479.7,922h-1.8v1.8h1.8V922z M479.5,931.6h-1.3v1.2h1.3V931.6z M480,858.6h3.1v-3.1H480
			V858.6z M482.2,789.5h2.5v-2.3h-2.5V789.5z M484.7,917h-2.5v2.5h2.5V917z M482.3,780.2h1.3v-1.3h-1.3V780.2z M484.4,926.5h-1.8v2
			h1.8V926.5z M484,936.2h-1.2v1.2h1.2V936.2z M484.5,863.2h3.3V860h-3.3V863.2z M489.2,921.7h-2.3v2.3h2.3V921.7z M487,784.7h1.3
			v-1.2H487V784.7z M489,931.2h-1.8v1.8h1.8V931.2z M488.7,940.9h-1.2v1.2h1.2V940.9z M494.2,916.8h-3v3h3V916.8z M493.9,926.3h-2.5
			v2.5h2.5V926.3z M491.7,789.4h1.2v-1.3h-1.2V789.4z M493.7,935.9h-1.8v1.8h1.8V935.9z M499.1,911.8h-3.5v3.5h3.5V911.8z
			 M498.9,921.3h-3v3.1h3V921.3z M498.6,931h-2.5v2.5h2.5V931z M503.8,916.5h-3.6v3.5h3.6V916.5z M503.6,926h-3.1v3h3.1V926z
			 M503.2,935.6h-2.3v2.3h2.3V935.6z M508.8,911.6h-4.2v4.2h4.2V911.6z M508.4,921.1h-3.5v3.6h3.5V921.1z M508.1,930.7h-3v3h3V930.7
			z M509,906.6v-4.3h4.3v4.3H509z M513.3,916.2h-4.2v4h4.2V916.2z M513.1,925.7h-3.5v3.5h3.5V925.7z M517.9,911.3h-4.3V907h4.3
			V911.3z M513.8,902v-3.8h3.8v3.8H513.8z M518,920.8h-4.2v4.2h4.2V920.8z M517.8,930.4h-3.6v3.5h3.6V930.4z M518.3,911.6h4.3v4.3
			h-4.3V911.6z M518.5,902.6h3.8v3.8h-3.8V902.6z M522.6,925.5h-4v4.2h4V925.5z M522.1,893.5v3.4h-3.3v-3.4H522.1z M527.3,920.5
			h-4.4v-4.3h4.4V920.5z M523.1,907.1h3.9v3.9h-3.9V907.1z M523.4,898.1h3.4v3.4h-3.4V898.1z M523.6,889.2h2.9v2.7h-2.9V889.2z
			 M526.3,880.4v2h-0.9L526.3,880.4z M527.5,920.8h4.3v4.4h-4.3V920.8z M527.8,911.8h3.9v3.9h-3.9V911.8z M528,902.8h3.4v3.3H528
			V902.8z M528.3,893.7h2.9v2.9h-2.9V893.7z M528.6,884.7h2.3v2.3h-2.3V884.7z M530.6,875.6v2h-2v-2H530.6z M532.2,925.5h3.4
			l-3.4,2.7V925.5z M532.5,916.5h3.8v3.8h-3.8V916.5z M532.7,907.4h3.3v3.4h-3.3V907.4z M533,898.4h2.7v2.9H533V898.4z M533.1,889.3
			h2.5v2.5h-2.5V889.3z M533.4,880.3h2v2h-2V880.3z M533.5,871.2h1.6v1.6h-1.6V871.2z M534.9,862.1v1.2h-1.2v-1.2H534.9z M537,921.1
			h3l-3,3.1V921.1z M537.3,912.1h3.4v3.4h-3.4V912.1z M537.5,903.1h2.9v2.7h-2.9V903.1z M537.8,894h2.3v2.3h-2.3V894z M537.9,884.9
			h2.1v2.1h-2.1V884.9z M538.2,875.9h1.6v1.6h-1.6V875.9z M539.6,866.8v1.2h-1.2v-1.2H539.6z M542,916.8h1.7L542,919V916.8z
			 M542.2,907.6h2.9v2.9h-2.9V907.6z M542.4,898.7h2.5v2.3h-2.5V898.7z M542.6,889.5h2v2h-2V889.5z M542.9,880.4h1.6v1.6h-1.6V880.4
			z M544.2,871.4v1.2H543v-1.2H544.2z M547.1,903.2h2.5v2.5h-2.5V903.2z M549.3,896.2h-2v-2h2V896.2z M549,886.7h-1.6v-1.6h1.6
			V886.7z M548.9,877.2h-1.2V876h1.2V877.2z M551.9,898.8h0.5l-0.5,1.8V898.8z M553.7,889.8v1.6h-1.6v-1.6H553.7z M553.4,881.9h-1.2
			v-1.2h1.2V881.9z"/>
	</g>
	<g>
		<path class="st2" d="M19.5,182.3h132.2l25.9,25.9H45.5L19.5,182.3z M84.4,51.2h-4.7v-4.7H75v-4.7h-4.7v-4.7h-4.7v-4.7h-4.4v-4.8
			h4.3v-4.3h-4.8V0l27.2,25.9v2.7h-2.7v3.1h2.7v5.9h-3v3.8h3v5.3h-3.4V51h3.4v4.8h-3.5V51.2z M74.4,186.6v-1.3h-1.3v1.3H74.4z
			 M61.2,37.2h4.3v4.3h-4.3V37.2z M65.2,18v-3.8h-3.8V18H65.2z M61.5,46.7h3.9v3.9h-3.9V46.7z M65,8.3V5.2h-3.3v3.1H65z M61.7,56.3
			h3.4v3.4h-3.4V56.3z M62,65.8h2.9v2.9H62V65.8z M62.3,75.4h2.3v2.3h-2.3V75.4z M62.5,84.9h1.8v1.8h-1.8V84.9z M62.8,94.4h1.3v1.3
			h-1.3V94.4z M70.2,32.3V28h-4.4v4.3H70.2z M79.2,191.4v-1.3h-1.3v1.3H79.2z M65.9,41.9h4.3v4.3h-4.3V41.9z M69.9,22.7v-3.8H66v3.8
			H69.9z M66.2,51.4h3.9v3.8h-3.9V51.4z M69.7,13V9.9h-3.4V13H69.7z M66.4,60.9h3.4v3.4h-3.4V60.9z M66.7,70.4h2.9v2.9h-2.9V70.4z
			 M66.9,80h2.3v2.3h-2.3V80z M67.2,89.6H69v1.8h-1.8V89.6z M67.5,99.1h1.3v1.3h-1.3V99.1z M84.1,186.7v-1.6h-1.7v1.6H84.1z
			 M74.9,37v-4.3h-4.4V37H74.9z M83.9,196.1v-1.3h-1.3v1.3H83.9z M70.6,46.6h4.3v4.3h-4.3V46.6z M74.6,27.3v-3.8h-3.8v3.8H74.6z
			 M70.8,56h3.8v3.9h-3.8V56z M74.4,17.7v-3.1h-3.3v3.1H74.4z M71.1,65.6h3.3v3.3h-3.3V65.6z M71.2,75.1h2.9V78h-2.9V75.1z
			 M71.5,84.6h2.3V87h-2.3V84.6z M71.8,94.1h1.8V96h-1.8V94.1z M72,103.8h1.3v1.3H72V103.8z M79.6,41.7v-4.3h-4.4v4.3H79.6z
			 M88.8,191.4v-1.6h-1.6v1.6H88.8z M75.3,51.3h4.3v4.3h-4.3V51.3z M88.7,200.9v-1.3h-1.3v1.3H88.7z M75.4,60.7h3.9v3.9h-3.9V60.7z
			 M79.3,32v-3.8h-3.8V32H79.3z M75.7,70.2h3.4v3.4h-3.4V70.2z M79.1,22.4v-3.1h-3.3v3.1H79.1z M75.9,79.7h2.9v2.9h-2.9V79.7z
			 M76.2,89.3h2.3v2.3h-2.3V89.3z M76.4,98.8h1.8v1.8h-1.8V98.8z M76.7,108.3H78v1.3h-1.3V108.3z M93.9,187v-2.1h-2.1v2.1H93.9z
			 M84.3,46.4v-4.3h-4.4v4.3H84.3z M93.7,196.2v-1.6H92v1.6H93.7z M80,56h4.3v4.3H80V56z M93.4,205.6v-1.3h-1.3v1.3H93.4z
			 M80.1,65.4h3.8v3.8h-3.8V65.4z M84,36.7v-3.8h-3.8v3.8H84z M80.4,74.9h3.4v3.4h-3.4V74.9z M83.7,27.1V24h-3.3v3.1H83.7z
			 M80.6,84.4h2.9v2.9h-2.9V84.4z M80.9,93.9h2.3v2.3h-2.3V93.9z M81.1,103.5H83v1.8h-1.8V103.5z M81.4,113h1.3v1.3h-1.3V113z
			 M98.6,191.7v-2.1h-2.1v2.1H98.6z M84.7,60.7h3.3V65h-3.3V60.7z M98.3,200.9v-1.6h-1.6v1.6H98.3z M84.8,69.9h3.1v3.9h-3.1V69.9z
			 M84.9,79.4h3v3.4h-3V79.4z M85.2,89.1h2.7v2.9h-2.7V89.1z M85.4,98.6h2.3v2.3h-2.3V98.6z M85.7,108.1h1.8v1.8h-1.8V108.1z
			 M86,117.6h1.3v1.3H86V117.6z M103.7,187.1v-2.5h-2.6v2.5H103.7z M103.4,196.5v-2.1h-2.1v2.1H103.4z M103.2,205.7v-1.6h-1.7v1.6
			H103.2z M108.4,191.9v-2.6h-2.6v2.6H108.4z M108.1,201.2v-2.1H106v2.1H108.1z M113.3,187.4v-3h-3v3H113.3z M113.2,196.8v-2.6h-2.6
			v2.6H113.2z M112.9,206v-2.1h-2.1v2.1H112.9z M118.1,192.2v-3.1H115v3.1H118.1z M117.9,201.4v-2.6h-2.6v2.6H117.9z M123.1,187.6
			v-3.5h-3.5v3.5H123.1z M122.8,196.9v-3h-3v3H122.8z M122.7,206.3v-2.6h-2.6v2.6H122.7z M127.9,192.5v-3.5h-3.5v3.5H127.9z
			 M127.6,201.7v-3.1h-3.1v3.1H127.6z M132.6,197.1v-3.5h-3.5v3.5H132.6z M132.7,187.6v-3.5h-3.5v3.5H132.7z M132.3,206.4v-3h-3v3
			H132.3z M137.4,202v-3.5h-3.5v3.5H137.4z M137.5,192.5v-3.5H134v3.5H137.5z M142.1,187.6v-3.5h-3.5v3.5H142.1z M142.1,206.7v-3.5
			h-3.5v3.5H142.1z M142.2,197.1v-3.5h-3.5v3.5H142.2z M146.9,192.5v-3.5h-3.5v3.5H146.9z M147,202v-3.5h-3.5v3.5H147z M151.6,187.6
			v-3.5h-3.5v3.5H151.6z M151.6,197.1v-3.5h-3.5v3.5H151.6z M151.7,206.7v-3.5h-3.5v3.5H151.7z M156.4,192.5v-3.5h-3.5v3.5H156.4z
			 M156.4,202v-3.5h-3.5v3.5H156.4z M161.1,197.1v-3.5h-3.5v3.5H161.1z M161.1,206.7v-3.5h-3.5v3.5H161.1z M165.9,202v-3.5h-3.5v3.5
			H165.9z M170.6,206.7v-3.5h-3.5v3.5H170.6z"/>
	</g>
	<g>
		<path class="st0" d="M163.7,371.3H61.6l-13.4,36.1h-3.4l54.8-147.5h26l54.8,147.5h-3.4L163.7,371.3z M162.5,368.2L123.6,263h-21.9
			L62.8,368.2H162.5z"/>
	</g>
	<g>
		<path class="st0" d="M341.6,260.3l-55.1,87.5v59.6h-3.1v-59.8l-54.8-87.4h3.6l52.7,84.6l53-84.6H341.6z"/>
	</g>
	<g>
		<path class="st0" d="M321.1,647.4v3.1h-87.8V502.3h84.1v3.1h-81v68h68.8v3.1h-68.8v70.8H321.1z"/>
	</g>
	<g>
		<path class="st0" d="M475.1,591.8l35.8,58.3h-3.6l-35.5-57.9c-1.6,0.1-3.3,0.1-4.9,0.1h-49.5v57.8h-3.1V502.4h52.6
			c28.8,0,49,18.5,49,44.9C515.7,571.2,499.3,588.5,475.1,591.8z M466.8,589.2c27.1,0,45.7-17.1,45.7-41.8
			c0-24.7-18.6-41.8-45.7-41.8h-49.5v83.6H466.8z"/>
	</g>
	<g>
		<path class="st0" d="M511.4,859.2c0,24.7-19.4,39.2-52.1,39.2c-15.2,0-28.4-2.3-40.2-7.2v-3.4c11.7,4.9,24.7,7.4,40.2,7.4
			c31,0,48.8-13.3,48.8-36.1c0-24.7-21.2-30.3-43.5-36.1c-22.5-5.9-46.1-11.7-46.1-38c0-24.6,20.4-39.8,53-39.8
			c11.3,0,22.5,2.7,29.8,5.7v3.4c-8.5-3.6-19.9-6-29.8-6c-30.9,0-49.7,14.1-49.7,36.7c0,24,21.1,29,43.6,34.9
			C487.8,825.7,511.4,832.1,511.4,859.2z"/>
	</g>
	<g>
		<g>
			<path class="st0" d="M38.6,17.6h3.1v143.6h92.5v3.1H38.6V17.6z"/>
		</g>
	</g>
</g>
</svg>
