<?xml version="1.0" encoding="utf-8"?>
<!-- Generator: Adobe Illustrator 21.0.2, SVG Export Plug-In . SVG Version: 6.00 Build 0)  -->
<svg version="1.1" id="Layer_1" xmlns="http://www.w3.org/2000/svg" xmlns:xlink="http://www.w3.org/1999/xlink" x="0px" y="0px"
	 viewBox="0 0 599.2 1151.1" style="enable-background:new 0 0 599.2 1151.1;" xml:space="preserve">
<style type="text/css">
	.st0{fill:#EB6661;}
	.st1{fill:#24245A;}
	.st2{fill:#C64852;}
</style>
<g>
	<g>
		<path class="st0" d="M99.1,256.9h50.5l68.5,184.3h-45l-12.8-36.9H87.9l-12.8,36.9H30.6L99.1,256.9z M149.8,368.2l-25.5-69.1
			l-25.7,69.1H149.8z"/>
	</g>
	<g>
		<path class="st0" d="M277.8,367.4l-71.6-110.6h51.6l40.8,68.5l40.8-68.5H391l-71.6,110.6v74.7h-41.6V367.4z"/>
	</g>
	<g>
		<path class="st0" d="M237.5,502.2h121.6v37.4h-80.6v34h68.2V612h-68.2v36.6h83v37.9h-124V502.2z"/>
	</g>
	<g>
		<path class="st0" d="M420.2,502.2h72.1c40,0,68.7,26.3,68.7,61.3c0,22.1-13.6,42.4-33,54.2l42.8,68.7h-49.2L485.9,627h-24.6v59.5
			h-41.1V502.2z M491.8,592.5c16.6,0,27.6-12.1,27.6-26.3c0-14.2-11.1-26.3-27.6-26.3h-30.5v52.7H491.8z"/>
	</g>
	<g>
		<path class="st0" d="M426.3,924.6v-43.8c14.6,9.5,31.7,17.1,54.5,17.1c14,0,33.4-4.2,33.4-16.3c0-26.1-89.8-13.7-89.8-75.3
			c0-34.2,27.6-59,69.5-59c16.8,0,37.1,4.1,49.4,10v42.3c-11.4-7.3-29.4-13.3-45-13.3c-19.5,0-32.6,7.1-32.6,16.8
			c0,25.8,91.6,12.6,91.6,75c0,34.5-27.9,59.8-70,59.8C457.9,937.9,439.8,931.1,426.3,924.6z"/>
	</g>
	<g>
		<g>
			<path class="st0" d="M31.2,11.5h41.6v145.1h91.1v39.2H31.2V11.5z"/>
		</g>
	</g>
	<g>
		<path class="st1" d="M252.4,388.3L188,290l25.3-14.6l52.1,80.6v73.7l26.2,26.2h42.9l-39.9,23h-42.3V388.3z"/>
	</g>
	<g>
		<path class="st1" d="M18.3,429.6l23.6,26.2h40.5l-39.9,23H0L18.3,429.6z M142.2,442h-55l8-23H157l3.7,10.7l31.5,26.2h47.7
			l-39.9,23h-45L142.2,442z M126.5,327.1l10.9,29.6h-21.9L126.5,327.1z"/>
	</g>
	<g>
		<path class="st1" d="M5.2,49.2l13.7-7.9v143L45,210.5h133.6l-39.9,23H5.2V49.2z"/>
	</g>
	<g>
		<g>
			<path class="st1" d="M211.5,539.9l13.7-7.9v143l26.2,26.2h125.3l-39.9,23H211.5V539.9z M334.4,562h-42v-10.1h80.2l-30.7,17.6
				L334.4,562z M292.5,624.3h67.8L338.1,637h-45.7V624.3z"/>
		</g>
	</g>
	<g>
		<g>
			<path class="st1" d="M394.2,539.9l13.7-7.9v143l28.2,26.2h40.4l-39.9,23h-42.4V539.9z M473.8,572.4v-20.5H507
				c0.1,0.9,0.1,1.8,0.1,2.8c0,12.4-8.3,23-21.1,25.7C482.9,576.8,478.8,574,473.8,572.4z M476.5,663.2v-25.5h10.4l22.4,37.3
				l42,26.2h47.9l-39.9,23h-34.6L476.5,663.2z"/>
		</g>
	</g>
	<g>
		<g>
			<path class="st1" d="M414,869.2c-8.3-5.4-12.9-16.2-12.9-27.9c0-13.6,4.3-25.7,12.2-35.3c1.6,7.9,5.1,14.2,9.7,19.5l10.9,12.9
				c14.7,17.2,19.6,23.3,39.4,30.8c7.6,2.9,17,5.8,24.9,9c-6.4,5.9-19.6,8.2-29.7,8.2C445.7,886.3,428.6,878.7,414,869.2z
				 M401.6,962.3v-41.9l12.4-7.4l26.2,26.2c12.9,6.4,30.3,13.3,58.4,13.3c15.5,0,29.1-3.4,40-9.5l-37.4,21.6
				c-12.5,7.2-26.5,10.9-42.5,10.9C431.2,975.6,414.3,968.8,401.6,962.3z M482.3,810.3c4.7-6.3,15.7-10.7,30-10.7
				c15.5,0,33.6,6.7,46.6,15.4l-28.7,16.6C517.3,820,498.3,815,482.3,810.3z"/>
		</g>
	</g>
	<g>
		<path class="st2" d="M18.3,429.6h44.5l0.5-1.4h1.6v3.8h-0.4l1.4,2v-1.1h3.7v3.7h-1.7l2.6,3.4v-2.4h3.7v3.7h-2.8l10.9,14.5H41.9
			L18.3,429.6z M65.8,423.4h3.8v3.9h-3.8V423.4z M68.2,414h1.6v4.1h-2.9L68.2,414z M84.1,423h-4.6v-4.6h-4.7v-4.7h4.1v-4.1h-4.1v4.1
			H70V409h4.1V405h-2.8l4.2-12.2H148L157,419H95.2l-2.2,6.6v-1.8h-4.1v4.1h-4.7V423z M70.4,418.7h4.1v4.1h-4.1V418.7z M70.6,428.2
			h3.8v3.8h-3.8V428.2z M75.2,423.4h3.9v3.9h-3.9V423.4z M75.2,432.9h3.9v3.8h-3.9V432.9z M75.3,442.3H79v3.8h-3.7V442.3z
			 M78.2,403.6v-2.6h-2.8v2.6H78.2z M83.5,418.3v-3.9h-4v3.9H83.5z M79.8,428h4.1v4.1h-4.1V428z M79.9,437.5h3.8v3.8h-3.8V437.5z
			 M80,447h3.7v3.7H80V447z M82.9,408.3v-2.8h-2.8v2.8H82.9z M85.3,397.5v-3h-3.2v3H85.3z M88.2,423v-3.9h-3.9v3.9H88.2z
			 M84.5,432.8h4.1v3.9h-4.1V432.8z M84.6,442.3h2.5l-1.3,3.8h-1.2V442.3z M87.5,413v-2.8h-2.6v2.8H87.5z M90.2,402.4v-3H87v3H90.2z
			 M88.9,349.6H90v4.6h-2.9L88.9,349.6z M88.9,427.8h3.3l-1.7,4.7h-1.6V427.8z M92.3,417.6V415h-2.8v2.6H92.3z M90,346.4l0.5-1.4
			h4.1v4.6H90V346.4z M90.2,354.3h4.5v2.4h-4.5V354.3z M95.2,407.4v-3.2h-3.3v3.2H95.2z M95.3,397.5v-3h-3.2v3H95.3z M99.5,354.3
			h4.5v-4.6h-4.6v4.5h-4.6v-4.6h4.5V345h-4.6v-4.6h-2.4l3.7-9.9h2.9v-3.7h-1.6l4-10.7h2V313h-0.8l4.3-11.6h0.8v-2.1l4.3-11.7
			l4.5,12.1h-1.2v1.6h1.6v-0.5l9.7,26.3h-2.8v2.9h1.7l-3.9,10.9h-2.8v3.4h1.4l-3.8,10.3h-2.8v2.1h-4.9v-2.2h-4.6v2.2h-4.6V354.3z
			 M99.1,340v-4.2h-4.2v4.2H99.1z M99.9,412.2v-3.2h-3.2v3.2H99.9z M100.2,402.4v-3H97v3H100.2z M103.9,344.7v-4.2h-4.2v4.2H103.9z
			 M103.6,335.1v-3.8h-3.8v3.8H103.6z M103.5,325.6v-3.6h-3.6v3.6H103.5z M104.9,417.1V414h-3.2v3.2H104.9z M105.2,407.4v-3.2h-3.3
			v3.2H105.2z M105.2,397.5v-3H102v3H105.2z M108.5,349.5v-4.2h-4.2v4.2H108.5z M108.3,339.8V336h-3.8v3.8H108.3z M108.1,330.2v-3.4
			h-3.4v3.4H108.1z M107.9,320.8v-3.2h-3.2v3.2H107.9z M107.7,311.1v-2.6H105v2.6H107.7z M109.9,412.2v-3.2h-3.2v3.2H109.9z
			 M110,402.4v-3h-3.2v3H110z M113.2,354.1v-4.2H109v4.2H113.2z M112.9,344.6v-3.8h-3.8v3.8H112.9z M112.8,335v-3.4h-3.4v3.4H112.8z
			 M112.7,325.4v-3h-3.2v3H112.7z M112.3,315.9v-2.6h-2.6v2.6H112.3z M112.2,306.1V304H110v2.1H112.2z M111.9,296.5V295h-1.6v1.6
			H111.9z M115,407.4v-3.2h-3.3v3.2H115z M114.9,417.1V414h-3.2v3.2H114.9z M115,397.5v-3h-3.2v3H115z M117.7,349.2v-3.8h-3.8v3.8
			H117.7z M117.5,339.7v-3.6H114v3.6H117.5z M117.3,330.1v-3.2h-3v3.2H117.3z M117,320.5v-2.6h-2.6v2.6H117z M116.8,310.9v-2.1h-2.1
			v2.1H116.8z M119.8,412.2v-3.2h-3.2v3.2H119.8z M119.9,402.4v-3h-3.2v3H119.9z M122,334.8v-3.2h-3.2v3.2H122z M121.8,325.2v-2.6
			h-2.6v2.6H121.8z M121.4,315.5v-2.1h-2.1v2.1H121.4z M124.9,407.4v-3.2h-3.3v3.2H124.9z M124.8,417.1V414h-3.2v3.2H124.8z
			 M124.9,397.5v-3h-3.2v3H124.9z M129.7,412.2v-3.2h-3.2v3.2H129.7z M129.8,402.4v-3h-3.2v3H129.8z M134.8,407.4v-3.2h-3.3v3.2
			H134.8z M134.7,417.1V414h-3.2v3.2H134.7z M134.8,397.5v-3h-3.2v3H134.8z M139.5,412.2v-3.2h-3.2v3.2H139.5z M139.7,402.4v-3h-3.2
			v3H139.7z M144.7,407.4v-3.2h-3.3v3.2H144.7z M144.5,417.1V414h-3.2v3.2H144.5z M144.7,397.5v-3h-3.2v3H144.7z M149.4,412.2v-3.2
			h-3.2v3.2H149.4z M149.5,402.4v-3h-3.2v3H149.5z M154.4,417.1V414h-3.2v3.2H154.4z M160.7,429.6h45l34.1,26.2h-47.7L160.7,429.6z"
			/>
	</g>
	<g>
		<path class="st2" d="M265.4,429.6H307l27.5,26.2h-42.9L265.4,429.6z M307,355.8l0.8-1.2h2.6v3.3H307V355.8z M307.7,364.5h2.4v2.4
			h-2.4V364.5z M308.1,374.3h1.6v1.4h-1.6V374.3z M311.5,349.6h3.9v3.9h-3.9V349.6z M312,359.5h2.9v3H312V359.5z M312.4,369.3h2.1
			v2.1h-2.1V369.3z M312.8,379.1h1.3v1.3h-1.3V379.1z M315.8,342.3v2.1h-1.4L315.8,342.3z M316,344.6h4.5v4.6H316V344.6z
			 M316.4,354.5h3.7v3.6h-3.7V354.5z M316.9,364.3h2.6v2.6h-2.6V364.3z M317.3,374.2h1.8v1.7h-1.8V374.2z M320.5,335.2v4.6h-3
			L320.5,335.2z M320.6,335l2.9-4.5h1.7v4.6h-4.6V335z M320.6,340h4.6v4.5h-4.6V340z M320.7,349.5h4.3v4.3h-4.3V349.5z M321.2,359.3
			h3.3v3.3h-3.3V359.3z M321.8,369.2h2.2v2.4h-2.2V369.2z M322.2,378.9h1.4v1.6h-1.4V378.9z M325.3,327.7l1.2-2h3.4v4.7h-4.6V327.7z
			 M325.3,335.2h4.6v4.6h-4.6V335.2z M325.3,344.6h4.6v4.6h-4.6V344.6z M325.6,354.3h4v3.9h-4V354.3z M326.1,364.2h3v2.9h-3V364.2z
			 M326.5,374.1h2.1v2h-2.1V374.1z M326.9,383.8h1.3v1.3h-1.3V383.8z M339.3,330.5h4.7v-4.7h-4.7V330.5h-4.6v-4.7h4.6v-4.6h-4.6v4.6
			h-4.7v-4.6h-0.4l0.4-0.7v0.5h4.6v-4.6h-2l2.1-3.3v3.2h4.6v-4.5h-3.7l3.2-4.9h0.4v-0.7l2.8-4.1h1.8v-3l1.2-1.8h3.4v-4.1h-0.8
			l1.4-2.2v1.6h4v-3.9h-2.4l9.7-15.1h1.7V271l1.4-2.2l0.1-0.1v0.1h3v-3h-1.2l2.9-4.6v2.8h2.8v-2.8h-2.8l11.3-15.8l14.9,20.5l2.4,3
			l-4.1,6.2h-1.1v1.7l-2,2.9h-2.9v3.2h0.8l-2.1,3.2v-1.7h-3.4v3.4h2.2l-9.9,15h-2.1v3.2l-0.9,1.4h-3.8v4.2h1.1l-1.4,2.1v-1.7H363
			v4.3h2.6l-2.9,4.5v-4.2h-4.5v4.5h4.2l-3.2,4.9h-1.2v1.6l-2,3h-2.8v4.2l-0.3,0.4h-4.3v-4.6H344v4.6h-4.7V330.5z M329.9,330.5h4.7
			v4.6h-4.7V330.5z M330.1,340h4.5v4.5h-4.5V340z M330.1,349.3h4.5v4.5h-4.5V349.3z M330.5,359.2h3.7v3.6h-3.7V359.2z M331,369.1
			h2.6v2.6H331V369.1z M331.4,378.8h1.8v1.8h-1.8V378.8z M334.7,335.2h4.6v4.6h-4.6V335.2z M334.7,344.6h4.6v4.6h-4.6V344.6z
			 M334.8,354.1h4.3v2.1l-1.4,2.2h-2.9V354.1z M343.9,311.7v-4.5h-4.5v4.5H343.9z M343.9,321v-4.5h-4.5v4.5H343.9z M339.4,339.8h4.6
			v4.6h-4.6V339.8z M339.4,349.3h4.3l-3,4.5h-1.3V349.3z M348.6,325.8v-4.6H344v4.6H348.6z M344,335.2h4.6v4.6H344V335.2z
			 M344,344.6h2.8l-2.8,4.2V344.6z M348.5,306.8v-4.2h-4.3v4.2H348.5z M348.6,316.3v-4.5h-4.5v4.5H348.6z M353.4,321v-4.5h-4.6v4.5
			H353.4z M353.4,330.5v-4.6h-4.6v4.6H353.4z M348.8,339.8h1.2l-1.2,1.8V339.8z M353.2,311.5v-4.3h-4.3v4.3H353.2z M353.1,302.1V298
			H349v4.1H353.1z M358,316.3v-4.3h-4.5v4.3H358z M358,325.8v-4.6h-4.5v4.6H358z M357.8,306.8v-4.2h-4.2v4.2H357.8z M357.7,297.3
			v-3.9h-3.9v3.9H357.7z M357.6,287.9v-3.7h-3.7v3.7H357.6z M362.6,311.5v-4.2h-4.3v4.2H362.6z M362.4,302.1V298h-4.1v4.1H362.4z
			 M362.3,292.6v-3.8h-3.8v3.8H362.3z M362.2,283.1v-3.6h-3.6v3.6H362.2z M367.2,306.8v-4.2H363v4.2H367.2z M367,297.3v-3.9h-3.9
			v3.9H367z M366.9,287.9v-3.7h-3.7v3.7H366.9z M366.8,278.2v-3.3h-3.4v3.3H366.8z M371.8,302.1V298h-3.9v4.1H371.8z M371.7,292.6
			v-3.8H368v3.8H371.7z M371.5,283v-3.4h-3.4v3.4H371.5z M371.4,273.5v-3.2h-3.2v3.2H371.4z M376.4,297.3v-3.8h-3.8v3.8H376.4z
			 M376.3,287.7v-3.6h-3.6v3.6H376.3z M376.1,278.2v-3.3h-3.3v3.3H376.1z M376,268.6v-2.9h-3v2.9H376z M375.7,259.2v-2.6h-2.5v2.6
			H375.7z M381,292.5v-3.6h-3.7v3.6H381z M380.9,283v-3.3h-3.4v3.3H380.9z M380.7,273.4v-3h-3.2v3H380.7z M380.5,263.9v-2.6h-2.6
			v2.6H380.5z M380.3,254.3V252H378v2.2H380.3z M385.5,278.1v-3h-3.2v3H385.5z M385.2,268.6v-2.8h-2.8v2.8H385.2z M385.1,259v-2.4
			h-2.5v2.4H385.1z M390,273.4v-2.9h-2.9v2.9H390z M389.8,263.8v-2.5h-2.5v2.5H389.8z M394.6,268.6v-2.8h-2.6v2.8H394.6z"/>
	</g>
	<g>
		<path class="st2" d="M225.2,675h125.3l26.2,26.2H251.4L225.2,675z M253.4,679.2v-1.3H252v1.3H253.4z M258.1,683.9v-1.3h-1.3v1.3
			H258.1z M263.1,679.2v-1.6h-1.7v1.6H263.1z M262.8,688.6v-1.3h-1.3v1.3H262.8z M288.5,555.7h-4.6v-4.6h-4.7v-4.7h-4.7v-4.6h-4.6
			V537h-3.6v-5h2.8v-3.4h-2.8V528h80.6l26.2,23.8h-84.2v3.6h3.7v5h-3.9V555.7z M266.3,542.3h3v3.3h-3V542.3z M288.5,628.1h-4.6v-4.6
			h-4.7v-4.7h-4.7v-4.6h-4.6v-4.7h-3.6v-5h2.8V601h-2.8v-0.5h68.2l26.2,23.8h-71.9v3.6h3.7v5h-3.9V628.1z M266.3,614.7h3v3.3h-3
			V614.7z M267.8,683.9v-1.6h-1.6v1.6H267.8z M267.7,693.5v-1.3h-1.3v1.3H267.7z M266.8,552.5h1.6v1.6h-1.6V552.5z M266.8,624.9h1.6
			v1.6h-1.6V624.9z M273.6,536.7v-3.6l-3.6-0.1v3.7H273.6z M273.6,609.1v-3.7h-3.6v3.7H273.6z M270.6,546.9h3.3v3.4h-3.3V546.9z
			 M270.6,619.3h3.3v3.4h-3.3V619.3z M273,679.4v-2.1h-2.1v2.1H273z M272.7,688.8v-1.6H271v1.6H272.7z M272.4,698.3v-1.3h-1.3v1.3
			H272.4z M271.4,557.1h1.7v1.6h-1.7V557.1z M271.4,629.5h1.7v1.6h-1.7V629.5z M275.6,603.5v-1.3h-1.3v1.3H275.6z M278.4,541.5v-3.7
			h-3.7v3.7H278.4z M278.4,613.9v-3.7h-3.7v3.7H278.4z M275.3,551.6h3.3v3.3h-3.3V551.6z M275.3,624h3.3v3.3h-3.3V624z M277.7,684.2
			v-2.1h-2.1v2.1H277.7z M277.4,693.5v-1.6h-1.6v1.6H277.4z M276.1,634.3h1.6v1.6h-1.6V634.3z M278.2,531.1v-1.3h-1.3v1.3H278.2z
			 M280.5,608.3V607h-1.3v1.3H280.5z M283.1,546.1v-3.6l-3.7-0.1v3.7H283.1z M283.1,618.5v-3.7h-3.7v3.7H283.1z M279.9,556.3h3.3
			v3.3h-3.3V556.3z M279.9,628.7h3.3v3.3h-3.3V628.7z M282.8,679.7v-2.6h-2.6v2.6H282.8z M282.6,689v-2.1h-2.1v2.1H282.6z
			 M282.3,698.4v-1.6h-1.7v1.6H282.3z M283.1,535.9v-1.3h-1.3v1.3H283.1z M285.5,603.6V602h-1.7v1.6H285.5z M285.2,613.1v-1.3h-1.3
			v1.3H285.2z M287.7,550.8v-3.7h-3.6v3.7H287.7z M287.7,623.2v-3.7h-3.6v3.7H287.7z M284.7,633.4h3.3v3.3h-3.3V633.4z M287.6,684.4
			v-2.6H285v2.6H287.6z M287.3,693.8v-2.1h-2.1v2.1H287.3z M288.1,531.2v-1.6h-1.7v1.6H288.1z M287.8,540.7v-1.3h-1.3v1.3H287.8z
			 M290.2,608.3v-1.6h-1.6v1.6H290.2z M290.1,618v-1.3h-1.3v1.3H290.1z M292.6,679.8v-3h-3v3H292.6z M292.5,689.3v-2.6h-2.6v2.6
			H292.5z M292.2,698.6v-2.1h-2.1v2.1H292.2z M292.8,535.9v-1.6h-1.6v1.6H292.8z M292.7,545.6v-1.3h-1.3v1.3H292.7z M295.4,603.9
			v-2.1h-2.1v2.1H295.4z M295.1,613.2v-1.6h-1.7v1.6H295.1z M294.8,622.7v-1.3h-1.3v1.3H294.8z M297.5,684.7v-3.2h-3.2v3.2H297.5z
			 M297.2,694v-2.6h-2.6v2.6H297.2z M298,531.5v-2.1h-2.1v2.1H298z M297.7,540.8v-1.6H296v1.6H297.7z M297.5,550.3V549h-1.3v1.3
			H297.5z M300.1,608.6v-2.1H298v2.1H300.1z M299.8,618v-1.6h-1.6v1.6H299.8z M302.5,680.1v-3.6h-3.6v3.6H302.5z M302.2,689.4v-3h-3
			v3H302.2z M302.1,698.9v-2.6h-2.6v2.6H302.1z M302.7,536.2v-2.1h-2.1v2.1H302.7z M302.5,545.6V544h-1.6v1.6H302.5z M305.2,604
			v-2.5h-2.6v2.5H305.2z M305,613.5v-2.1h-2.1v2.1H305z M304.7,622.8v-1.6H303v1.6H304.7z M307.3,685v-3.6h-3.6v3.6H307.3z
			 M307.1,694.3v-3.2h-3.2v3.2H307.1z M307.9,531.6v-2.5h-2.6v2.5H307.9z M307.6,541.1V539h-2.1v2.1H307.6z M307.3,550.4v-1.6h-1.7
			v1.6H307.3z M310,608.9v-2.6h-2.6v2.6H310z M309.7,618.2v-2.1h-2.1v2.1H309.7z M311.9,680.1v-3.6h-3.6v3.6H311.9z M312.1,689.7
			v-3.6h-3.6v3.6H312.1z M311.8,699v-3h-3v3H311.8z M312.6,536.5v-2.6H310v2.6H312.6z M312.3,545.8v-2.1h-2.1v2.1H312.3z M315,604.3
			v-3h-3v3H315z M314.8,613.7v-2.6h-2.6v2.6H314.8z M314.6,623.1V621h-2.1v2.1H314.6z M316.8,685v-3.6h-3.6v3.6H316.8z M316.9,694.6
			V691h-3.6v3.6H316.9z M317.6,531.9v-3h-3v3H317.6z M317.5,541.3v-2.6h-2.6v2.6H317.5z M317.2,550.7v-2.1h-2.1v2.1H317.2z
			 M319.8,609.1V606h-3.2v3.2H319.8z M319.6,618.5v-2.6h-2.6v2.6H319.6z M321.5,680.1v-3.6H318v3.6H321.5z M321.5,689.7v-3.6H318
			v3.6H321.5z M321.7,699.3v-3.6h-3.6v3.6H321.7z M322.5,536.7v-3.2h-3.2v3.2H322.5z M322.2,546.1v-2.6h-2.6v2.6H322.2z
			 M324.8,604.5V601h-3.6v3.6H324.8z M324.6,613.9v-3h-3v3H324.6z M324.4,623.4v-2.6h-2.6v2.6H324.4z M326.4,685v-3.6h-3.6v3.6
			H326.4z M326.4,694.6V691h-3.6v3.6H326.4z M327.5,532.1v-3.6h-3.6v3.6H327.5z M327.2,541.5v-3h-3v3H327.2z M327.1,551v-2.6h-2.6
			v2.6H327.1z M329.7,609.4v-3.6h-3.6v3.6H329.7z M329.4,618.7v-3.2h-3.2v3.2H329.4z M331,680.1v-3.6h-3.6v3.6H331z M331.2,689.7
			v-3.6h-3.6v3.6H331.2z M331.2,699.3v-3.6h-3.6v3.6H331.2z M332.3,537v-3.6h-3.6v3.6H332.3z M332.1,546.3v-3.2h-3.2v3.2H332.1z
			 M334.4,604.5V601h-3.6v3.6H334.4z M334.4,614.1v-3.6h-3.6v3.6H334.4z M334.2,623.5v-3h-3v3H334.2z M335.9,685v-3.6h-3.6v3.6
			H335.9z M336,694.6V691h-3.6v3.6H336z M337.1,532.1v-3.6h-3.6v3.6H337.1z M337.1,541.7v-3.6h-3.6v3.6H337.1z M336.8,551.1v-3h-3v3
			H336.8z M339.3,609.4v-3.6h-3.6v3.6H339.3z M339.3,619v-3.6h-3.6v3.6H339.3z M340.6,680.1v-3.6h-3.6v3.6H340.6z M340.6,689.7v-3.6
			h-3.6v3.6H340.6z M340.8,699.3v-3.6h-3.6v3.6H340.8z M341.9,537v-3.6h-3.6v3.6H341.9z M341.9,546.6v-3.6h-3.6v3.6H341.9z
			 M344.1,614.1v-3.6h-3.6v3.6H344.1z M344.1,623.7v-3.6h-3.6v3.6H344.1z M345.5,685v-3.6h-3.6v3.6H345.5z M345.5,694.6V691h-3.6
			v3.6H345.5z M346.7,532.1v-3.6h-3.6v3.6H346.7z M346.7,541.7v-3.6h-3.6v3.6H346.7z M346.7,551.3v-3.6h-3.6v3.6H346.7z M348.9,619
			v-3.6h-3.6v3.6H348.9z M350.1,680.1v-3.6h-3.6v3.6H350.1z M350.2,689.7v-3.6h-3.6v3.6H350.2z M350.2,699.3v-3.6h-3.6v3.6H350.2z
			 M351.6,537v-3.6H348v3.6H351.6z M351.6,546.6v-3.6H348v3.6H351.6z M353.7,623.7v-3.6h-3.6v3.6H353.7z M355,685v-3.6h-3.6v3.6H355
			z M355.1,694.6V691h-3.6v3.6H355.1z M356.3,541.7v-3.6h-3.6v3.6H356.3z M356.3,551.3v-3.6h-3.6v3.6H356.3z M359.7,689.7v-3.6h-3.6
			v3.6H359.7z M359.9,699.3v-3.6h-3.6v3.6H359.9z M361.2,546.6v-3.6h-3.6v3.6H361.2z M364.6,694.6V691H361v3.6H364.6z M365.9,551.3
			v-3.6h-3.6v3.6H365.9z M369.3,699.3v-3.6h-3.6v3.6H369.3z"/>
	</g>
	<g>
		<path class="st2" d="M407.9,675H449l27.5,26.2h-40.4L407.9,675z M470,555.8h-4.7v-4.7h-4.7v-4.7h-4.6v-4.6h-4.7V537H449v-4.9h1.4
			v-3.8h29.1c15.5,0,26.2,10.5,27.5,23.6h-36.7v3.7h3.6v4.9H470V555.8z M449,542.3h1.7v3.3H449V542.3z M449,552.5h0.8v1.6H449V552.5
			z M472.6,646h-4.7v-4.7h-4.7v-4.6h-4.6v-4.7h-4.9v-4.6h-4.5v-4.9h3.9v-4.3H449v-2.6h24.6l13.4,22.2h-10.5v4.3h-3.6v3.7h3.6v4.9
			h-3.8V646z M450,632.4h3.3v3.3H450V632.4z M450.8,642.7h1.6v1.6h-1.6V642.7z M455.1,536.7v-3.7h-3.7v3.7H455.1z M452,547h3.4v3.3
			H452V547z M452.9,557.1h1.6v1.7h-1.6V557.1z M457.8,626.9v-3.7H454v3.7H457.8z M454.6,637.2h3.3v3.3h-3.3V637.2z M455.5,647.4h1.6
			v1.6h-1.6V647.4z M459.9,541.5v-3.7h-3.7v3.7H459.9z M459.4,531.5v-2.6h-2.6v2.6H459.4z M456.7,551.6h3.3v3.4h-3.3V551.6z
			 M457.6,561.9h1.6v1.6h-1.6V561.9z M462.4,631.6V628h-3.6v3.7H462.4z M459.4,641.8h3.3v3.4h-3.3V641.8z M460.1,652h1.7v1.6h-1.7
			V652z M464.5,546.1v-3.6h-3.7v3.6H464.5z M464.1,536.7v-2.6h-2.6v2.6H464.1z M461.5,556.3h3.3v3.3h-3.3V556.3z M462.2,566.6h1.6
			v1.6h-1.6V566.6z M467.1,636.4v-3.7h-3.7v3.7H467.1z M464,646.5h3.4v3.3H464V646.5z M464.9,656.8h1.6v1.6h-1.6V656.8z
			 M469.2,550.8v-3.7h-3.7v3.7H469.2z M466.1,561.1h3.4v3.3h-3.4V561.1z M469.1,531.5v-2.6h-2.6v2.6H469.1z M469.1,541.3v-2.6h-2.6
			v2.6H469.1z M467,571.2h1.6v1.7H467V571.2z M471.9,641v-3.6h-3.7v3.6H471.9z M468.7,651.3h3.3v3.3h-3.3V651.3z M469.6,661.4h1.6
			v1.7h-1.6V661.4z M470.8,565.7h3v3.3h-3V565.7z M473.8,536.7v-2.6h-2.6v2.6H473.8z M474.1,546.5v-2.6h-2.6v2.6H474.1z M471.6,576
			h1.7v1.6h-1.7V576z M473.4,655.9h3v3.4h-3V655.9z M474.2,666.1h1.6v1.6h-1.6V666.1z M478.8,541.3v-2.6h-2.6v2.6H478.8z
			 M478.8,551.2v-2.6h-2.6v2.6H478.8z M478.4,531.1v-1.8h-1.8v1.8H478.4z M483.8,546.5v-2.6h-2.6v2.6H483.8z M483.2,536.3v-1.8h-1.8
			v1.8H483.2z M488.6,551.2v-2.6h-2.6v2.6H488.6z M488.1,540.9v-1.7h-1.7v1.7H488.1z M493.2,546.1v-1.8h-1.8v1.8H493.2z
			 M492.8,535.9v-1.3h-1.3v1.3H492.8z M497.8,550.8v-1.7h-1.7v1.7H497.8z M497.8,540.7v-1.3h-1.3v1.3H497.8z M502.8,545.8v-1.3h-1.3
			v1.3H502.8z M509.2,675h49.2l40.7,26.2h-47.9L509.2,675z M547.8,627.2h-5.4v-4.6h-4.7v-4.3h-4.9v-3.8h-5v-3.9h-5.1v-4.6h-4.7v3.9
			l-2.2-3.6c5-3,9.5-6.6,13.6-10.5v3.4h3.7v-3.7h-3.4c1.4-1.4,2.8-2.9,4.1-4.3v3.7h4.5v-4.3h4.6v4.6h-4.3v4.3h4.3v-4.2h4.6v4.6h-4.3
			v4.3h4.5v-4.3h4.6v4.6h-4.3v4.5h4.5v-4.3h4.5v4.6h-4.2v4.3h4.3v-4.2h4.6v3.8l-0.7,0.8H557v3.7l-1.4,1.3h-2.9v2.4
			c-1.2,0.9-2.2,1.7-3.4,2.5h-1.6v3.2h2.5l2.1,3.3v0.3h-4.5V627.2z M518.5,610.6h3.7v4.3h-1.1L518.5,610.6z M523.1,618.1v-3.4h4v3.9
			h-3.6L523.1,618.1z M527.5,603.5v-2.9h-2.9v2.9H527.5z M528.3,618.9h3.6v3.6h-3.6V618.9z M529.1,627.8h1.7v2.6L529.1,627.8z
			 M532.3,608.2v-2.9h-2.8v2.9H532.3z M533.3,623.4h3.2v3.2h-3.2V623.4z M533.6,631.8h2.1v2.1h-2.1V631.8z M537.7,603.7v-3.7H534
			v3.7H537.7z M537.9,585.4v4.9h-3.7C535.3,589,537.1,586.5,537.9,585.4z M537.1,612.8v-2.8h-2.9v2.8H537.1z M538.2,627.4h2.9v2.9
			h-2.9V627.4z M538.3,584.8l2.1-3.3h1.8v3.8h-4V584.8z M542.3,608.5v-3.7h-3.6v3.7H542.3z M542,617.4v-3h-3.2v3H542z M539.3,635.5
			h1.4v1.4h-1.4V635.5z M543.1,586.1h3.8v3.8h-3.8V586.1z M547,613.2v-3.7h-3.7v3.7H547z M543.5,577.1h3v3h-3V577.1z M546.9,622.2
			V619h-3.3v3.2H546.9z M543.9,631.4h2.5v2.5h-2.5V631.4z M546.2,568.5v2h-0.7L546.2,568.5z M547.8,590.8h3.8v3.8h-3.8V590.8z
			 M551.8,617.8v-3.7h-3.7v3.7H551.8z M548.2,581.8h3v3.2h-3V581.8z M548.5,572.8h2.4v2.4h-2.4V572.8z M548.9,563.7h1.7v1.7h-1.7
			V563.7z M549,635.1h2.1v2.1H549V635.1z M549.1,554.8h1.1v1.1h-1.1V554.8z M552.4,595.6h4v3.8h-4V595.6z M552.8,586.5h3.2v3.2h-3.2
			V586.5z M553.1,631.3l1.8,2.8h-2L553.1,631.3z M553.2,577.5h2.4v2.4h-2.4V577.5z M553.6,568.5h1.6v1.7h-1.6V568.5z M553.9,559.4
			h1.2v1.2h-1.2V559.4z M554.7,638.8h1.4v1.4h-1.4V638.8z M557.2,600.2h3.8v3.8h-3.8V600.2z M557.6,591.2h3v3h-3V591.2z
			 M557.9,582.2h2.4v2.4h-2.4V582.2z M558.2,573.2h1.7v1.6h-1.7V573.2z M558.5,564h1.2v1.2h-1.2V564z M561.9,604.9h3.8v2.5l-0.9,1.3
			h-2.9V604.9z M562.2,595.8h3.2v3.2h-3.2V595.8z M562.6,586.9h2.4v2.4h-2.4V586.9z M563,577.8h1.6v1.7H563V577.8z M563.2,568.7h1.2
			v1.2h-1.2V568.7z M566.9,600.6h2.8l-1.7,3.2h-1.1V600.6z M567.3,591.6h2.4v2.2h-2.4V591.6z M567.7,582.5h1.6v1.6h-1.6V582.5z
			 M568,573.5h1.1v1.1H568V573.5z M572.3,587.3h1.7l-0.3,1.6h-1.4V587.3z M572.6,578.1h1.2v1.2h-1.2V578.1z"/>
	</g>
	<g>
		<path class="st2" d="M536.7,935.3h4.7v4.7h2.4l-2.6,1.6v-1.4h-4.2v3.8l-2.4,1.2h-2v0.9c-2,0.8-3.9,1.6-6.1,2.2v-2.9h-3v3h2.5
			c-4.7,1.6-9.3,2.4-14.1,3.2v-0.9h-2v1.2c-2.8,0.4-8,0.7-11.3,0.7c-28.2,0-45.5-6.8-58.4-13.3L414,913.1
			c13.4,6.4,31.6,13.3,61.1,13.3c8.7,0,17.5-1.2,25-3.3v2h3v-2.9c3.6-1.3,7-2.6,10.3-4.3v3.2h4.3v-4.2h-2.4l2.6-1.6v1.4h4.6v4.6h4.7
			v4.7h4.7v4.6h4.6V935.3z M422.6,825l0.9,1.1C423.1,825.7,422.8,825.4,422.6,825z M423.5,826.1c3.8,4.2,9.1,8.3,14.5,11.2h-0.3v1.8
			h1.8v-0.9c13.3,7.1,27.5,10.7,39.9,14.6v0.9h2.8c1.7,0.7,3.3,1.2,4.7,1.8H484v2.9h2.9v-2.9c4.2,1.6,8.6,3.8,11.1,6.2v1.6h1.4
			c1.6,1.8,2.5,4.1,2.5,6.7c0,3.8-1.7,6.2-3.7,8.2l-1.7-0.7v-3.4h-3.3v2.2l-10.9-3.9v-2.9h-3v1.8c-3.7-1.2-7.6-2.8-11.2-4.2V865
			h-2.8v0.9c-5.7-2.6-12-6.7-15.9-10.5C440.1,846.3,431,834.5,423.5,826.1z M444.3,841.9h-2v2.1h2V841.9z M446.9,848.7h2.1v-2.2
			h-2.1V848.7z M451.5,853.4h2.4v-2.2h-2.4V853.4z M455.6,788.4H454l0.7-1.6h0.9V788.4z M456.1,858.2h2.5v-2.4h-2.5V858.2z
			 M456.3,848.7h2.2v-2.2h-2.2V848.7z M461.3,784.7h-3.8V783l2.6-2.1h0.8v-0.5c2.6-1.6,5.5-2.6,6.5-2.9v2.1h2.8v-2.8h-0.8
			c4.9-1.3,10.5-2.1,16.8-2.1c15.5,0,33.6,6.1,46.6,14.1l26.2,26.2c-12.8-8.7-31.7-15.4-45.8-15.4c-9,0-14.1,1.1-19.7,3v-2.4h-2.6
			v2.8h1.6c-1.2,0.5-2.4,1.1-3.6,1.7h-4v2.8l-0.8,0.7h-3v-3.8h3.3v-4.2h-4.2v3.3h-3.8v-3.8h3.4v-4.2h-4.3v3.4h-3.8V795h3.4v-4.3
			h-4.2v3.4h-3.8v-3.8h3.4V786H466v3.4h-3.8v-3.8h3.4v-4.3h-4.3V784.7z M458.6,793v-1.6h1.6v1.6H458.6z M460.7,862.9h2.6v-2.5h-2.6
			V862.9z M460.9,853.4h2.4v-2.4h-2.4V853.4z M463.4,797.6v-1.4h1.4v1.4H463.4z M465.5,858.3h2.6v-2.6h-2.6V858.3z M468,802.4v-1.6
			h1.6v1.6H468z M470.1,863h2.8v-2.8h-2.8V863z M470.2,853.6h2.5v-2.6h-2.5V853.6z M471.9,784.3h2.9v-2.9h-2.9V784.3z M472.7,807
			v-1.4h1.6v1.4H472.7z M474.7,867.8h2.9v-2.9h-2.9V867.8z M474.8,858.3h2.8v-2.6h-2.8V858.3z M476.7,788.9h2.8v-2.8h-2.8V788.9z
			 M476.8,779.5h2.5V777h-2.5V779.5z M478.8,927.7h-1.3v1.2h1.3V927.7z M479.4,863h2.9v-2.8h-2.9V863z M481.4,793.7h2.8v-2.8h-2.8
			V793.7z M481.5,784.1h2.5v-2.4h-2.5V784.1z M483.4,932.3h-1.2v1.3h1.2V932.3z M484,867.9h3v-3h-3V867.9z M486,798.4h2.9v-2.9H486
			V798.4z M486.3,788.8h2.4v-2.5h-2.4V788.8z M486.4,779.2h1.3V778h-1.3V779.2z M488.4,927.3h-1.8v1.8h1.8V927.3z M488.1,937h-1.2
			v1.2h1.2V937z M488.6,863.2h3.2v-3h-3.2V863.2z M488.6,872.7h3.2v-3.2h-3.2V872.7z M490.9,793.5h2.5V791h-2.5V793.5z M491.1,783.9
			h1.2v-1.3h-1.2V783.9z M493.1,932h-1.8v1.8h1.8V932z M492.9,941.8h-1.3v1.2h1.3V941.8z M493.4,867.9h3.2v-3.2h-3.2V867.9z
			 M495.6,798.2h2.5v-2.4h-2.5V798.2z M498.1,927h-2.5v2.5h2.5V927z M495.7,788.7h1.3v-1.3h-1.3V788.7z M497.9,936.6H496v2h1.8
			V936.6z M497.5,946.4h-1.2v1.2h1.2V946.4z M498,872.7h3.3v-3.3H498V872.7z M502.7,931.8h-2.4v2.4h2.4V931.8z M500.5,793.3h1.3
			v-1.2h-1.3V793.3z M502.5,941.4h-1.8v1.8h1.8V941.4z M502.2,951.1H501v1.2h1.2V951.1z M507.7,926.8h-3v3h3V926.8z M507.5,936.4
			H505v2.5h2.5V936.4z M505.2,798h1.2v-1.3h-1.2V798z M507.2,946.1h-1.8v1.8h1.8V946.1z M512.7,921.8h-3.6v3.6h3.6V921.8z
			 M512.5,931.4h-3v3.2h3V931.4z M512.2,941.1h-2.5v2.5h2.5V941.1z M517.5,926.5h-3.7v3.6h3.7V926.5z M517.2,936.1H514v3h3.2V936.1z
			 M516.8,945.8h-2.4v2.4h2.4V945.8z M522.5,921.5h-4.2v4.2h4.2V921.5z M522.1,931.1h-3.6v3.7h3.6V931.1z M521.8,940.8h-3v3h3V940.8
			z M522.7,916.5v-4.3h4.3v4.3H522.7z M527.1,926.2h-4.2v4.1h4.2V926.2z M526.8,935.8h-3.6v3.6h3.6V935.8z M531.7,921.2h-4.3v-4.3
			h4.3V921.2z M527.6,911.9v-3.8h3.8v3.8H527.6z M531.8,930.8h-4.2v4.2h4.2V930.8z M531.6,940.6h-3.7v3.6h3.7V940.6z M532.1,921.5
			h4.3v4.3h-4.3V921.5z M532.3,912.4h3.8v3.8h-3.8V912.4z M536.4,935.6h-4.1v4.2h4.1V935.6z M535.9,903.2v3.4h-3.3v-3.4H535.9z
			 M541.2,930.6h-4.5v-4.3h4.5V930.6z M536.9,917h4v3.9h-4V917z M537.2,907.9h3.4v3.4h-3.4V907.9z M537.5,898.9h2.9v2.8h-2.9V898.9z
			 M540.2,890v2h-0.9L540.2,890z M541.4,930.8h4.3v4.5h-4.3V930.8z M541.7,921.8h4v3.9h-4V921.8z M542,912.7h3.4v3.3H542V912.7z
			 M542.2,903.5h2.9v2.9h-2.9V903.5z M542.5,894.4h2.4v2.4h-2.4V894.4z M544.6,885.2v2h-2v-2H544.6z M546.2,935.6h3.4l-3.4,2.8
			V935.6z M546.4,926.5h3.8v3.8h-3.8V926.5z M546.7,917.3h3.3v3.4h-3.3V917.3z M547,908.2h2.8v2.9H547V908.2z M547.1,899h2.5v2.5
			h-2.5V899z M547.3,889.9h2v2h-2V889.9z M547.5,880.7h1.6v1.6h-1.6V880.7z M548.9,871.5v1.2h-1.2v-1.2H548.9z M551,931.1h3l-3,3.2
			V931.1z M551.3,922h3.4v3.4h-3.4V922z M551.6,912.9h2.9v2.8h-2.9V912.9z M551.8,903.7h2.4v2.4h-2.4V903.7z M552,894.5h2.1v2.1H552
			V894.5z M552.2,885.4h1.6v1.6h-1.6V885.4z M553.7,876.2v1.2h-1.2v-1.2H553.7z M556,926.8h1.7L556,929V926.8z M556.3,917.5h2.9v2.9
			h-2.9V917.5z M556.4,908.5h2.5v2.4h-2.5V908.5z M556.7,899.2h2v2h-2V899.2z M557,890h1.6v1.6H557V890z M558.3,881v1.2h-1.2V881
			H558.3z M561.2,913.1h2.5v2.5h-2.5V913.1z M563.4,906h-2v-2h2V906z M563.1,896.4h-1.6v-1.6h1.6V896.4z M563,886.7h-1.2v-1.2h1.2
			V886.7z M566,908.6h0.5l-0.5,1.8V908.6z M567.9,899.5v1.6h-1.6v-1.6H567.9z M567.6,891.5h-1.2v-1.2h1.2V891.5z"/>
	</g>
	<g>
		<path class="st2" d="M18.8,184.3h133.6l26.2,26.2H45L18.8,184.3z M84.4,51.7h-4.7V47h-4.7v-4.7h-4.7v-4.7h-4.7v-4.7H61v-4.9h4.3
			v-4.3h-4.9V0L88,26.2V29h-2.8v3.2H88V38h-3v3.8h3v5.4h-3.4v4.3H88v4.9h-3.6V51.7z M74.3,188.6v-1.3H73v1.3H74.3z M61,37.6h4.3V42
			H61V37.6z M65,18.2v-3.8h-3.8v3.8H65z M61.2,47.3h3.9v3.9h-3.9V47.3z M64.8,8.4V5.3h-3.3v3.2H64.8z M61.5,56.9h3.4v3.4h-3.4V56.9z
			 M61.8,66.5h2.9v2.9h-2.9V66.5z M62,76.2h2.4v2.4H62V76.2z M62.3,85.8h1.8v1.8h-1.8V85.8z M62.5,95.4h1.3v1.3h-1.3V95.4z M70,32.6
			v-4.3h-4.5v4.3H70z M79.1,193.5v-1.3h-1.3v1.3H79.1z M65.7,42.4H70v4.3h-4.3V42.4z M69.8,22.9v-3.8h-3.9v3.8H69.8z M66,52h4v3.8
			h-4V52z M69.5,13.2V10h-3.4v3.2H69.5z M66.2,61.6h3.4V65h-3.4V61.6z M66.5,71.2h2.9v2.9h-2.9V71.2z M66.8,80.8h2.4v2.4h-2.4V80.8z
			 M67,90.6h1.8v1.8H67V90.6z M67.3,100.2h1.3v1.3h-1.3V100.2z M84.2,188.8v-1.6h-1.7v1.6H84.2z M74.8,37.4V33h-4.5v4.3H74.8z
			 M83.9,198.2v-1.3h-1.3v1.3H83.9z M70.4,47.1h4.3v4.3h-4.3V47.1z M74.5,27.6v-3.8h-3.8v3.8H74.5z M70.7,56.6h3.8v3.9h-3.8V56.6z
			 M74.3,17.9v-3.2H71v3.2H74.3z M71,66.3h3.3v3.3H71V66.3z M71.1,76H74v2.9h-2.9V76z M71.4,85.6h2.4v2.4h-2.4V85.6z M71.6,95.2h1.8
			V97h-1.8V95.2z M71.9,104.9h1.3v1.3h-1.3V104.9z M79.5,42.1v-4.3h-4.5v4.3H79.5z M88.9,193.5v-1.6h-1.6v1.6H88.9z M75.2,51.9h4.3
			v4.3h-4.3V51.9z M88.8,203.1v-1.3h-1.3v1.3H88.8z M75.3,61.3h3.9v3.9h-3.9V61.3z M79.3,32.4v-3.8h-3.8v3.8H79.3z M75.6,71H79v3.4
			h-3.4V71z M79,22.6v-3.2h-3.3v3.2H79z M75.8,80.6h2.9v2.9h-2.9V80.6z M76.1,90.3h2.4v2.4h-2.4V90.3z M76.4,99.9h1.8v1.8h-1.8V99.9
			z M76.6,109.5h1.3v1.3h-1.3V109.5z M94,189v-2.1h-2.1v2.1H94z M84.3,46.9v-4.3h-4.5v4.3H84.3z M93.8,198.4v-1.6H92v1.6H93.8z
			 M79.9,56.6h4.3v4.3h-4.3V56.6z M93.5,207.9v-1.3h-1.3v1.3H93.5z M80.1,66.1h3.8v3.8h-3.8V66.1z M84,37.1v-3.8h-3.8v3.8H84z
			 M80.3,75.7h3.4v3.4h-3.4V75.7z M83.7,27.4v-3.2h-3.3v3.2H83.7z M80.6,85.3h2.9v2.9h-2.9V85.3z M80.8,94.9h2.4v2.4h-2.4V94.9z
			 M81.1,104.7h1.8v1.8h-1.8V104.7z M81.4,114.3h1.3v1.3h-1.3V114.3z M98.8,193.8v-2.1h-2.1v2.1H98.8z M84.7,61.3H88v4.3h-3.3V61.3z
			 M98.5,203.1v-1.6h-1.6v1.6H98.5z M84.8,70.7H88v3.9h-3.2V70.7z M84.9,80.3h3v3.4h-3V80.3z M85.2,90H88v2.9h-2.8V90z M85.5,99.6
			h2.4v2.4h-2.4V99.6z M85.7,109.3h1.8v1.8h-1.8V109.3z M86,118.9h1.3v1.3H86V118.9z M103.9,189.2v-2.5h-2.6v2.5H103.9z
			 M103.6,198.6v-2.1h-2.1v2.1H103.6z M103.4,208v-1.6h-1.7v1.6H103.4z M108.6,194v-2.6H106v2.6H108.6z M108.4,203.4v-2.1h-2.1v2.1
			H108.4z M113.6,189.4v-3h-3v3H113.6z M113.5,198.9v-2.6h-2.6v2.6H113.5z M113.2,208.2v-2.1h-2.1v2.1H113.2z M118.5,194.3v-3.2
			h-3.2v3.2H118.5z M118.2,203.6V201h-2.6v2.6H118.2z M123.5,189.7v-3.6H120v3.6H123.5z M123.2,199v-3h-3v3H123.2z M123.1,208.5
			v-2.6h-2.6v2.6H123.1z M128.4,194.6V191h-3.6v3.6H128.4z M128.1,203.9v-3.2H125v3.2H128.1z M133.1,199.3v-3.6h-3.6v3.6H133.1z
			 M133.3,189.7v-3.6h-3.6v3.6H133.3z M132.9,208.6v-3h-3v3H132.9z M138,204.2v-3.6h-3.6v3.6H138z M138.1,194.6V191h-3.6v3.6H138.1z
			 M142.7,189.7v-3.6h-3.6v3.6H142.7z M142.7,208.9v-3.6h-3.6v3.6H142.7z M142.9,199.3v-3.6h-3.6v3.6H142.9z M147.6,194.6V191H144
			v3.6H147.6z M147.7,204.2v-3.6h-3.6v3.6H147.7z M152.3,189.7v-3.6h-3.6v3.6H152.3z M152.3,199.3v-3.6h-3.6v3.6H152.3z
			 M152.5,208.9v-3.6h-3.6v3.6H152.5z M157.2,194.6V191h-3.6v3.6H157.2z M157.2,204.2v-3.6h-3.6v3.6H157.2z M161.9,199.3v-3.6h-3.6
			v3.6H161.9z M161.9,208.9v-3.6h-3.6v3.6H161.9z M166.8,204.2v-3.6h-3.6v3.6H166.8z M171.6,208.9v-3.6H168v3.6H171.6z"/>
	</g>
	<g>
		<path class="st1" d="M163.6,375.4H60.4l-13.6,36.5h-3.4l55.4-149.1h26.3l55.4,149.1h-3.4L163.6,375.4z M162.4,372.2l-39.4-106.4
			H101L61.6,372.2H162.4z"/>
	</g>
	<g>
		<path class="st1" d="M343.5,263.1l-55.7,88.5v60.3h-3.2v-60.4l-55.4-88.3h3.7l53.3,85.6l53.6-85.6H343.5z"/>
	</g>
	<g>
		<path class="st1" d="M332.7,654.4v3.2H244V507.8h85v3.2h-81.9v68.7h69.5v3.2h-69.5v71.6H332.7z"/>
	</g>
	<g>
		<path class="st1" d="M488.4,598.2l36.2,59H521L485,598.6c-1.6,0.1-3.3,0.1-5,0.1h-50v58.4h-3.2V507.9H480
			c29.1,0,49.5,18.7,49.5,45.4C529.5,577.4,512.9,594.9,488.4,598.2z M480,595.6c27.4,0,46.2-17.2,46.2-42.3
			c0-25-18.8-42.3-46.2-42.3h-50v84.5H480z"/>
	</g>
	<g>
		<path class="st1" d="M525.1,868.6c0,25-19.6,39.6-52.7,39.6c-15.4,0-28.7-2.4-40.7-7.2v-3.4c11.8,5,25,7.5,40.7,7.5
			c31.3,0,49.4-13.4,49.4-36.5c0-25-21.5-30.7-44-36.5c-22.8-5.9-46.6-11.8-46.6-38.4c0-24.9,20.7-40.3,53.6-40.3
			c11.5,0,22.8,2.8,30.1,5.8v3.4c-8.6-3.7-20.1-6.1-30.1-6.1c-31.2,0-50.3,14.2-50.3,37.1c0,24.2,21.3,29.4,44.1,35.3
			C501.3,834.7,525.1,841.2,525.1,868.6z"/>
	</g>
	<g>
		<g>
			<path class="st1" d="M38.1,17.8h3.2V163h93.5v3.2H38.1V17.8z"/>
		</g>
	</g>
</g>
<g>
	<g>
		<path class="st1" d="M219.8,804.2h-5l-0.5,6.9h-3.9l4.5-57h5.4l4.5,57h-4.3L219.8,804.2z M215.1,800.6h4.5l-1-13
			c-0.6-7.7-1-15.5-1.3-23.1c-0.3,7.7-0.8,15.5-1.3,23.1L215.1,800.6z"/>
		<path class="st1" d="M242.7,754.1h6.1c3.3,0,6.6,1.1,6.6,6.4v44.1c0,5.4-3.3,6.4-6.6,6.4h-6.1V754.1z M247,757.8v49.7h1.6
			c1.9,0,2.6-0.7,2.6-2.7v-44.3c0-2-0.7-2.7-2.6-2.7H247z"/>
		<path class="st1" d="M265.9,807.5h5.9v3.7h-10.1v-57h10v3.7h-5.8v21.8h5v3.7h-5V807.5z"/>
		<path class="st1" d="M281.3,805.4c0,1.7,0.6,2.6,2.1,2.6c1.5,0,2.1-0.9,2.1-2.6v-8.3c0-14-8.2-15.6-8.2-31.5v-5.2
			c0-4.7,2.2-6.8,6.3-6.8c4,0,6.2,2.1,6.2,6.8v13h-4v-13.5c0-1.7-0.6-2.6-2.1-2.6c-1.5,0-2.1,0.9-2.1,2.6v6.4
			c0,14,8.2,15.6,8.2,31.5v7.1c0,4.7-2.2,6.8-6.3,6.8c-4,0-6.2-2.1-6.2-6.8v-14.7h4V805.4z"/>
		<path class="st1" d="M295.7,754.1h4.2v57h-4.2V754.1z"/>
		<path class="st1" d="M314.6,783.6h-2.2v-3.7h6.3v31.2h-2.2l-0.4-2c-0.8,1.8-2.5,2.5-4.6,2.5c-3.2,0-5.5-1.8-5.5-6.8v-44.5
			c0-4.7,2.3-6.8,6.4-6.8c4,0,6.3,2.1,6.3,6.8v15.8h-4v-16.4c0-1.7-0.7-2.6-2.2-2.6c-1.5,0-2.2,0.9-2.2,2.6v45.6
			c0,1.7,0.7,2.6,2.1,2.6c1.5,0,2.3-0.9,2.3-2.6V783.6z"/>
		<path class="st1" d="M338.2,754.1v57h-4.3l-4.3-30.9c-0.6-3.8-1.2-9.9-1.6-13.8c0.1,4,0.4,10.2,0.4,13.8v30.8h-3.7v-57h5.4
			l3.3,24.5c0.5,3.5,1.1,10.2,1.6,14.1c-0.2-3.9-0.4-10.6-0.4-14.3v-24.3H338.2z"/>
		<path class="st1" d="M217.7,873c1.5,0,2.2-0.9,2.2-2.6v-18.7h4v18.1c0,4.7-2.3,6.8-6.3,6.8c-4.1,0-6.4-2.1-6.4-6.8v-44.5
			c0-4.7,2.3-6.8,6.4-6.8c4,0,6.3,2.1,6.3,6.8v16.5h-4v-17c0-1.7-0.7-2.6-2.2-2.6c-1.5,0-2.2,0.9-2.2,2.6v45.6
			C215.5,872.1,216.2,873,217.7,873z"/>
		<path class="st1" d="M229.8,825.3c0-4.7,2.4-6.8,6.4-6.8c4.1,0,6.4,2.1,6.4,6.8v44.5c0,4.7-2.4,6.8-6.4,6.8
			c-4.1,0-6.4-2.1-6.4-6.8V825.3z M236.2,873c1.5,0,2.2-0.9,2.2-2.6v-45.6c0-1.7-0.7-2.6-2.2-2.6c-1.5,0-2.2,0.9-2.2,2.6v45.6
			C234,872.1,234.7,873,236.2,873z"/>
		<path class="st1" d="M262.3,819.1v57H258l-4.3-30.9c-0.6-3.8-1.2-9.9-1.6-13.8c0.1,4,0.4,10.2,0.4,13.8v30.8h-3.7v-57h5.4
			l3.3,24.5c0.5,3.5,1.1,10.2,1.6,14.1c-0.2-3.9-0.4-10.6-0.4-14.3v-24.3H262.3z"/>
		<path class="st1" d="M272.7,876.1h-4.2v-57h9.8v3.7h-5.5v22.8h4.7v3.7h-4.7V876.1z"/>
		<path class="st1" d="M288,872.4h5.9v3.7h-10.1v-57h10v3.7H288v21.8h5v3.7h-5V872.4z"/>
		<path class="st1" d="M303.9,849.4v26.6h-4.2v-57h6.2c3.3,0,6.6,1.1,6.6,6.4v16.8c0,3.3-1.2,4.7-2.9,5.4c1.7,0.6,2.9,2.1,2.9,5.4
			v13.9c0,6.4,0.4,8,1,9.1h-4.6c-0.3-0.8-0.7-2-0.7-5.3v-17.5c0-2.9-0.8-3.8-3.3-3.8H303.9z M305.6,845.8c1.9,0,2.6-0.7,2.6-2.5
			v-17.9c0-2-0.7-2.7-2.6-2.7h-1.7v23.1H305.6z"/>
		<path class="st1" d="M323.4,872.4h5.9v3.7h-10.1v-57h10v3.7h-5.8v21.8h5v3.7h-5V872.4z"/>
		<path class="st1" d="M348.6,819.1v57h-4.3l-4.3-30.9c-0.6-3.8-1.2-9.9-1.6-13.8c0.1,4,0.4,10.2,0.4,13.8v30.8h-3.7v-57h5.4
			l3.3,24.5c0.5,3.5,1.1,10.2,1.6,14.1c-0.2-3.9-0.4-10.6-0.4-14.3v-24.3H348.6z"/>
		<path class="st1" d="M361.2,873c1.5,0,2.2-0.9,2.2-2.6v-18.7h4v18.1c0,4.7-2.3,6.8-6.3,6.8c-4.1,0-6.4-2.1-6.4-6.8v-44.5
			c0-4.7,2.3-6.8,6.4-6.8c4,0,6.3,2.1,6.3,6.8v16.5h-4v-17c0-1.7-0.7-2.6-2.2-2.6c-1.5,0-2.2,0.9-2.2,2.6v45.6
			C359,872.1,359.6,873,361.2,873z"/>
		<path class="st1" d="M377.6,872.4h5.9v3.7h-10.1v-57h10v3.7h-5.8v21.8h5v3.7h-5V872.4z"/>
		<path class="st1" d="M215.9,941h-4.2v-57h9.8v3.7h-5.5v22.8h4.7v3.7h-4.7V941z"/>
		<path class="st1" d="M226.8,890.2c0-4.7,2.4-6.8,6.4-6.8c4.1,0,6.4,2.1,6.4,6.8v44.5c0,4.7-2.4,6.8-6.4,6.8
			c-4.1,0-6.4-2.1-6.4-6.8V890.2z M233.2,937.9c1.5,0,2.2-0.9,2.2-2.6v-45.6c0-1.7-0.7-2.6-2.2-2.6c-1.5,0-2.2,0.9-2.2,2.6v45.6
			C231,937,231.7,937.9,233.2,937.9z"/>
		<path class="st1" d="M249.9,914.4V941h-4.2v-57h6.2c3.3,0,6.6,1.1,6.6,6.4v16.8c0,3.3-1.2,4.7-2.9,5.4c1.7,0.6,2.9,2.1,2.9,5.4
			v13.9c0,6.4,0.4,8,1,9.1h-4.6c-0.3-0.8-0.7-2-0.7-5.3v-17.5c0-2.9-0.8-3.8-3.3-3.8H249.9z M251.7,910.8c1.9,0,2.6-0.7,2.6-2.5
			v-17.9c0-2-0.7-2.7-2.6-2.7h-1.7v23.1H251.7z"/>
		<path class="st1" d="M288.2,887.6h-3.9V941h-4.2v-53.4h-3.9V884h12.1V887.6z"/>
		<path class="st1" d="M297.9,941h-4.2v-57h4.2v25.5h4.5V884h4.2v57h-4.2v-27.9h-4.5V941z"/>
		<path class="st1" d="M317.1,937.3h5.9v3.7h-10.1v-57h10v3.7h-5.8v21.8h5v3.7h-5V937.3z"/>
		<path class="st1" d="M219.8,999h-5l-0.5,6.9h-3.9l4.5-57h5.4l4.5,57h-4.3L219.8,999z M215.1,995.3h4.5l-1-13
			c-0.6-7.7-1-15.5-1.3-23.1c-0.3,7.7-0.8,15.5-1.3,23.1L215.1,995.3z"/>
		<path class="st1" d="M234.6,1005.9h-4.2v-57h6.1c3.3,0,6.6,1.1,6.6,6.4v19.8c0,5.4-3.3,6.4-6.6,6.4h-1.9V1005.9z M234.6,952.6
			v25.3h1.6c1.9,0,2.6-0.7,2.6-2.6v-20c0-2-0.7-2.7-2.6-2.7H234.6z"/>
		<path class="st1" d="M253.1,1005.9h-4.2v-57h6.1c3.3,0,6.6,1.1,6.6,6.4v19.8c0,5.4-3.3,6.4-6.6,6.4h-1.9V1005.9z M253.1,952.6
			v25.3h1.6c1.9,0,2.6-0.7,2.6-2.6v-20c0-2-0.7-2.7-2.6-2.7H253.1z"/>
		<path class="st1" d="M267.4,948.9h4.2v53.4h5.5v3.7h-9.8V948.9z"/>
		<path class="st1" d="M286.8,1002.3h5.9v3.7h-10.1v-57h10v3.7h-5.8v21.8h5v3.7h-5V1002.3z"/>
		<path class="st1" d="M217.7,1067.7c1.5,0,2.2-0.9,2.2-2.6v-18.7h4v18.1c0,4.7-2.3,6.8-6.3,6.8c-4.1,0-6.4-2.1-6.4-6.8v-44.5
			c0-4.7,2.3-6.8,6.4-6.8c4,0,6.3,2.1,6.3,6.8v16.5h-4v-17c0-1.7-0.7-2.6-2.2-2.6c-1.5,0-2.2,0.9-2.2,2.6v45.6
			C215.5,1066.9,216.2,1067.7,217.7,1067.7z"/>
		<path class="st1" d="M229.8,1020.1c0-4.7,2.4-6.8,6.4-6.8c4.1,0,6.4,2.1,6.4,6.8v44.5c0,4.7-2.4,6.8-6.4,6.8
			c-4.1,0-6.4-2.1-6.4-6.8V1020.1z M236.2,1067.7c1.5,0,2.2-0.9,2.2-2.6v-45.6c0-1.7-0.7-2.6-2.2-2.6c-1.5,0-2.2,0.9-2.2,2.6v45.6
			C234,1066.9,234.7,1067.7,236.2,1067.7z"/>
		<path class="st1" d="M259,1037.4l2.3-23.5h5.9v57h-4.2v-27c0-6.1,0.2-14,0.4-20.2c-0.5,6.2-1.1,14-1.6,20l-2.6,27.2h-3.1
			l-2.6-27.2c-0.6-6-1.1-13.8-1.6-20c0.1,6.2,0.4,14.1,0.4,20.2v27h-3.6v-57h6l2.3,23.5c0.4,4.6,0.7,10.1,0.9,15.2
			C258.2,1047.5,258.6,1041.9,259,1037.4z"/>
		<path class="st1" d="M283.7,1037.4l2.3-23.5h5.9v57h-4.2v-27c0-6.1,0.2-14,0.4-20.2c-0.5,6.2-1.1,14-1.6,20l-2.6,27.2h-3.1
			l-2.6-27.2c-0.6-6-1.1-13.8-1.6-20c0.1,6.2,0.4,14.1,0.4,20.2v27h-3.6v-57h6l2.3,23.5c0.4,4.6,0.7,10.1,0.9,15.2
			C282.9,1047.5,283.3,1041.9,283.7,1037.4z"/>
		<path class="st1" d="M304.6,1067.7c1.5,0,2.2-0.9,2.2-2.5v-51.4h3.9v51.1c0,4.5-2.2,6.5-6.3,6.5c-4,0-6.4-2-6.4-6.5v-51.1h4.2
			v51.4C302.3,1066.9,303.1,1067.7,304.6,1067.7z"/>
		<path class="st1" d="M330.4,1013.8v57h-4.3l-4.3-30.9c-0.6-3.8-1.2-9.9-1.6-13.8c0.1,4,0.4,10.2,0.4,13.8v30.8h-3.7v-57h5.4
			l3.3,24.5c0.5,3.5,1.1,10.2,1.6,14.1c-0.2-3.9-0.4-10.6-0.4-14.3v-24.3H330.4z"/>
		<path class="st1" d="M336.6,1013.8h4.2v57h-4.2V1013.8z"/>
		<path class="st1" d="M358.3,1017.5h-3.9v53.4h-4.2v-53.4h-3.9v-3.7h12.1V1017.5z"/>
		<path class="st1" d="M372.2,1013.8h3.8l-5.1,38.9v18.1h-4.2v-18.1l-5-38.9h4.3l2,17.2c0.4,3.3,0.9,8.4,1.1,12.9
			c0.2-4.5,0.7-9.6,1.1-12.9L372.2,1013.8z"/>
	</g>
</g>
<g>
	<path class="st1" d="M215.3,1107.1h-4.1v-2.6h7.4v11.3c0,3.2-2.1,5.3-5.4,5.3c-2.3,0-3.5-1-3.5-1l1.3-2.3c0,0,0.7,0.6,2,0.6
		c1.4,0,2.4-1,2.4-2.5V1107.1z"/>
	<path class="st1" d="M231.8,1119.9c0,0-2.4,1-4.6,1c-3.2,0-4.9-1.7-4.9-4v-7.9h3v7.9c0,0.8,0.7,1.5,2,1.5c0.8,0,1.6-0.3,1.6-0.3
		v-9.1h3V1119.9z"/>
	<path class="st1" d="M235.3,1109.5c0,0,2.4-0.9,4.6-0.9c3.2,0,4.9,1.7,4.9,4v7.9h-3v-7.9c0-0.8-0.7-1.5-2-1.5
		c-0.8,0-1.6,0.2-1.6,0.2v9.2h-3V1109.5z"/>
	<path class="st1" d="M250.7,1116.1c0,0,0.3,2.3,2.8,2.3c1.4,0,2.2-0.8,2.2-0.8l1.2,2.1c0,0-1,1.3-3.6,1.3c-3.3,0-5.6-2.3-5.6-6.2
		c0-4.1,2.1-6.2,4.9-6.2s4.9,2.1,4.9,6.2l-1.2,1.4H250.7z M250.7,1113.7h3.7c-0.1-1.7-1-2.6-1.8-2.6S250.9,1112,250.7,1113.7z"/>
	<path class="st1" d="M270.3,1112.9c-1.6,0-2.6,0.9-2.6,0.9l-1.8-1.3v-8.2h9.9v2.6H269v3.6c0,0,0.8-0.5,2.1-0.5c3,0,5.3,2.3,5.3,5.4
		s-2.3,5.4-6.2,5.4c-3.3,0-5.1-2.1-5.1-2.1l1.4-2.2c0,0,1.3,1.5,3.5,1.5c2.1,0,3.1-1,3.1-2.6S272,1112.9,270.3,1112.9z"/>
	<path class="st1" d="M287.7,1114h-8.7v-2.8h8.7V1114z"/>
	<path class="st1" d="M290,1120.5l4.8-13.3v-0.1H288v-2.6h10.2v2.6l-4.8,13.5H290z"/>
	<path class="st1" d="M309.8,1106.7c-2,0-3.2,1.3-3.2,1.3l-1.3-2.2c0,0,1.5-1.8,4.7-1.8c3.7,0,6,2.3,6,5.2c0,2.6-1.6,4.2-3.1,5.6
		l-3.5,3v0.1h6.7v2.6h-10.8v-2.6l5.5-5.1c1-1,1.8-1.8,1.8-3.7C312.7,1107.7,311.6,1106.7,309.8,1106.7z"/>
	<path class="st1" d="M318.5,1112.5c0-5.8,2.8-8.5,6.2-8.5c3.5,0,6.2,2.8,6.2,8.5c0,5.8-2.8,8.5-6.2,8.5
		C321.2,1121,318.5,1118.2,318.5,1112.5z M327.7,1112.5c0-4.3-1.5-5.8-3-5.8c-1.5,0-3,1.5-3,5.8s1.5,5.8,3,5.8
		C326.2,1118.2,327.7,1116.7,327.7,1112.5z"/>
	<path class="st1" d="M339.8,1104.4v16.1h-3.2v-12h-0.1l-2.1,2.1l-1.5-2.1l4.1-4.1H339.8z"/>
	<path class="st1" d="M344.5,1120.5l4.8-13.3v-0.1h-6.8v-2.6h10.2v2.6l-4.8,13.5H344.5z"/>
	<path class="st1" d="M221.2,1143.4c0,2.9-2.3,5.2-6.2,5.2c-3.3,0-5.1-2.1-5.1-2.1l1.4-2.2c0,0,1.3,1.5,3.5,1.5c2.1,0,3.1-1,3.1-2.4
		c0-2.9-7.2-1.4-7.2-7c0-2.6,2.2-4.8,5.5-4.8c3.2,0,4.7,1.8,4.7,1.8l-1.3,2.2c0,0-1.3-1.3-3.2-1.3c-1.5,0-2.4,0.9-2.4,2.1
		C214,1139.4,221.2,1138,221.2,1143.4z"/>
	<path class="st1" d="M232.8,1147.9c0,0-2.2,0.7-4.7,0.7c-3.1,0-4.7-1.6-4.7-4s1.6-4,4.6-4c1,0,1.8,0.2,1.8,0.2
		c0-1.4-0.7-2.1-1.8-2.1c-1.4,0-2.4,0.8-2.4,0.8l-1.2-2.1c0,0,1.5-1.3,3.7-1.3c2.9,0,4.7,1.8,4.7,5.1V1147.9z M228.1,1143.1
		c-1,0-1.6,0.6-1.6,1.5c0,0.9,0.6,1.5,1.6,1.5c0.9,0,1.7-0.2,1.7-0.2v-2.5C229.8,1143.3,229,1143.1,228.1,1143.1z"/>
	<path class="st1" d="M236.3,1137.1c0,0,2.4-0.9,4.6-0.9c3.2,0,4.9,1.7,4.9,4v7.9h-3v-7.9c0-0.8-0.7-1.5-2-1.5
		c-0.8,0-1.6,0.2-1.6,0.2v9.2h-3V1137.1z"/>
	<path class="st1" d="M259,1134.7h-4.1v-2.6h7.4v11.3c0,3.2-2.1,5.3-5.4,5.3c-2.3,0-3.5-1-3.5-1l1.3-2.3c0,0,0.7,0.6,2,0.6
		c1.4,0,2.4-1,2.4-2.5V1134.7z"/>
	<path class="st1" d="M270.6,1136.2c3,0,5.3,2.3,5.3,6.2c0,3.9-2.3,6.2-5.3,6.2c-3,0-5.3-2.3-5.3-6.2
		C265.3,1138.5,267.6,1136.2,270.6,1136.2z M270.6,1146.1c1.2,0,2.2-1,2.2-3.7c0-2.6-1-3.7-2.2-3.7c-1.2,0-2.2,1-2.2,3.7
		C268.4,1145,269.5,1146.1,270.6,1146.1z"/>
	<path class="st1" d="M281.7,1148.6c-2.8,0-4-1.5-4-1.5l1.2-2.1c0,0,1.2,1,2.6,1c1.4,0,2-0.6,2-1.4c0-1.7-5.3-0.6-5.3-4.7
		c0-2.2,1.6-3.8,4.4-3.8c2.5,0,3.8,1.4,3.8,1.4l-1.2,2.1c0,0-0.9-0.9-2.4-0.9c-0.9,0-1.5,0.6-1.5,1.3c0,2,5.3,0.3,5.3,4.7
		C286.5,1146.9,284.8,1148.6,281.7,1148.6z"/>
	<path class="st1" d="M291.7,1143.8c0,0,0.3,2.3,2.8,2.3c1.4,0,2.2-0.8,2.2-0.8l1.2,2.1c0,0-1,1.3-3.6,1.3c-3.3,0-5.6-2.3-5.6-6.2
		c0-4.1,2.1-6.2,4.9-6.2c2.9,0,4.9,2.1,4.9,6.2l-1.2,1.4H291.7z M291.7,1141.3h3.7c-0.1-1.7-1-2.6-1.8-2.6
		C292.8,1138.7,291.8,1139.6,291.7,1141.3z"/>
	<path class="st1" d="M301.4,1151.1l-0.7-1c0,0,0.9-0.7,1.2-1.6v-0.1c0,0-1.4-0.2-1.4-1.7c0-1,0.7-1.7,1.6-1.7c0.9,0,1.6,0.7,1.6,2
		C303.7,1149.9,301.4,1151.1,301.4,1151.1z"/>
	<path class="st1" d="M318.7,1131.6c2.9,0,4.4,1.5,4.4,1.5l-1.4,2.2c0,0-1-0.9-2.8-0.9c-2.4,0-4.1,1.7-4.1,5.8c0,4,1.7,5.8,4.1,5.8
		c2,0,3-1.2,3-1.2l1.4,2.2c0,0-1.6,1.7-4.6,1.7c-4.1,0-7.2-3.1-7.2-8.5S314.5,1131.6,318.7,1131.6z"/>
	<path class="st1" d="M328.1,1148.1h-3.3l5.2-16.1h4l5.2,16.1h-3.3l-1-3.2h-5.6L328.1,1148.1z M332,1136.3h-0.1l-1.8,5.9h3.8
		L332,1136.3z"/>
</g>
</svg>
