<?xml version="1.0" encoding="utf-8"?>
<!-- Generator: Adobe Illustrator 21.0.2, SVG Export Plug-In . SVG Version: 6.00 Build 0)  -->
<svg version="1.1" id="Layer_1" xmlns="http://www.w3.org/2000/svg" xmlns:xlink="http://www.w3.org/1999/xlink" x="0px" y="0px"
	 viewBox="0 0 235.2 52" style="enable-background:new 0 0 235.2 52;" xml:space="preserve">
<style type="text/css">
	.st0{fill:#EB6661;}
	.st1{fill:#24245A;}
</style>
<g>
	<g>
		<path class="st0" d="M57.3,2h11.1l15,40.5h-9.9l-2.8-8.1H54.8L52,42.5h-9.8L57.3,2z M68.4,26.5l-5.6-15.2l-5.6,15.2H68.4z"/>
	</g>
	<g>
		<path class="st0" d="M95.2,26.3L79.5,2h11.3l9,15l9-15h11.3l-15.7,24.3v16.4h-9.1V26.3z"/>
	</g>
	<g>
		<path class="st0" d="M125.7,2h26.7v8.2h-17.7v7.5h15v8.4h-15v8H153v8.3h-27.3V2z"/>
	</g>
	<g>
		<path class="st0" d="M164.5,2h15.9c8.8,0,15.1,5.8,15.1,13.5c0,4.9-3,9.3-7.3,11.9l9.4,15.1h-10.8L179,29.4h-5.4v13.1h-9V2z
			 M180.3,21.8c3.6,0,6.1-2.7,6.1-5.8s-2.4-5.8-6.1-5.8h-6.7v11.6H180.3z"/>
	</g>
	<g>
		<path class="st0" d="M206,39.7V30c3.2,2.1,7,3.8,12,3.8c3.1,0,7.3-0.9,7.3-3.6c0-5.7-19.7-3-19.7-16.5c0-7.5,6.1-13,15.3-13
			c3.7,0,8.2,0.9,10.9,2.2v9.3c-2.5-1.6-6.5-2.9-9.9-2.9c-4.3,0-7.2,1.6-7.2,3.7c0,5.7,20.1,2.8,20.1,16.5c0,7.6-6.1,13.1-15.4,13.1
			C213,42.6,209,41.1,206,39.7z"/>
	</g>
	<g>
		<g>
			<path class="st0" d="M5.7,2h9.1v31.9h20v8.6H5.7V2z"/>
		</g>
	</g>
	<g>
		<path class="st1" d="M89.6,30.9L75.5,9.3L81,6.1l11.5,17.7V40l5.8,5.8h9.4l-8.8,5.1h-9.3V30.9z"/>
	</g>
	<g>
		<path class="st1" d="M39.5,40l5.2,5.8h8.9l-8.8,5.1h-9.3L39.5,40z M66.7,42.7H54.6l1.8-5.1H70l0.8,2.3l6.9,5.8h10.5l-8.8,5.1h-9.9
			L66.7,42.7z M63.3,17.4l2.4,6.5h-4.8L63.3,17.4z"/>
	</g>
	<g>
		<path class="st1" d="M0,10.3l3-1.7V40l5.8,5.8h29.4l-8.8,5.1H0V10.3z"/>
	</g>
	<g>
		<g>
			<path class="st1" d="M120,10.3l3-1.7V40l5.8,5.8h27.5l-8.8,5.1H120V10.3z M147,15.1h-9.2v-2.2h17.6l-6.7,3.9L147,15.1z
				 M137.8,28.8h14.9l-4.9,2.8h-10V28.8z"/>
		</g>
	</g>
	<g>
		<g>
			<path class="st1" d="M158.8,10.3l3-1.7V40l6.2,5.8h8.9l-8.8,5.1h-9.3V10.3z M176.3,17.4v-4.5h7.3c0,0.2,0,0.4,0,0.6
				c0,2.7-1.8,5.1-4.6,5.6C178.3,18.4,177.4,17.8,176.3,17.4z M176.9,37.4v-5.6h2.3l4.9,8.2l9.2,5.8h10.5l-8.8,5.1h-7.6L176.9,37.4z
				"/>
		</g>
	</g>
	<g>
		<g>
			<path class="st1" d="M203.3,27.5c-1.8-1.2-2.8-3.6-2.8-6.1c0-3,1-5.6,2.7-7.8c0.3,1.7,1.1,3.1,2.1,4.3l2.4,2.8
				c3.2,3.8,4.3,5.1,8.6,6.8c1.7,0.6,3.7,1.3,5.5,2c-1.4,1.3-4.3,1.8-6.5,1.8C210.3,31.3,206.5,29.6,203.3,27.5z M200.6,47.9v-9.2
				l2.7-1.6l5.8,5.8c2.8,1.4,6.7,2.9,12.8,2.9c3.4,0,6.4-0.8,8.8-2.1l-8.2,4.7c-2.7,1.6-5.8,2.4-9.3,2.4
				C207.1,50.9,203.4,49.4,200.6,47.9z M218.3,14.5c1-1.4,3.4-2.3,6.6-2.3c3.4,0,7.4,1.5,10.2,3.4l-6.3,3.6
				C226,16.7,221.8,15.6,218.3,14.5z"/>
		</g>
	</g>
	<g>
		<path class="st1" d="M71.4,28H48.8l-3,8H45L57.2,3.3H63l12.2,32.8h-0.8L71.4,28z M71.2,27.4L62.5,4h-4.9L49,27.4H71.2z"/>
	</g>
	<g>
		<path class="st1" d="M109.6,3.4L97.4,22.8v13.2h-0.7V22.8L84.5,3.4h0.8l11.7,18.8l11.8-18.8H109.6z"/>
	</g>
	<g>
		<path class="st1" d="M146.7,35.5v0.7h-19.5V3.2h18.7v0.7h-18V19h15.3v0.7h-15.3v15.7H146.7z"/>
	</g>
	<g>
		<path class="st1" d="M179.5,23.1l8,13h-0.8l-7.9-12.9c-0.3,0-0.7,0-1.1,0h-11v12.8H166V3.3h11.7c6.4,0,10.9,4.1,10.9,10
			C188.6,18.5,184.9,22.4,179.5,23.1z M177.7,22.5c6,0,10.2-3.8,10.2-9.3c0-5.5-4.1-9.3-10.2-9.3h-11v18.6H177.7z"/>
	</g>
	<g>
		<path class="st1" d="M227.7,27.4c0,5.5-4.3,8.7-11.6,8.7c-3.4,0-6.3-0.5-8.9-1.6v-0.8c2.6,1.1,5.5,1.6,8.9,1.6
			c6.9,0,10.8-3,10.8-8c0-5.5-4.7-6.7-9.7-8c-5-1.3-10.2-2.6-10.2-8.4c0-5.5,4.5-8.9,11.8-8.9c2.5,0,5,0.6,6.6,1.3v0.8
			c-1.9-0.8-4.4-1.3-6.6-1.3c-6.9,0-11.1,3.1-11.1,8.2c0,5.3,4.7,6.5,9.7,7.8C222.5,19.9,227.7,21.3,227.7,27.4z"/>
	</g>
	<g>
		<g>
			<path class="st1" d="M7.3,3.4H8v31.9h20.5V36H7.3V3.4z"/>
		</g>
	</g>
</g>
</svg>
