<?xml version="1.0" encoding="utf-8"?>
<!-- Generator: Adobe Illustrator 21.0.2, SVG Export Plug-In . SVG Version: 6.00 Build 0)  -->
<svg version="1.1" id="Layer_1" xmlns="http://www.w3.org/2000/svg" xmlns:xlink="http://www.w3.org/1999/xlink" x="0px" y="0px"
	 viewBox="0 0 60.3 18.5" style="enable-background:new 0 0 60.3 18.5;" xml:space="preserve">
<style type="text/css">
	.st0{fill:#FFFFFF;}
</style>
<path class="st0" d="M45.6,0H0l12.2,11.8h45.6L45.6,0z M15.7,3.3h-1v-1h1V3.3z M19.4,7h-1V6h1V7z M23,10.6h-1v-1h1V10.6z M23.2,3.4
	h-1.3V2.2h1.3V3.4z M26.8,14.3h-1v-1h1V14.3z M26.9,7h-1.2V5.8h1.2V7z M30.4,17.9h-1v-1h1V17.9z M30.6,10.7h-1.3V9.5h1.3V10.7z
	 M30.8,3.6h-1.6V2h1.6V3.6z M34.2,14.3H33v-1.2h1.2V14.3z M34.4,7.2h-1.6V5.6h1.6V7.2z M37.9,18h-1.3v-1.2h1.3V18z M38.1,10.9h-1.6
	V9.3h1.6V10.9z M38.3,3.7h-2V1.8h2V3.7z M41.7,14.5h-1.6v-1.6h1.6V14.5z M41.9,7.4h-2v-2h2V7.4z M45.4,18.2h-1.6v-1.6h1.6V18.2z
	 M45.6,11.1h-2v-2h2V11.1z M45.7,3.9h-2.3V1.6h2.3V3.9z M49.2,14.7h-2v-2h2V14.7z M49.4,7.6H47V5.2h2.4V7.6z M52.9,18.4h-2v-2h2
	V18.4z M53,11.2h-2.3V8.9H53V11.2z M56.7,14.9h-2.4v-2.4h2.4V14.9z M60.3,18.5H58v-2.3h2.3V18.5z"/>
</svg>
