<?xml version="1.0" encoding="utf-8"?>
<!-- Generator: Adobe Illustrator 21.0.2, SVG Export Plug-In . SVG Version: 6.00 Build 0)  -->
<svg version="1.1" id="Layer_1" xmlns="http://www.w3.org/2000/svg" xmlns:xlink="http://www.w3.org/1999/xlink" x="0px" y="0px"
	 viewBox="0 0 82.9 18.7" style="enable-background:new 0 0 82.9 18.7;" xml:space="preserve">
<style type="text/css">
	.st0{fill:#FFFFFF;}
</style>
<path class="st0" d="M68.4,0H0l12.2,11.8h68.4L68.4,0z M65.6,1.4h2.7v2.7h-2.7V1.4z M58.3,1.4H61v2.7h-2.7V1.4z M8.9,3.3h-1v-1h1
	V3.3z M12.6,7h-1V6h1V7z M16.2,10.6h-1v-1h1V10.6z M16.4,3.4h-1.3V2.2h1.3V3.4z M19.9,14.3h-1v-1h1V14.3z M20,7h-1.2V5.8H20V7z
	 M23.5,17.9h-1v-1h1V17.9z M23.7,10.7h-1.3V9.5h1.3V10.7z M23.9,3.6h-1.6V2h1.6V3.6z M27.3,14.3h-1.2v-1.2h1.2V14.3z M27.5,7.2h-1.6
	V5.6h1.6V7.2z M31,18h-1.3v-1.2H31V18z M31.2,10.9h-1.6V9.3h1.6V10.9z M31.4,3.7h-2V1.8h2V3.7z M34.8,14.5h-1.6v-1.6h1.6V14.5z
	 M35,7.4h-2v-2h2V7.4z M38.5,18.2h-1.6v-1.6h1.6V18.2z M38.7,11.1h-2v-2h2V11.1z M38.8,3.9h-2.3V1.6h2.3V3.9z M42.3,14.7h-2v-2h2
	V14.7z M42.5,7.6h-2.4V5.2h2.4V7.6z M46.1,18.4h-2v-2h2V18.4z M46.2,11.2h-2.3V8.9h2.3V11.2z M46.4,4.1h-2.7V1.4h2.7V4.1z
	 M49.9,14.9h-2.4v-2.4h2.4V14.9z M50.1,7.8h-2.7V5.1h2.7V7.8z M53.5,18.5h-2.3v-2.3h2.3V18.5z M53.7,11.4H51V8.7h2.7V11.4z
	 M53.8,4.1h-2.7V1.4h2.7V4.1z M57.4,15.1h-2.7v-2.7h2.7V15.1z M57.5,7.8h-2.7V5.1h2.7V7.8z M61,18.7h-2.7V16H61V18.7z M61.1,11.4
	h-2.7V8.7h2.7V11.4z M62,5.1h2.7v2.7H62V5.1z M64.8,15.1h-2.7v-2.7h2.7V15.1z M65.6,8.7h2.7v2.7h-2.7V8.7z M68.4,18.7h-2.7V16h2.7
	V18.7z M72,15.1h-2.7v-2.7H72V15.1z M72,7.8h-2.7V5.1H72V7.8z M75.6,18.7h-2.7V16h2.7V18.7z M75.6,11.4h-2.7V8.7h2.7V11.4z
	 M79.3,15.1h-2.7v-2.7h2.7V15.1z M80.2,18.7V16h2.7v2.7H80.2z"/>
</svg>
