<?xml version="1.0" encoding="utf-8"?>
<!-- Generator: Adobe Illustrator 21.0.2, SVG Export Plug-In . SVG Version: 6.00 Build 0)  -->
<svg version="1.1" id="Layer_1" xmlns="http://www.w3.org/2000/svg" xmlns:xlink="http://www.w3.org/1999/xlink" x="0px" y="0px"
	 viewBox="0 0 78.8 18.7" style="enable-background:new 0 0 78.8 18.7;" xml:space="preserve">
<style type="text/css">
	.st0{fill:#FFFFFF;}
</style>
<path class="st0" d="M64.3,0H0l12.2,11.8h64.3L64.3,0z M61.5,1.4h2.7v2.7h-2.7V1.4z M54.1,1.4h2.7v2.7h-2.7V1.4z M4.7,3.3h-1v-1h1
	V3.3z M8.4,7h-1V6h1V7z M12.1,10.6h-1v-1h1V10.6z M12.3,3.4H11V2.2h1.3V3.4z M15.8,14.3h-1v-1h1V14.3z M15.9,7h-1.2V5.8h1.2V7z
	 M19.4,17.9h-1v-1h1V17.9z M19.6,10.7h-1.3V9.5h1.3V10.7z M19.8,3.6h-1.6V2h1.6V3.6z M23.2,14.3H22v-1.2h1.2V14.3z M23.4,7.2h-1.6
	V5.6h1.6V7.2z M26.9,18h-1.3v-1.2h1.3V18z M27.1,10.9h-1.6V9.3h1.6V10.9z M27.3,3.7h-2V1.8h2V3.7z M30.7,14.5h-1.6v-1.6h1.6V14.5z
	 M30.9,7.4h-2v-2h2V7.4z M34.4,18.2h-1.6v-1.6h1.6V18.2z M34.6,11.1h-2v-2h2V11.1z M34.7,3.9h-2.3V1.6h2.3V3.9z M38.2,14.7h-2v-2h2
	V14.7z M38.4,7.6H36V5.2h2.4V7.6z M41.9,18.4h-2v-2h2V18.4z M42,11.2h-2.3V8.9H42V11.2z M42.2,4.1h-2.7V1.4h2.7V4.1z M45.7,14.9
	h-2.4v-2.4h2.4V14.9z M45.9,7.8h-2.7V5.1h2.7V7.8z M49.3,18.5H47v-2.3h2.3V18.5z M49.5,11.4h-2.7V8.7h2.7V11.4z M49.6,4.1h-2.7V1.4
	h2.7V4.1z M53.2,15.1h-2.7v-2.7h2.7V15.1z M53.3,7.8h-2.7V5.1h2.7V7.8z M56.9,18.7h-2.7V16h2.7V18.7z M57,11.4h-2.7V8.7H57V11.4z
	 M57.9,5.1h2.7v2.7h-2.7V5.1z M60.7,15.1H58v-2.7h2.7V15.1z M61.5,8.7h2.7v2.7h-2.7V8.7z M64.3,18.7h-2.7V16h2.7V18.7z M67.9,15.1
	h-2.7v-2.7h2.7V15.1z M67.9,7.8h-2.7V5.1h2.7V7.8z M71.5,18.7h-2.7V16h2.7V18.7z M71.5,11.4h-2.7V8.7h2.7V11.4z M75.2,15.1h-2.7
	v-2.7h2.7V15.1z M76.1,18.7V16h2.7v2.7H76.1z"/>
</svg>
