<?xml version="1.0" encoding="utf-8"?>
<!-- Generator: Adobe Illustrator 21.0.2, SVG Export Plug-In . SVG Version: 6.00 Build 0)  -->
<svg version="1.1" id="Layer_1" xmlns="http://www.w3.org/2000/svg" xmlns:xlink="http://www.w3.org/1999/xlink" x="0px" y="0px"
	 viewBox="0 0 110.3 18.7" style="enable-background:new 0 0 110.3 18.7;" xml:space="preserve">
<style type="text/css">
	.st0{fill:#FFFFFF;}
</style>
<path class="st0" d="M95.7,0H0l12.2,11.8H108L95.7,0z M92.9,1.4h2.7v2.7h-2.7V1.4z M85.6,1.4h2.7v2.7h-2.7V1.4z M36.2,3.3h-1v-1h1
	V3.3z M39.9,7h-1V6h1V7z M43.5,10.6h-1v-1h1V10.6z M43.7,3.4h-1.3V2.2h1.3V3.4z M47.2,14.3h-1v-1h1V14.3z M47.3,7h-1.2V5.8h1.2V7z
	 M50.8,17.9h-1v-1h1V17.9z M51,10.7h-1.3V9.5H51V10.7z M51.2,3.6h-1.6V2h1.6V3.6z M54.6,14.3h-1.2v-1.2h1.2V14.3z M54.8,7.2h-1.6
	V5.6h1.6V7.2z M58.3,18H57v-1.2h1.3V18z M58.5,10.9h-1.6V9.3h1.6V10.9z M58.7,3.7h-2V1.8h2V3.7z M62.1,14.5h-1.6v-1.6h1.6V14.5z
	 M62.3,7.4h-2v-2h2V7.4z M65.9,18.2h-1.6v-1.6h1.6V18.2z M66.1,11.1h-2v-2h2V11.1z M66.2,3.9h-2.3V1.6h2.3V3.9z M69.7,14.7h-2v-2h2
	V14.7z M69.9,7.6h-2.4V5.2h2.4V7.6z M73.4,18.4h-2v-2h2V18.4z M73.5,11.2h-2.3V8.9h2.3V11.2z M73.7,4.1H71V1.4h2.7V4.1z M77.2,14.9
	h-2.4v-2.4h2.4V14.9z M77.4,7.8h-2.7V5.1h2.7V7.8z M80.8,18.5h-2.3v-2.3h2.3V18.5z M81,11.4h-2.7V8.7H81V11.4z M81.1,4.1h-2.7V1.4
	h2.7V4.1z M84.7,15.1H82v-2.7h2.7V15.1z M84.8,7.8h-2.7V5.1h2.7V7.8z M88.3,18.7h-2.7V16h2.7V18.7z M88.4,11.4h-2.7V8.7h2.7V11.4z
	 M89.3,5.1H92v2.7h-2.7V5.1z M92.1,15.1h-2.7v-2.7h2.7V15.1z M92.9,8.7h2.7v2.7h-2.7V8.7z M95.7,18.7H93V16h2.7V18.7z M99.3,15.1
	h-2.7v-2.7h2.7V15.1z M99.3,7.8h-2.7V5.1h2.7V7.8z M102.9,18.7h-2.7V16h2.7V18.7z M102.9,11.4h-2.7V8.7h2.7V11.4z M106.6,15.1h-2.7
	v-2.7h2.7V15.1z M107.5,18.7V16h2.7v2.7H107.5z"/>
</svg>
