<?xml version="1.0" encoding="utf-8"?>
<!-- Generator: Adobe Illustrator 21.0.2, SVG Export Plug-In . SVG Version: 6.00 Build 0)  -->
<svg version="1.1" id="Layer_1" xmlns="http://www.w3.org/2000/svg" xmlns:xlink="http://www.w3.org/1999/xlink" x="0px" y="0px"
	 viewBox="0 0 142.3 18.7" style="enable-background:new 0 0 142.3 18.7;" xml:space="preserve">
<style type="text/css">
	.st0{fill:#FFFFFF;}
</style>
<path class="st0" d="M127.8,0H0l12.2,11.8H140L127.8,0z M125,1.4h2.7v2.7H125V1.4z M117.7,1.4h2.7v2.7h-2.7V1.4z M68.3,3.3h-1v-1h1
	V3.3z M72,7h-1V6h1V7z M75.6,10.6h-1v-1h1V10.6z M75.8,3.4h-1.3V2.2h1.3V3.4z M79.3,14.3h-1v-1h1V14.3z M79.4,7h-1.2V5.8h1.2V7z
	 M82.9,17.9h-1v-1h1V17.9z M83.1,10.7h-1.3V9.5h1.3V10.7z M83.3,3.6h-1.6V2h1.6V3.6z M86.7,14.3h-1.2v-1.2h1.2V14.3z M86.9,7.2h-1.6
	V5.6h1.6V7.2z M90.4,18h-1.3v-1.2h1.3V18z M90.6,10.9H89V9.3h1.6V10.9z M90.8,3.7h-2V1.8h2V3.7z M94.2,14.5h-1.6v-1.6h1.6V14.5z
	 M94.4,7.4h-2v-2h2V7.4z M97.9,18.2h-1.6v-1.6h1.6V18.2z M98.1,11.1h-2v-2h2V11.1z M98.2,3.9h-2.3V1.6h2.3V3.9z M101.7,14.7h-2v-2h2
	V14.7z M101.9,7.6h-2.4V5.2h2.4V7.6z M105.4,18.4h-2v-2h2V18.4z M105.5,11.2h-2.3V8.9h2.3V11.2z M105.7,4.1H103V1.4h2.7V4.1z
	 M109.2,14.9h-2.4v-2.4h2.4V14.9z M109.4,7.8h-2.7V5.1h2.7V7.8z M112.9,18.5h-2.3v-2.3h2.3V18.5z M113.1,11.4h-2.7V8.7h2.7V11.4z
	 M113.2,4.1h-2.7V1.4h2.7V4.1z M116.8,15.1h-2.7v-2.7h2.7V15.1z M116.9,7.8h-2.7V5.1h2.7V7.8z M120.4,18.7h-2.7V16h2.7V18.7z
	 M120.5,11.4h-2.7V8.7h2.7V11.4z M121.4,5.1h2.7v2.7h-2.7V5.1z M124.2,15.1h-2.7v-2.7h2.7V15.1z M125,8.7h2.7v2.7H125V8.7z
	 M127.8,18.7h-2.7V16h2.7V18.7z M131.4,15.1h-2.7v-2.7h2.7V15.1z M131.4,7.8h-2.7V5.1h2.7V7.8z M135,18.7h-2.7V16h2.7V18.7z
	 M135,11.4h-2.7V8.7h2.7V11.4z M138.7,15.1H136v-2.7h2.7V15.1z M139.6,18.7V16h2.7v2.7H139.6z"/>
</svg>
