<?xml version="1.0" encoding="utf-8"?>
<!-- Generator: Adobe Illustrator 21.0.2, SVG Export Plug-In . SVG Version: 6.00 Build 0)  -->
<svg version="1.1" id="Layer_1" xmlns="http://www.w3.org/2000/svg" xmlns:xlink="http://www.w3.org/1999/xlink" x="0px" y="0px"
	 viewBox="0 0 85 18.5" style="enable-background:new 0 0 85 18.5;" xml:space="preserve">
<style type="text/css">
	.st0{fill:#FFFFFF;}
</style>
<path class="st0" d="M70.2,0H0l12.2,11.8h70.2L70.2,0z M40.4,3.3h-1v-1h1V3.3z M44.1,7h-1V6h1V7z M47.7,10.6h-1v-1h1V10.6z
	 M47.9,3.4h-1.3V2.2h1.3V3.4z M51.4,14.3h-1v-1h1V14.3z M51.5,7h-1.2V5.8h1.2V7z M55,17.9h-1v-1h1V17.9z M55.2,10.7h-1.3V9.5h1.3
	V10.7z M55.4,3.6h-1.6V2h1.6V3.6z M58.8,14.3h-1.2v-1.2h1.2V14.3z M59,7.2h-1.6V5.6H59V7.2z M62.5,18h-1.3v-1.2h1.3V18z M62.7,10.9
	h-1.6V9.3h1.6V10.9z M62.9,3.7h-2V1.8h2V3.7z M66.3,14.5h-1.6v-1.6h1.6V14.5z M66.5,7.4h-2v-2h2V7.4z M70,18.2h-1.6v-1.6H70V18.2z
	 M70.2,11.1h-2v-2h2V11.1z M70.3,3.9H68V1.6h2.3V3.9z M73.8,14.7h-2v-2h2V14.7z M74,7.6h-2.4V5.2H74V7.6z M77.6,18.4h-2v-2h2V18.4z
	 M77.7,11.2h-2.3V8.9h2.3V11.2z M81.4,14.9H79v-2.4h2.4V14.9z M85,18.5h-2.3v-2.3H85V18.5z"/>
</svg>
