<?xml version="1.0" encoding="utf-8"?>
<!-- Generator: Adobe Illustrator 21.0.2, SVG Export Plug-In . SVG Version: 6.00 Build 0)  -->
<svg version="1.1" id="Layer_1" xmlns="http://www.w3.org/2000/svg" xmlns:xlink="http://www.w3.org/1999/xlink" x="0px" y="0px"
	 viewBox="0 0 256.4 130" style="enable-background:new 0 0 256.4 130;" xml:space="preserve">
<style type="text/css">
	.st0{fill:#FFFFFF;}
	.st1{fill:#EB6661;}
	.st2{fill:#24245A;}
</style>
<path class="st0" d="M241.9,83.6H0.7l12.2,11.8h241.2L241.9,83.6z M239.1,85h2.7v2.7h-2.7V85z M231.8,85h2.7v2.7h-2.7V85z
	 M182.4,86.9h-1v-1h1V86.9z M186.1,90.6h-1v-1h1V90.6z M189.7,94.2h-1v-1h1V94.2z M189.9,87h-1.3v-1.2h1.3V87z M193.4,97.9h-1v-1h1
	V97.9z M193.5,90.6h-1.2v-1.2h1.2V90.6z M197,101.5h-1v-1h1V101.5z M197.2,94.3h-1.3v-1.2h1.3V94.3z M197.4,87.2h-1.6v-1.6h1.6V87.2
	z M200.8,97.9h-1.2v-1.2h1.2V97.9z M201,90.8h-1.6v-1.6h1.6V90.8z M204.5,101.6h-1.3v-1.2h1.3V101.6z M204.7,94.5h-1.6v-1.6h1.6
	V94.5z M204.9,87.3h-2v-1.9h2V87.3z M208.3,98.1h-1.6v-1.6h1.6V98.1z M208.5,91h-2v-2h2V91z M212,101.8h-1.6v-1.6h1.6V101.8z
	 M212.2,94.7h-2v-2h2V94.7z M212.3,87.5H210v-2.3h2.3V87.5z M215.9,98.3h-2v-2h2V98.3z M216.1,91.2h-2.4v-2.4h2.4V91.2z M219.6,102
	h-2v-2h2V102z M219.7,94.8h-2.3v-2.3h2.3V94.8z M219.9,87.7h-2.7V85h2.7V87.7z M223.4,98.5H221v-2.4h2.4V98.5z M223.6,91.4h-2.7
	v-2.7h2.7V91.4z M227,102.1h-2.3v-2.3h2.3V102.1z M227.2,95h-2.7v-2.7h2.7V95z M227.3,87.7h-2.7V85h2.7V87.7z M230.9,98.7h-2.7V96
	h2.7V98.7z M231,91.4h-2.7v-2.7h2.7V91.4z M234.5,102.3h-2.7v-2.7h2.7V102.3z M234.6,95h-2.7v-2.7h2.7V95z M235.5,88.7h2.7v2.7h-2.7
	V88.7z M238.3,98.7h-2.7V96h2.7V98.7z M239.1,92.3h2.7V95h-2.7V92.3z M241.9,102.3h-2.7v-2.7h2.7V102.3z M245.5,98.7h-2.7V96h2.7
	V98.7z M245.5,91.4h-2.7v-2.7h2.7V91.4z M249.1,102.3h-2.7v-2.7h2.7V102.3z M249.1,95h-2.7v-2.7h2.7V95z M252.8,98.7h-2.7V96h2.7
	V98.7z M253.7,102.3v-2.7h2.7v2.7H253.7z"/>
<g>
	<g>
		<path class="st1" d="M5.9,79.7H0V0.8h8.5c4.5,0,9.1,1.5,9.1,8.9v27.4c0,7.4-4.6,8.9-9.1,8.9H5.9V79.7z M5.9,5.9v35.1h2.3
			c2.6,0,3.6-1,3.6-3.6V9.6c0-2.7-1-3.7-3.6-3.7H5.9z"/>
		<path class="st1" d="M32,42.9v36.9h-5.9V0.8h8.6c4.5,0,9.1,1.5,9.1,8.9v23.2c0,4.5-1.7,6.5-4.1,7.4c2.4,0.8,4.1,2.9,4.1,7.4v19.3
			c0,8.8,0.6,11.1,1.4,12.6h-6.3c-0.5-1.1-0.9-2.8-0.9-7.3V48.2c0-4.1-1.1-5.3-4.5-5.3H32z M34.3,37.9c2.6,0,3.6-0.9,3.6-3.5V9.6
			c0-2.7-1-3.7-3.6-3.7H32v32H34.3z"/>
		<path class="st1" d="M59.4,74.7h8.1v5.1h-14V0.8h13.9v5.1h-8v30.2h6.9v5.1h-6.9V74.7z"/>
		<path class="st1" d="M81.2,71.8c0,2.4,0.8,3.6,2.9,3.6s2.9-1.2,2.9-3.6V60.3c0-19.4-11.4-21.7-11.4-43.6V9.5c0-6.5,3-9.5,8.7-9.5
			C89.9,0,93,2.9,93,9.5v17.9h-5.5V8.7c0-2.4-0.8-3.6-2.9-3.6s-2.9,1.2-2.9,3.6v8.9C81.6,37,93,39.2,93,61.2V71c0,6.5-3,9.5-8.7,9.5
			c-5.5,0-8.6-2.9-8.6-9.5V50.8h5.5V71.8z"/>
		<path class="st1" d="M107.6,74.7h8.1v5.1h-14V0.8h13.9v5.1h-8v30.2h6.9v5.1h-6.9V74.7z"/>
		<path class="st1" d="M142.9,0.8v78.9h-6l-6-42.7c-0.8-5.3-1.7-13.6-2.3-19.1c0.1,5.5,0.6,14.1,0.6,19.2v42.6h-5.1V0.8h7.4
			l4.6,33.9c0.7,4.8,1.6,14.1,2.3,19.5c-0.2-5.4-0.6-14.7-0.6-19.8V0.8H142.9z"/>
		<path class="st1" d="M167.6,5.9h-5.4v73.9h-5.9V5.9h-5.4V0.8h16.7V5.9z"/>
		<path class="st1" d="M181.5,74.7h8.1v5.1h-14V0.8h13.9v5.1h-8v30.2h6.9v5.1h-6.9V74.7z"/>
		<path class="st1" d="M204,42.9v36.9h-5.9V0.8h8.6c4.5,0,9.1,1.5,9.1,8.9v23.2c0,4.5-1.7,6.5-4.1,7.4c2.4,0.8,4.1,2.9,4.1,7.4v19.3
			c0,8.8,0.6,11.1,1.4,12.6h-6.3c-0.5-1.1-0.9-2.8-0.9-7.3V48.2c0-4.1-1.1-5.3-4.5-5.3H204z M206.4,37.9c2.6,0,3.6-0.9,3.6-3.5V9.6
			c0-2.7-1-3.7-3.6-3.7H204v32H206.4z"/>
		<path class="st1" d="M230.2,71.8c0,2.4,0.8,3.6,2.9,3.6s2.9-1.2,2.9-3.6V60.3c0-19.4-11.4-21.7-11.4-43.6V9.5c0-6.5,3-9.5,8.7-9.5
			c5.5,0,8.6,2.9,8.6,9.5v17.9h-5.5V8.7c0-2.4-0.8-3.6-2.9-3.6s-2.9,1.2-2.9,3.6v8.9c0,19.4,11.4,21.7,11.4,43.6V71
			c0,6.5-3,9.5-8.7,9.5c-5.5,0-8.6-2.9-8.6-9.5V50.8h5.5V71.8z"/>
	</g>
</g>
<g>
	<g>
		<path class="st2" d="M118.8,116.7c2.3,0,3.4,1.2,3.4,1.2l-1.1,1.7c0,0-0.8-0.7-2.2-0.7c-1.9,0-3.2,1.4-3.2,4.5s1.4,4.5,3.2,4.5
			c1.5,0,2.3-0.9,2.3-0.9l1.1,1.7c0,0-1.3,1.3-3.6,1.3c-3.2,0-5.7-2.4-5.7-6.7C113.1,119.1,115.6,116.7,118.8,116.7z"/>
		<path class="st2" d="M129.2,130c-3.1,0-5.5-2.4-5.5-6.7c0-4.2,2.4-6.7,5.5-6.7c3.1,0,5.5,2.4,5.5,6.7
			C134.7,127.6,132.3,130,129.2,130z M129.2,118.8c-1.5,0-2.9,1.4-2.9,4.5s1.4,4.5,2.9,4.5c1.5,0,2.9-1.4,2.9-4.5
			S130.8,118.8,129.2,118.8z"/>
		<path class="st2" d="M142.7,127.8l-2.2-5.9h-0.1l-0.7,7.7h-2.6l1.2-12.6h2.8l2.5,6.9h0.1l2.5-6.9h2.8l1.2,12.6h-2.6l-0.7-7.7h-0.1
			l-2.2,5.9H142.7z"/>
		<path class="st2" d="M155.9,129.6h-2.5V117h2.5V129.6z"/>
		<path class="st2" d="M166.5,124.8V117h2.5v12.6h-2.7l-4.3-7.7H162v7.7h-2.5V117h2.7L166.5,124.8L166.5,124.8z"/>
		<path class="st2" d="M177.7,116.7c2.3,0,3.4,1.2,3.4,1.2l-1.1,1.7c0,0-0.8-0.7-2.2-0.7c-1.9,0-3.2,1.4-3.2,4.5s1.4,4.5,3.2,4.5
			c0.6,0,1.2-0.2,1.2-0.2v-3.2h-1.7v-2.1h4.2v6.2c0,0-1.4,1.4-3.9,1.4c-3.2,0-5.7-2.4-5.7-6.7C172.1,119.1,174.5,116.7,177.7,116.7z
			"/>
		<path class="st2" d="M197.3,126c0,2.3-1.8,4.1-4.9,4.1c-2.6,0-4-1.6-4-1.6l1.1-1.7c0,0,1,1.2,2.7,1.2c1.6,0,2.4-0.8,2.4-1.9
			c0-2.3-5.7-1.1-5.7-5.5c0-2.1,1.7-3.8,4.3-3.8c2.5,0,3.7,1.4,3.7,1.4l-1,1.7c0,0-1-1-2.5-1c-1.2,0-1.9,0.7-1.9,1.6
			C191.6,122.8,197.3,121.7,197.3,126z"/>
		<path class="st2" d="M204.9,130c-3.1,0-5.5-2.4-5.5-6.7c0-4.2,2.4-6.7,5.5-6.7s5.5,2.4,5.5,6.7C210.4,127.6,207.9,130,204.9,130z
			 M204.9,118.8c-1.5,0-2.9,1.4-2.9,4.5s1.4,4.5,2.9,4.5s2.9-1.4,2.9-4.5S206.4,118.8,204.9,118.8z"/>
		<path class="st2" d="M218.2,130c-3.1,0-5.5-2.4-5.5-6.7c0-4.2,2.4-6.7,5.5-6.7c3.1,0,5.5,2.4,5.5,6.7
			C223.6,127.6,221.2,130,218.2,130z M218.2,118.8c-1.5,0-2.9,1.4-2.9,4.5s1.4,4.5,2.9,4.5c1.5,0,2.9-1.4,2.9-4.5
			S219.7,118.8,218.2,118.8z"/>
		<path class="st2" d="M233.7,124.8V117h2.5v12.6h-2.7l-4.3-7.7h-0.1v7.7h-2.5V117h2.7L233.7,124.8L233.7,124.8z"/>
		<path class="st2" d="M242.2,122.8l-0.4,3.1h-1.8l-0.4-3.1V117h2.5V122.8z M241,129.8c-0.7,0-1.3-0.5-1.3-1.3
			c0-0.8,0.5-1.4,1.3-1.4c0.7,0,1.3,0.5,1.3,1.4C242.2,129.3,241.7,129.8,241,129.8z"/>
	</g>
</g>
</svg>
