<?xml version="1.0" encoding="utf-8"?>
<!-- Generator: Adobe Illustrator 21.0.2, SVG Export Plug-In . SVG Version: 6.00 Build 0)  -->
<svg version="1.1" id="Layer_1" xmlns="http://www.w3.org/2000/svg" xmlns:xlink="http://www.w3.org/1999/xlink" x="0px" y="0px"
	 viewBox="0 0 242.9 204.5" style="enable-background:new 0 0 242.9 204.5;" xml:space="preserve">
<style type="text/css">
	.st0{fill:#C0BFBF;}
	.st1{fill:#EB6661;}
</style>
<path class="st0" d="M228.3,185.8H0l12.2,11.8h228.3L228.3,185.8z M225.5,187.2h2.7v2.7h-2.7V187.2z M218.2,187.2h2.7v2.7h-2.7
	V187.2z M168.8,189.1h-1v-1h1V189.1z M172.5,192.8h-1v-1h1V192.8z M176.1,196.4h-1v-1h1V196.4z M176.3,189.2H175V188h1.3V189.2z
	 M179.8,200.1h-1v-1h1V200.1z M179.9,192.8h-1.2v-1.2h1.2V192.8z M183.4,203.7h-1v-1h1V203.7z M183.6,196.5h-1.3v-1.2h1.3V196.5z
	 M183.8,189.4h-1.6v-1.6h1.6V189.4z M187.2,200.1H186v-1.2h1.2V200.1z M187.4,193h-1.6v-1.6h1.6V193z M191,203.8h-1.3v-1.2h1.3
	V203.8z M191.2,196.7h-1.6v-1.6h1.6V196.7z M191.4,189.5h-2v-1.9h2V189.5z M194.8,200.3h-1.6v-1.6h1.6V200.3z M195,193.2h-2v-2h2
	V193.2z M198.5,204h-1.6v-1.6h1.6V204z M198.7,196.9h-2v-2h2V196.9z M198.8,189.7h-2.3v-2.3h2.3V189.7z M202.3,200.5h-2v-2h2V200.5z
	 M202.5,193.4h-2.4V191h2.4V193.4z M206,204.2h-2v-2h2V204.2z M206.1,197h-2.3v-2.3h2.3V197z M206.3,189.9h-2.7v-2.7h2.7V189.9z
	 M209.8,200.7h-2.4v-2.4h2.4V200.7z M210,193.6h-2.7v-2.7h2.7V193.6z M213.4,204.3h-2.3V202h2.3V204.3z M213.6,197.2h-2.7v-2.7h2.7
	V197.2z M213.7,189.9H211v-2.7h2.7V189.9z M217.3,200.9h-2.7v-2.7h2.7V200.9z M217.4,193.6h-2.7v-2.7h2.7V193.6z M220.9,204.5h-2.7
	v-2.7h2.7V204.5z M221,197.2h-2.7v-2.7h2.7V197.2z M221.9,190.9h2.7v2.7h-2.7V190.9z M224.7,200.9H222v-2.7h2.7V200.9z M225.5,194.5
	h2.7v2.7h-2.7V194.5z M228.3,204.5h-2.7v-2.7h2.7V204.5z M231.9,200.9h-2.7v-2.7h2.7V200.9z M231.9,193.6h-2.7v-2.7h2.7V193.6z
	 M235.6,204.5h-2.7v-2.7h2.7V204.5z M235.6,197.2h-2.7v-2.7h2.7V197.2z M239.3,200.9h-2.7v-2.7h2.7V200.9z M240.2,204.5v-2.7h2.7
	v2.7H240.2z"/>
<g>
	<g>
		<path class="st1" d="M5.9,0.5c3.1,0,6,1,6,6.1v14.6c0,3.2-0.9,4.5-2.6,5.1c1.7,0.6,2.8,2,2.8,5.1v16.9c0,5.1-3.2,6.1-6.2,6.1H0.1
			V0.5H5.9z M5.7,24.6c1.7,0,2.5-0.6,2.5-2.4V6.5C8.2,4.7,7.5,4,5.7,4H4.1v20.6H5.7z M4.1,28.1v22.9h1.6c1.8,0,2.5-0.7,2.5-2.5V30.5
			c0-1.8-0.7-2.4-2.5-2.4H4.1z"/>
		<path class="st1" d="M22.2,29.2v25.2h-4V0.5H24c3.1,0,6.2,1,6.2,6.1v15.9c0,3.1-1.2,4.5-2.8,5.1c1.6,0.5,2.8,2,2.8,5.1v13.2
			c0,6,0.4,7.5,0.9,8.6h-4.3c-0.3-0.8-0.6-1.9-0.6-5V32.9c0-2.8-0.8-3.6-3.1-3.6H22.2z M23.8,25.9c1.8,0,2.5-0.6,2.5-2.4V6.5
			c0-1.8-0.7-2.5-2.5-2.5h-1.6v21.9H23.8z"/>
		<path class="st1" d="M36.3,6.5C36.3,2,38.6,0,42.4,0s6.1,2,6.1,6.5v42c0,4.5-2.2,6.5-6.1,6.5s-6.1-2-6.1-6.5V6.5z M42.4,51.5
			c1.5,0,2.1-0.8,2.1-2.5V5.9c0-1.6-0.6-2.5-2.1-2.5s-2.1,0.8-2.1,2.5V49C40.4,50.6,41,51.5,42.4,51.5z"/>
		<path class="st1" d="M60.6,51.5c1.4,0,2.1-0.8,2.1-2.4V0.5h3.7v48.2c0,4.2-2.1,6.2-5.9,6.2c-3.8,0-6-1.9-6-6.2V0.5h4v48.6
			C58.5,50.6,59.2,51.5,60.6,51.5z"/>
		<path class="st1" d="M80.5,28.4h-2.1v-3.5h5.9v29.5h-2.1l-0.4-1.8c-0.8,1.7-2.4,2.4-4.4,2.4c-3,0-5.2-1.7-5.2-6.5v-42
			c0-4.5,2.2-6.5,6-6.5c3.8,0,5.9,2,5.9,6.5v14.9h-3.8V5.9c0-1.6-0.6-2.5-2.1-2.5s-2.1,0.8-2.1,2.5V49c0,1.6,0.6,2.5,2,2.5
			c1.5,0,2.2-0.8,2.2-2.5V28.4z"/>
		<path class="st1" d="M94.4,54.4h-4V0.5h4v24.1h4.2V0.5h4v53.9h-4V28.1h-4.2V54.4z"/>
		<path class="st1" d="M119.5,4h-3.7v50.4h-4V4h-3.7V0.5h11.4V4z"/>
		<path class="st1" d="M11.5,67.8H7.8v50.4h-4V67.8H0.1v-3.5h11.4V67.8z"/>
		<path class="st1" d="M16.8,70.2c0-4.5,2.2-6.5,6.1-6.5s6.1,2,6.1,6.5v42c0,4.5-2.2,6.5-6.1,6.5s-6.1-2-6.1-6.5V70.2z M22.9,115.2
			c1.5,0,2.1-0.8,2.1-2.5V69.7c0-1.6-0.6-2.5-2.1-2.5s-2.1,0.8-2.1,2.5v43.1C20.8,114.4,21.4,115.2,22.9,115.2z"/>
		<path class="st1" d="M56.3,64.3h3.6l-4.8,36.8v17.1h-4v-17.1l-4.8-36.8h4.1l1.8,16.2c0.4,3.1,0.8,7.9,1.1,12.2
			c0.2-4.2,0.6-9.1,1-12.2L56.3,64.3z"/>
		<path class="st1" d="M65.2,70.2c0-4.5,2.2-6.5,6.1-6.5s6.1,2,6.1,6.5v42c0,4.5-2.2,6.5-6.1,6.5s-6.1-2-6.1-6.5V70.2z M71.2,115.2
			c1.5,0,2.1-0.8,2.1-2.5V69.7c0-1.6-0.6-2.5-2.1-2.5s-2.1,0.8-2.1,2.5v43.1C69.2,114.4,69.8,115.2,71.2,115.2z"/>
		<path class="st1" d="M89.4,115.2c1.4,0,2.1-0.8,2.1-2.4V64.3h3.7v48.2c0,4.2-2.1,6.2-5.9,6.2c-3.8,0-6-1.9-6-6.2V64.3h4v48.6
			C87.3,114.4,88,115.2,89.4,115.2z"/>
		<path class="st1" d="M119.8,64.3c3.1,0,6,1,6,6.1V85c0,3.2-0.9,4.5-2.6,5.1c1.7,0.6,2.8,2,2.8,5.1v16.9c0,5.1-3.2,6.1-6.2,6.1
			h-5.8V64.3H119.8z M119.5,88.4c1.7,0,2.5-0.6,2.5-2.4V70.3c0-1.8-0.7-2.5-2.5-2.5h-1.6v20.6H119.5z M117.9,91.9v22.9h1.6
			c1.8,0,2.5-0.7,2.5-2.5V94.2c0-1.8-0.7-2.4-2.5-2.4H117.9z"/>
		<path class="st1" d="M141.1,64.3h3.6l-4.8,36.8v17.1h-4v-17.1l-4.8-36.8h4.1l1.8,16.2c0.4,3.1,0.8,7.9,1.1,12.2
			c0.2-4.2,0.6-9.1,1-12.2L141.1,64.3z"/>
		<path class="st1" d="M6.4,182.5c-3.8,0-5.9-1.9-5.9-6.2v-17h3.7v17.3c0,1.5,0.6,2.4,2.1,2.4s2.1-0.8,2.1-2.4v-48.6h4.1v48.2
			C12.4,180.6,10.2,182.5,6.4,182.5z"/>
		<path class="st1" d="M22.5,178.5H28v3.5h-9.5v-53.9H28v3.5h-5.5v20.6h4.7v3.5h-4.7V178.5z"/>
		<path class="st1" d="M37.4,176.6c0,1.6,0.5,2.5,2,2.5c1.5,0,2-0.8,2-2.5v-7.8c0-13.2-7.8-14.8-7.8-29.8V134c0-4.5,2.1-6.5,5.9-6.5
			c3.8,0,5.8,2,5.8,6.5v12.2h-3.8v-12.8c0-1.6-0.5-2.5-2-2.5c-1.5,0-2,0.8-2,2.5v6.1c0,13.2,7.8,14.8,7.8,29.8v6.7
			c0,4.5-2.1,6.5-5.9,6.5c-3.8,0-5.8-2-5.8-6.5v-13.9h3.8V176.6z"/>
		<path class="st1" d="M54.9,176.6c0,1.6,0.5,2.5,2,2.5c1.5,0,2-0.8,2-2.5v-7.8c0-13.2-7.8-14.8-7.8-29.8V134c0-4.5,2.1-6.5,5.9-6.5
			c3.8,0,5.8,2,5.8,6.5v12.2h-3.8v-12.8c0-1.6-0.5-2.5-2-2.5c-1.5,0-2,0.8-2,2.5v6.1c0,13.2,7.8,14.8,7.8,29.8v6.7
			c0,4.5-2.1,6.5-5.9,6.5c-3.8,0-5.8-2-5.8-6.5v-13.9h3.8V176.6z"/>
		<path class="st1" d="M68.9,128.1h4v53.9h-4V128.1z"/>
		<path class="st1" d="M83,178.5h5.5v3.5H79v-53.9h9.5v3.5H83v20.6h4.7v3.5H83V178.5z"/>
		<path class="st1" d="M118.2,171.2c0.3-2.3,0.5-5.3,0.5-9.2V150h3.2v12.2c0,6.9-0.8,11.6-2,14.7c0.4,1.5,0.8,2.1,1.7,2.1
			c0.5,0,0.9-0.1,1.2-0.3v3.3c-0.5,0.3-1,0.5-1.8,0.5c-1.2,0-2.6-0.3-3.7-1.5c-1.1,1-2.3,1.5-3.5,1.5c-2.5,0-4.2-0.9-5.2-5.5l-1.9-9
			c-0.6-2.8-0.9-5.3-0.9-7.5c0-4,1-6.7,3-9.2l1.6-2c-1.2-6.5-1.7-10.2-1.7-13.9c0-5,1.9-8,5.4-8s5.2,2.5,5.2,8.1
			c0,6.2-2.2,10.2-4.8,13.7C116.6,161.5,117.8,167.6,118.2,171.2z M115.9,177.5l-4.8-24.1l-0.2,0.3c-1.1,1.4-1.5,3.1-1.5,5.4
			c0,1.5,0.2,3.2,0.6,5.2l2.2,10.7c0.5,2.2,0.8,3.2,2,3.2C114.9,178.2,115.4,178,115.9,177.5z M113.3,145.6c1.8-2.8,2.5-6.2,2.5-9.8
			c0-3.7-0.6-4.6-1.6-4.6c-1.2,0-1.7,1.1-1.7,4.6C112.5,140,113,142.9,113.3,145.6z"/>
		<path class="st1" d="M144.5,178.5h5.5v3.5h-9.5v-53.9h9.5v3.5h-5.5v20.6h4.7v3.5h-4.7V178.5z"/>
		<path class="st1" d="M155.8,128.1h4v50.4h5.2v3.5h-9.2V128.1z"/>
		<path class="st1" d="M178.9,175.4h-4.8l-0.5,6.5h-3.7l4.2-53.9h5.1l4.2,53.9h-4.1L178.9,175.4z M174.4,171.9h4.2l-0.9-12.3
			c-0.5-7.2-0.9-14.6-1.2-21.9c-0.3,7.2-0.8,14.6-1.2,21.9L174.4,171.9z"/>
		<path class="st1" d="M189.1,128.1h4v53.9h-4V128.1z"/>
		<path class="st1" d="M212,128.1v53.9H208l-4.1-29.2c-0.5-3.6-1.2-9.3-1.5-13c0.1,3.8,0.4,9.6,0.4,13.1v29.1h-3.5v-53.9h5.1
			l3.2,23.2c0.5,3.3,1.1,9.6,1.5,13.3c-0.2-3.7-0.4-10-0.4-13.5v-22.9H212z"/>
		<path class="st1" d="M222.2,178.5h5.5v3.5h-9.5v-53.9h9.5v3.5h-5.5v20.6h4.7v3.5h-4.7V178.5z"/>
	</g>
</g>
</svg>
