<?xml version="1.0" encoding="utf-8"?>
<!-- Generator: Adobe Illustrator 21.0.2, SVG Export Plug-In . SVG Version: 6.00 Build 0)  -->
<svg version="1.1" id="Layer_1" xmlns="http://www.w3.org/2000/svg" xmlns:xlink="http://www.w3.org/1999/xlink" x="0px" y="0px"
	 viewBox="0 0 92.8 142.9" style="enable-background:new 0 0 92.8 142.9;" xml:space="preserve">
<style type="text/css">
	.st0{fill:#FFFFFF;}
	.st1{fill:#EB6661;}
</style>
<path class="st0" d="M46.5,57.7H1l12.2,11.8h45.6L46.5,57.7z M16.7,61h-1v-1h1V61z M20.4,64.7h-1v-1h1V64.7z M24,68.3h-1v-1h1V68.3z
	 M24.2,61.1h-1.3v-1.2h1.3V61.1z M27.7,72.1h-1v-1h1V72.1z M27.8,64.7h-1.2v-1.2h1.2V64.7z M31.3,75.7h-1v-1h1V75.7z M31.5,68.4
	h-1.3v-1.2h1.3V68.4z M31.7,61.3h-1.6v-1.6h1.6V61.3z M35.1,72.1h-1.2v-1.2h1.2V72.1z M35.3,64.9h-1.6v-1.6h1.6V64.9z M38.8,75.8
	h-1.3v-1.2h1.3V75.8z M39,68.6h-1.6V67H39V68.6z M39.2,61.4h-2v-1.9h2V61.4z M42.6,72.3H41v-1.6h1.6V72.3z M42.8,65.1h-2v-2h2V65.1z
	 M46.3,76h-1.6v-1.6h1.6V76z M46.5,68.8h-2v-2h2V68.8z M46.6,61.6h-2.3v-2.3h2.3V61.6z M50.2,72.5h-2v-2h2V72.5z M50.4,65.3h-2.4
	v-2.4h2.4V65.3z M53.9,76.2h-2v-2h2V76.2z M54,68.9h-2.3v-2.3H54V68.9z M57.7,72.7h-2.4v-2.4h2.4V72.7z M61.3,76.3H59V74h2.3V76.3z"
	/>
<path class="st0" d="M78.3,121.5H1.6l12.2,11.8h76.7L78.3,121.5z M75.5,122.9h2.7v2.7h-2.7V122.9z M68.2,122.9h2.7v2.7h-2.7V122.9z
	 M18.7,124.8h-1v-1h1V124.8z M22.5,128.5h-1v-1h1V128.5z M26.1,132.1h-1v-1h1V132.1z M26.3,124.9H25v-1.2h1.3V124.9z M29.8,135.8h-1
	v-1h1V135.8z M29.9,128.5h-1.2v-1.2h1.2V128.5z M33.4,139.5h-1v-1h1V139.5z M33.6,132.2h-1.3V131h1.3V132.2z M33.8,125.1h-1.6v-1.6
	h1.6V125.1z M37.2,135.8H36v-1.2h1.2V135.8z M37.4,128.7h-1.6v-1.6h1.6V128.7z M40.9,139.6h-1.3v-1.2h1.3V139.6z M41.1,132.4h-1.6
	v-1.6h1.6V132.4z M41.3,125.2h-2v-1.9h2V125.2z M44.7,136h-1.6v-1.6h1.6V136z M44.9,128.9h-2v-2h2V128.9z M48.4,139.8h-1.6v-1.6h1.6
	V139.8z M48.6,132.6h-2v-2h2V132.6z M48.7,125.4h-2.3v-2.3h2.3V125.4z M52.2,136.2h-2v-2h2V136.2z M52.4,129.1H50v-2.4h2.4V129.1z
	 M55.9,140h-2v-2h2V140z M56,132.7h-2.3v-2.3H56V132.7z M56.2,125.6h-2.7v-2.7h2.7V125.6z M59.7,136.4h-2.4V134h2.4V136.4z
	 M59.9,129.3h-2.7v-2.7h2.7V129.3z M63.3,140.1H61v-2.3h2.3V140.1z M63.5,132.9h-2.7v-2.7h2.7V132.9z M63.6,125.6h-2.7v-2.7h2.7
	V125.6z M67.3,136.6h-2.7v-2.7h2.7V136.6z M67.4,129.3h-2.7v-2.7h2.7V129.3z M70.9,140.3h-2.7v-2.7h2.7V140.3z M71,132.9h-2.7v-2.7
	H71V132.9z M71.9,126.6h2.7v2.7h-2.7V126.6z M74.7,136.6H72v-2.7h2.7V136.6z M75.5,130.2h2.7v2.7h-2.7V130.2z M78.3,140.3h-2.7v-2.7
	h2.7V140.3z M81.9,136.6h-2.7v-2.7h2.7V136.6z M81.9,129.3h-2.7v-2.7h2.7V129.3z M85.5,140.3h-2.7v-2.7h2.7V140.3z M85.5,132.9h-2.7
	v-2.7h2.7V132.9z M89.2,136.6h-2.7v-2.7h2.7V136.6z M90.1,140.3v-2.7h2.7v2.7H90.1z"/>
<g>
	<g>
		<path class="st1" d="M11.4,3.5H7.7v50.4h-4V3.5H0V0h11.4V3.5z"/>
		<path class="st1" d="M20.9,53.9h-4V0h4v24.1h4.2V0h4v53.9h-4V27.5h-4.2V53.9z"/>
		<path class="st1" d="M39.3,50.4h5.5v3.5h-9.5V0h9.5v3.5h-5.5v20.6H44v3.5h-4.7V50.4z"/>
		<path class="st1" d="M1.5,63.8h5.8c3.1,0,6.2,1,6.2,6.1v41.7c0,5.1-3.2,6.1-6.2,6.1H1.5V63.8z M5.5,67.2v46.9h1.5
			c1.8,0,2.5-0.7,2.5-2.5V69.8c0-1.8-0.7-2.5-2.5-2.5H5.5z"/>
		<path class="st1" d="M23.7,114.2h5.5v3.5h-9.5V63.8h9.5v3.5h-5.5v20.6h4.7v3.5h-4.7V114.2z"/>
		<path class="st1" d="M39,114.2h5.5v3.5H35V63.8h9.5v3.5H39v20.6h4.7v3.5H39V114.2z"/>
		<path class="st1" d="M61,67.2h-3.7v50.4h-4V67.2h-3.7v-3.5H61V67.2z"/>
		<path class="st1" d="M70.1,112.2c0,1.6,0.5,2.5,2,2.5c1.5,0,2-0.8,2-2.5v-7.8c0-13.2-7.8-14.8-7.8-29.8v-4.9
			c0-4.5,2.1-6.5,5.9-6.5c3.8,0,5.8,2,5.8,6.5v12.2h-3.8V69.2c0-1.6-0.5-2.5-2-2.5c-1.5,0-2,0.8-2,2.5v6.1c0,13.2,7.8,14.8,7.8,29.8
			v6.7c0,4.5-2.1,6.5-5.9,6.5c-3.8,0-5.8-2-5.8-6.5V97.9h3.8V112.2z"/>
	</g>
</g>
</svg>
