<?xml version="1.0" encoding="utf-8"?>
<!-- Generator: Adobe Illustrator 21.0.2, SVG Export Plug-In . SVG Version: 6.00 Build 0)  -->
<svg version="1.1" id="Layer_1" xmlns="http://www.w3.org/2000/svg" xmlns:xlink="http://www.w3.org/1999/xlink" x="0px" y="0px"
	 viewBox="0 0 85.5 76.3" style="enable-background:new 0 0 85.5 76.3;" xml:space="preserve">
<style type="text/css">
	.st0{fill:#FFFFFF;}
	.st1{fill:#EB6661;}
</style>
<path class="st0" d="M70.8,57.7H0.6l12.2,11.8H83L70.8,57.7z M40.9,61h-1v-1h1V61z M44.6,64.7h-1v-1h1V64.7z M48.3,68.3h-1v-1h1
	V68.3z M48.5,61.1h-1.3v-1.2h1.3V61.1z M52,72.1h-1v-1h1V72.1z M52.1,64.7h-1.2v-1.2h1.2V64.7z M55.6,75.7h-1v-1h1V75.7z M55.8,68.4
	h-1.3v-1.2h1.3V68.4z M56,61.3h-1.6v-1.6H56V61.3z M59.4,72.1h-1.2v-1.2h1.2V72.1z M59.6,64.9H58v-1.6h1.6V64.9z M63.1,75.8h-1.3
	v-1.2h1.3V75.8z M63.3,68.6h-1.6V67h1.6V68.6z M63.5,61.4h-2v-1.9h2V61.4z M66.9,72.3h-1.6v-1.6h1.6V72.3z M67.1,65.1h-2v-2h2V65.1z
	 M70.6,76H69v-1.6h1.6V76z M70.8,68.8h-2v-2h2V68.8z M70.9,61.6h-2.3v-2.3h2.3V61.6z M74.4,72.5h-2v-2h2V72.5z M74.6,65.3h-2.4v-2.4
	h2.4V65.3z M78.1,76.2h-2v-2h2V76.2z M78.2,69h-2.3v-2.3h2.3V69z M81.9,72.7h-2.4v-2.4h2.4V72.7z M85.5,76.3h-2.3V74h2.3V76.3z"/>
<g>
	<g>
		<path class="st1" d="M12.6,53.9L11.2,32c-0.3-4.5-0.5-10.1-0.8-16.1c-0.2,6-0.4,11.6-0.7,16.1L8.2,53.9H3.6L0,0h4.1l1.5,22.8
			c0.3,4.9,0.5,11.1,0.8,16.9c0.2-5.8,0.5-12,0.8-16.9L8.8,0h3.7L14,22.8c0.4,4.9,0.5,11.1,0.8,16.9c0.2-5.8,0.3-12,0.7-16.9L17.2,0
			h3.6l-3.5,53.9H12.6z"/>
		<path class="st1" d="M30.4,53.9h-4V0h4v24.1h4.2V0h4v53.9h-4V27.5h-4.2V53.9z"/>
		<path class="st1" d="M53.2,47.3h-4.8L48,53.9h-3.7L48.5,0h5.1l4.2,53.9h-4.1L53.2,47.3z M48.7,43.9H53l-0.9-12.3
			c-0.5-7.2-0.9-14.6-1.2-21.9c-0.3,7.2-0.8,14.6-1.2,21.9L48.7,43.9z"/>
		<path class="st1" d="M72.1,3.5h-3.7v50.4h-4V3.5h-3.7V0h11.4V3.5z"/>
	</g>
</g>
</svg>
