<?xml version="1.0" encoding="utf-8"?>
<!-- Generator: Adobe Illustrator 21.0.2, SVG Export Plug-In . SVG Version: 6.00 Build 0)  -->
<svg version="1.1" id="Layer_1" xmlns="http://www.w3.org/2000/svg" xmlns:xlink="http://www.w3.org/1999/xlink" x="0px" y="0px"
	 viewBox="0 0 142.5 76.9" style="enable-background:new 0 0 142.5 76.9;" xml:space="preserve">
<style type="text/css">
	.st0{fill:#FFFFFF;}
	.st1{fill:#EB6661;}
</style>
<path class="st0" d="M128,58.1H0.2l12.2,11.8h127.8L128,58.1z M125.1,59.5h2.7v2.7h-2.7V59.5z M117.8,59.5h2.7v2.7h-2.7V59.5z
	 M68.4,61.4h-1v-1h1V61.4z M72.1,65.2h-1v-1h1V65.2z M75.7,68.8h-1v-1h1V68.8z M75.9,61.5h-1.3v-1.2h1.3V61.5z M79.5,72.5h-1v-1h1
	V72.5z M79.5,65.2h-1.2V64h1.2V65.2z M83.1,76.1h-1v-1h1V76.1z M83.3,68.9H82v-1.2h1.3V68.9z M83.5,61.8h-1.6v-1.6h1.6V61.8z
	 M86.9,72.5h-1.2v-1.2h1.2V72.5z M87.1,65.4h-1.6v-1.6h1.6V65.4z M90.6,76.2h-1.3V75h1.3V76.2z M90.8,69.1h-1.6v-1.6h1.6V69.1z
	 M91,61.9h-2v-1.9h2V61.9z M94.4,72.7h-1.6v-1.6h1.6V72.7z M94.6,65.6h-2v-2h2V65.6z M98.1,76.4h-1.6v-1.6h1.6V76.4z M98.3,69.3h-2
	v-2h2V69.3z M98.4,62.1h-2.3v-2.3h2.3V62.1z M101.9,72.9h-2v-2h2V72.9z M102.1,65.8h-2.4v-2.4h2.4V65.8z M105.6,76.6h-2v-2h2V76.6z
	 M105.7,69.4h-2.3v-2.3h2.3V69.4z M105.9,62.3h-2.7v-2.7h2.7V62.3z M109.4,73.1H107v-2.4h2.4V73.1z M109.6,66h-2.7v-2.7h2.7V66z
	 M113,76.7h-2.3v-2.3h2.3V76.7z M113.2,69.6h-2.7v-2.7h2.7V69.6z M113.3,62.3h-2.7v-2.7h2.7V62.3z M116.9,73.3h-2.7v-2.7h2.7V73.3z
	 M117,66h-2.7v-2.7h2.7V66z M120.5,76.9h-2.7v-2.7h2.7V76.9z M120.6,69.6h-2.7v-2.7h2.7V69.6z M121.5,63.3h2.7V66h-2.7V63.3z
	 M124.3,73.3h-2.7v-2.7h2.7V73.3z M125.1,66.9h2.7v2.7h-2.7V66.9z M128,76.9h-2.7v-2.7h2.7V76.9z M131.6,73.3h-2.7v-2.7h2.7V73.3z
	 M131.6,66h-2.7v-2.7h2.7V66z M135.2,76.9h-2.7v-2.7h2.7V76.9z M135.2,69.6h-2.7v-2.7h2.7V69.6z M138.9,73.3h-2.7v-2.7h2.7V73.3z
	 M139.8,76.9v-2.7h2.7v2.7H139.8z"/>
<g>
	<path class="st1" d="M4,28.7v25.2H0V0h5.8c3.1,0,6.2,1,6.2,6.1v15.9c0,3.1-1.2,4.5-2.8,5.1c1.6,0.5,2.8,2,2.8,5.1v13.2
		c0,6,0.4,7.5,0.9,8.6H8.7c-0.3-0.8-0.6-1.9-0.6-5V32.3c0-2.8-0.8-3.6-3.1-3.6H4z M5.6,25.3c1.8,0,2.5-0.6,2.5-2.4V6
		c0-1.8-0.7-2.5-2.5-2.5H4v21.9H5.6z"/>
	<path class="st1" d="M22.8,50.4h5.5v3.5h-9.5V0h9.5v3.5h-5.5v20.6h4.7v3.5h-4.7V50.4z"/>
	<path class="st1" d="M42.1,27.9H40v-3.5H46v29.5h-2.1L43.5,52c-0.8,1.7-2.4,2.4-4.4,2.4c-3,0-5.2-1.7-5.2-6.5v-42
		c0-4.5,2.2-6.5,6-6.5c3.8,0,5.9,2,5.9,6.5v14.9h-3.8V5.4c0-1.6-0.6-2.5-2.1-2.5S38,3.8,38,5.4v43.1c0,1.6,0.6,2.5,2,2.5
		c1.5,0,2.2-0.8,2.2-2.5V27.9z"/>
	<path class="st1" d="M52,0h4v53.9h-4V0z"/>
	<path class="st1" d="M65.6,48.5c0,1.6,0.5,2.5,2,2.5c1.5,0,2-0.8,2-2.5v-7.8c0-13.2-7.8-14.8-7.8-29.8V5.9c0-4.5,2.1-6.5,5.9-6.5
		c3.8,0,5.8,2,5.8,6.5v12.2h-3.8V5.4c0-1.6-0.5-2.5-2-2.5c-1.5,0-2,0.8-2,2.5v6.1c0,13.2,7.8,14.8,7.8,29.8v6.7
		c0,4.5-2.1,6.5-5.9,6.5c-3.8,0-5.8-2-5.8-6.5V34.1h3.8V48.5z"/>
	<path class="st1" d="M90.3,3.5h-3.7v50.4h-4V3.5h-3.7V0h11.4V3.5z"/>
	<path class="st1" d="M99.7,50.4h5.5v3.5h-9.5V0h9.5v3.5h-5.5v20.6h4.7v3.5h-4.7V50.4z"/>
	<path class="st1" d="M115.1,28.7v25.2h-4V0h5.8c3.1,0,6.2,1,6.2,6.1v15.9c0,3.1-1.2,4.5-2.8,5.1c1.6,0.5,2.8,2,2.8,5.1v13.2
		c0,6,0.4,7.5,0.9,8.6h-4.3c-0.3-0.8-0.6-1.9-0.6-5V32.3c0-2.8-0.8-3.6-3.1-3.6H115.1z M116.7,25.3c1.8,0,2.5-0.6,2.5-2.4V6
		c0-1.8-0.7-2.5-2.5-2.5h-1.6v21.9H116.7z"/>
</g>
</svg>
