<?xml version="1.0" encoding="utf-8"?>
<!-- Generator: Adobe Illustrator 21.0.2, SVG Export Plug-In . SVG Version: 6.00 Build 0)  -->
<svg version="1.1" id="Layer_1" xmlns="http://www.w3.org/2000/svg" xmlns:xlink="http://www.w3.org/1999/xlink" x="0px" y="0px"
	 viewBox="0 0 218 280.9" style="enable-background:new 0 0 218 280.9;" xml:space="preserve">
<style type="text/css">
	.st0{fill:#FFFFFF;}
	.st1{fill:#EB6661;}
	.st2{fill:#24245A;}
</style>
<path class="st0" d="M95.7,83.6H0l12.2,11.8H108L95.7,83.6z M92.9,85h2.7v2.7h-2.7V85z M85.6,85h2.7v2.7h-2.7V85z M36.2,86.9h-1v-1
	h1V86.9z M39.9,90.6h-1v-1h1V90.6z M43.5,94.2h-1v-1h1V94.2z M43.7,87h-1.3v-1.2h1.3V87z M47.2,97.9h-1v-1h1V97.9z M47.3,90.6h-1.2
	v-1.2h1.2V90.6z M50.8,101.5h-1v-1h1V101.5z M51,94.3h-1.3v-1.2H51V94.3z M51.2,87.2h-1.6v-1.6h1.6V87.2z M54.6,97.9h-1.2v-1.2h1.2
	V97.9z M54.8,90.8h-1.6v-1.6h1.6V90.8z M58.3,101.6H57v-1.2h1.3V101.6z M58.5,94.5h-1.6v-1.6h1.6V94.5z M58.7,87.3h-2v-1.9h2V87.3z
	 M62.1,98.1h-1.6v-1.6h1.6V98.1z M62.3,91h-2v-2h2V91z M65.9,101.8h-1.6v-1.6h1.6V101.8z M66.1,94.7h-2v-2h2V94.7z M66.2,87.5h-2.3
	v-2.3h2.3V87.5z M69.7,98.3h-2v-2h2V98.3z M69.9,91.2h-2.4v-2.4h2.4V91.2z M73.4,102h-2v-2h2V102z M73.5,94.8h-2.3v-2.3h2.3V94.8z
	 M73.7,87.7H71V85h2.7V87.7z M77.2,98.5h-2.4v-2.4h2.4V98.5z M77.4,91.4h-2.7v-2.7h2.7V91.4z M80.8,102.1h-2.3v-2.3h2.3V102.1z
	 M81,95h-2.7v-2.7H81V95z M81.1,87.7h-2.7V85h2.7V87.7z M84.7,98.7H82V96h2.7V98.7z M84.8,91.4h-2.7v-2.7h2.7V91.4z M88.3,102.3
	h-2.7v-2.7h2.7V102.3z M88.4,95h-2.7v-2.7h2.7V95z M89.3,88.7H92v2.7h-2.7V88.7z M92.1,98.7h-2.7V96h2.7V98.7z M92.9,92.3h2.7V95
	h-2.7V92.3z M95.7,102.3H93v-2.7h2.7V102.3z M99.3,98.7h-2.7V96h2.7V98.7z M99.3,91.4h-2.7v-2.7h2.7V91.4z M102.9,102.3h-2.7v-2.7
	h2.7V102.3z M102.9,95h-2.7v-2.7h2.7V95z M106.6,98.7h-2.7V96h2.7V98.7z M107.5,102.3v-2.7h2.7v2.7H107.5z"/>
<path class="st0" d="M141.7,171.6H77.5l12.2,11.8H154L141.7,171.6z M138.9,173h2.7v2.7h-2.7V173z M131.6,173h2.7v2.7h-2.7V173z
	 M82.2,174.9h-1v-1h1V174.9z M85.9,178.6h-1v-1h1V178.6z M89.5,182.2h-1v-1h1V182.2z M89.7,175h-1.3v-1.2h1.3V175z M93.2,185.9h-1
	v-1h1V185.9z M93.3,178.6h-1.2v-1.2h1.2V178.6z M96.8,189.5h-1v-1h1V189.5z M97,182.3h-1.3v-1.2H97V182.3z M97.2,175.2h-1.6v-1.6
	h1.6V175.2z M100.6,185.9h-1.2v-1.2h1.2V185.9z M100.8,178.8h-1.6v-1.6h1.6V178.8z M104.3,189.6H103v-1.2h1.3V189.6z M104.5,182.5
	h-1.6v-1.6h1.6V182.5z M104.7,175.3h-2v-1.9h2V175.3z M108.1,186.1h-1.6v-1.6h1.6V186.1z M108.3,179h-2v-2h2V179z M111.9,189.8h-1.6
	v-1.6h1.6V189.8z M112.1,182.7h-2v-2h2V182.7z M112.2,175.5h-2.3v-2.3h2.3V175.5z M115.7,186.3h-2v-2h2V186.3z M115.9,179.2h-2.4
	v-2.4h2.4V179.2z M119.4,190h-2v-2h2V190z M119.5,182.8h-2.3v-2.3h2.3V182.8z M119.7,175.7H117V173h2.7V175.7z M123.2,186.5h-2.4
	v-2.4h2.4V186.5z M123.4,179.4h-2.7v-2.7h2.7V179.4z M126.8,190.1h-2.3v-2.3h2.3V190.1z M127,183h-2.7v-2.7h2.7V183z M127.1,175.7
	h-2.7V173h2.7V175.7z M130.7,186.7H128V184h2.7V186.7z M130.8,179.4h-2.7v-2.7h2.7V179.4z M134.3,190.3h-2.7v-2.7h2.7V190.3z
	 M134.4,183h-2.7v-2.7h2.7V183z M135.3,176.7h2.7v2.7h-2.7V176.7z M138.1,186.7h-2.7V184h2.7V186.7z M138.9,180.3h2.7v2.7h-2.7
	V180.3z M141.7,190.3H139v-2.7h2.7V190.3z M145.3,186.7h-2.7V184h2.7V186.7z M145.3,179.4h-2.7v-2.7h2.7V179.4z M148.9,190.3h-2.7
	v-2.7h2.7V190.3z M148.9,183h-2.7v-2.7h2.7V183z M152.6,186.7h-2.7V184h2.7V186.7z M153.5,190.3v-2.7h2.7v2.7H153.5z"/>
<path class="st0" d="M203.5,259.6h-68.4l12.2,11.8h68.4L203.5,259.6z M200.7,261h2.7v2.7h-2.7V261z M193.4,261h2.7v2.7h-2.7V261z
	 M144,262.9h-1v-1h1V262.9z M147.7,266.6h-1v-1h1V266.6z M151.3,270.2h-1v-1h1V270.2z M151.5,263h-1.3v-1.2h1.3V263z M155,274h-1v-1
	h1V274z M155.1,266.6h-1.2v-1.2h1.2V266.6z M158.6,277.6h-1v-1h1V277.6z M158.8,270.3h-1.3v-1.2h1.3V270.3z M159,263.2h-1.6v-1.6
	h1.6V263.2z M162.4,274h-1.2v-1.2h1.2V274z M162.6,266.8H161v-1.6h1.6V266.8z M166.1,277.7h-1.3v-1.2h1.3V277.7z M166.3,270.5h-1.6
	v-1.6h1.6V270.5z M166.5,263.3h-2v-1.9h2V263.3z M169.9,274.2h-1.6v-1.6h1.6V274.2z M170.1,267h-2v-2h2V267z M173.6,277.9H172v-1.6
	h1.6V277.9z M173.8,270.7h-2v-2h2V270.7z M173.9,263.5h-2.3v-2.3h2.3V263.5z M177.4,274.4h-2v-2h2V274.4z M177.6,267.2h-2.4v-2.4
	h2.4V267.2z M181.1,278.1h-2v-2h2V278.1z M181.2,270.8h-2.3v-2.3h2.3V270.8z M181.4,263.7h-2.7V261h2.7V263.7z M184.9,274.6h-2.4
	v-2.4h2.4V274.6z M185.1,267.4h-2.7v-2.7h2.7V267.4z M188.5,278.2h-2.3v-2.3h2.3V278.2z M188.7,271H186v-2.7h2.7V271z M188.8,263.7
	h-2.7V261h2.7V263.7z M192.5,274.8h-2.7v-2.7h2.7V274.8z M192.6,267.4h-2.7v-2.7h2.7V267.4z M196.1,278.4h-2.7v-2.7h2.7V278.4z
	 M196.2,271h-2.7v-2.7h2.7V271z M197.1,264.7h2.7v2.7h-2.7V264.7z M199.9,274.8h-2.7v-2.7h2.7V274.8z M200.7,268.3h2.7v2.7h-2.7
	V268.3z M203.5,278.4h-2.7v-2.7h2.7V278.4z M207.1,274.8h-2.7v-2.7h2.7V274.8z M207.1,267.4h-2.7v-2.7h2.7V267.4z M210.7,278.4H208
	v-2.7h2.7V278.4z M210.7,271H208v-2.7h2.7V271z M214.4,274.8h-2.7v-2.7h2.7V274.8z M215.3,278.4v-2.7h2.7v2.7H215.3z"/>
<g>
	<g>
		<path class="st1" d="M8.6,79.7H2.7V0.8h8.5c4.5,0,9.1,1.5,9.1,8.9v27.4c0,7.4-4.6,8.9-9.1,8.9H8.6V79.7z M8.6,5.9v35.1h2.3
			c2.6,0,3.6-1,3.6-3.6V9.6c0-2.7-1-3.7-3.6-3.7H8.6z"/>
		<path class="st1" d="M34.7,42.9v36.9h-5.9V0.8h8.6c4.5,0,9.1,1.5,9.1,8.9v23.2c0,4.5-1.7,6.5-4.1,7.4c2.4,0.8,4.1,2.9,4.1,7.4
			v19.3c0,8.8,0.6,11.1,1.4,12.6h-6.3c-0.5-1.1-0.9-2.8-0.9-7.3V48.2c0-4.1-1.1-5.3-4.5-5.3H34.7z M37.1,37.9c2.6,0,3.6-0.9,3.6-3.5
			V9.6c0-2.7-1-3.7-3.6-3.7h-2.4v32H37.1z"/>
		<path class="st1" d="M62.2,74.7h8.1v5.1h-14V0.8h13.9v5.1h-8v30.2h6.9v5.1h-6.9V74.7z"/>
		<path class="st1" d="M84,71.8c0,2.4,0.8,3.6,2.9,3.6s2.9-1.2,2.9-3.6V60.3c0-19.4-11.4-21.7-11.4-43.6V9.5c0-6.5,3-9.5,8.7-9.5
			c5.5,0,8.6,2.9,8.6,9.5v17.9h-5.5V8.7c0-2.4-0.8-3.6-2.9-3.6s-2.9,1.2-2.9,3.6v8.9c0,19.4,11.4,21.7,11.4,43.6V71
			c0,6.5-3,9.5-8.7,9.5c-5.5,0-8.6-2.9-8.6-9.5V50.8H84V71.8z"/>
	</g>
</g>
<g>
	<g>
		<path class="st1" d="M85.8,162.7H94v5.1H80V88.8h13.9v5.1h-8v30.2h6.9v5.1h-6.9V162.7z"/>
		<path class="st1" d="M121.2,88.8v78.9h-6l-6-42.7c-0.8-5.3-1.7-13.6-2.3-19.1c0.1,5.5,0.6,14.1,0.6,19.2v42.6h-5.1V88.8h7.4
			l4.6,33.9c0.7,4.8,1.6,14.1,2.3,19.5c-0.2-5.4-0.6-14.7-0.6-19.8V88.8H121.2z"/>
		<path class="st1" d="M145.9,93.9h-5.4v73.9h-5.9V93.9h-5.4v-5.1h16.7V93.9z"/>
	</g>
</g>
<g>
	<g>
		<path class="st1" d="M141,250.6h8.3v5.2H135V175h14.2v5.2H141v30.9h7v5.2h-7V250.6z"/>
		<path class="st1" d="M164,218v37.7h-6V175h8.8c4.6,0,9.3,1.5,9.3,9.1v23.8c0,4.6-1.7,6.7-4.2,7.6c2.4,0.8,4.2,3,4.2,7.6v19.7
			c0,9,0.6,11.3,1.4,12.9H171c-0.5-1.2-0.9-2.9-0.9-7.5v-24.8c0-4.2-1.2-5.4-4.6-5.4H164z M166.4,213c2.7,0,3.7-0.9,3.7-3.6V184
			c0-2.8-1-3.8-3.7-3.8H164V213H166.4z"/>
		<path class="st1" d="M190.8,247.7c0,2.4,0.8,3.7,3,3.7s3-1.3,3-3.7v-11.8c0-19.8-11.7-22.2-11.7-44.7v-7.4c0-6.7,3.1-9.7,8.9-9.7
			c5.7,0,8.8,3,8.8,9.7v18.3h-5.7v-19.2c0-2.4-0.8-3.7-3-3.7s-3,1.3-3,3.7v9.1c0,19.8,11.7,22.2,11.7,44.7v10c0,6.7-3.1,9.7-8.9,9.7
			c-5.7,0-8.8-3-8.8-9.7v-20.8h5.7V247.7z"/>
	</g>
</g>
<g>
	<g>
		<path class="st2" d="M114.8,33.5c0,2.3-1.8,4.1-4.9,4.1c-2.6,0-4-1.6-4-1.6l1.1-1.7c0,0,1,1.2,2.7,1.2c1.6,0,2.4-0.8,2.4-1.9
			c0-2.3-5.7-1.1-5.7-5.5c0-2.1,1.7-3.8,4.3-3.8c2.5,0,3.7,1.4,3.7,1.4l-1,1.7c0,0-1-1-2.5-1c-1.2,0-1.9,0.7-1.9,1.6
			C109.2,30.3,114.8,29.3,114.8,33.5z"/>
		<path class="st2" d="M117.6,24.6h8.3v2.1h-5.8v3.2h3.9V32h-3.9v3.2h5.9v2.1h-8.4V24.6z"/>
		<path class="st2" d="M133.3,24.6c2.8,0,4.4,1.6,4.4,4.1c0,2.8-2,3.6-2,3.6v0.1l2.9,4.8h-2.8l-2.5-4.3h-2.1v4.3h-2.5V24.6H133.3z
			 M131.3,30.8h2.1c1,0,1.8-0.8,1.8-2.1c0-1.3-0.8-2.1-1.8-2.1h-2.1V30.8z"/>
		<path class="st2" d="M143.6,37.2h-2.5V24.6h2.5V37.2z"/>
		<path class="st2" d="M152.1,37.5c-3.1,0-5.5-2.4-5.5-6.7s2.4-6.7,5.5-6.7c3.1,0,5.5,2.4,5.5,6.7S155.1,37.5,152.1,37.5z
			 M152.1,26.4c-1.5,0-2.9,1.4-2.9,4.5c0,3.2,1.4,4.5,2.9,4.5s2.9-1.4,2.9-4.5C155,27.7,153.6,26.4,152.1,26.4z"/>
		<path class="st2" d="M163,33.1c0,1.4,0.8,2.3,2.3,2.3s2.3-0.8,2.3-2.3v-8.6h2.5v8.6c0,2.5-1.9,4.4-4.8,4.4s-4.8-1.9-4.8-4.4v-8.6
			h2.5V33.1z"/>
		<path class="st2" d="M181.2,33.5c0,2.3-1.8,4.1-4.9,4.1c-2.6,0-4-1.6-4-1.6l1.1-1.7c0,0,1,1.2,2.7,1.2c1.6,0,2.4-0.8,2.4-1.9
			c0-2.3-5.7-1.1-5.7-5.5c0-2.1,1.7-3.8,4.3-3.8c2.5,0,3.7,1.4,3.7,1.4l-1,1.7c0,0-1-1-2.5-1c-1.2,0-1.9,0.7-1.9,1.6
			C175.5,30.3,181.2,29.3,181.2,33.5z"/>
		<path class="st2" d="M184,24.6h2.5v10.5h5.3v2.1H184V24.6z"/>
		<path class="st2" d="M199.3,24.6h2.6l-4,8.6v4h-2.5v-4l-4-8.6h2.6l2.6,5.6h0.1L199.3,24.6z"/>
		<path class="st2" d="M202.9,39.5l-0.5-0.8c0,0,0.7-0.5,0.9-1.3v-0.1c0,0-1.1-0.2-1.1-1.3c0-0.8,0.5-1.4,1.3-1.4
			c0.7,0,1.3,0.5,1.3,1.5C204.7,38.5,202.9,39.5,202.9,39.5z"/>
		<path class="st2" d="M133.2,46.2h2.5v10.5h5.3v2.1h-7.8V46.2z"/>
		<path class="st2" d="M148.1,59.1c-3.1,0-5.5-2.4-5.5-6.7s2.4-6.7,5.5-6.7c3.1,0,5.5,2.4,5.5,6.7S151.1,59.1,148.1,59.1z M148.1,48
			c-1.5,0-2.9,1.4-2.9,4.5c0,3.2,1.4,4.5,2.9,4.5c1.5,0,2.9-1.4,2.9-4.5C151,49.3,149.6,48,148.1,48z"/>
		<path class="st2" d="M161.4,59.1c-3.1,0-5.5-2.4-5.5-6.7s2.4-6.7,5.5-6.7c3.1,0,5.5,2.4,5.5,6.7S164.4,59.1,161.4,59.1z M161.4,48
			c-1.5,0-2.9,1.4-2.9,4.5c0,3.2,1.4,4.5,2.9,4.5s2.9-1.4,2.9-4.5C164.2,49.3,162.9,48,161.4,48z"/>
		<path class="st2" d="M172.4,58.8h-2.5V46.2h2.5v5.7h0.1l4-5.7h2.8l-3.8,5.3l4.1,7.3h-2.7l-2.9-5.2l-1.6,2.3V58.8z"/>
		<path class="st2" d="M187.4,58.8h-2.6l4.1-12.6h3.2l4.1,12.6h-2.6l-0.8-2.5h-4.4L187.4,58.8z M190.5,49.5L190.5,49.5l-1.5,4.6h3
			L190.5,49.5z"/>
		<path class="st2" d="M205.1,46.2v2.1h-3.2v10.5h-2.5V48.2h-3.2v-2.1H205.1z"/>
		<path class="st2" d="M159,67.8v2.1h-3.2v10.5h-2.5V69.8h-3.2v-2.1H159z"/>
		<path class="st2" d="M170.9,67.8v12.6h-2.5v-5.2h-4.4v5.2h-2.5V67.8h2.5v5.3h4.4v-5.3H170.9z"/>
		<path class="st2" d="M174.5,67.8h8.3v2.1h-5.8v3.2h3.9v2.1h-3.9v3.2h5.9v2.1h-8.4V67.8z"/>
		<path class="st2" d="M193.7,76.7c0,2.3-1.8,4.1-4.9,4.1c-2.6,0-4-1.6-4-1.6l1.1-1.7c0,0,1,1.2,2.7,1.2c1.6,0,2.4-0.8,2.4-1.9
			c0-2.3-5.7-1.1-5.7-5.5c0-2.1,1.7-3.8,4.3-3.8c2.5,0,3.7,1.4,3.7,1.4l-1,1.7c0,0-1-1-2.5-1c-1.2,0-1.9,0.7-1.9,1.6
			C188.1,73.5,193.7,72.5,193.7,76.7z"/>
		<path class="st2" d="M196.5,67.8h8.3v2.1h-5.8v3.2h3.9v2.1h-3.9v3.2h5.9v2.1h-8.4V67.8z"/>
		<path class="st2" d="M141.1,102h-2.5V89.4h4.6c2.9,0,4.6,1.7,4.6,4.3c0,2.6-1.7,4.3-4.6,4.3h-2.1V102z M141.1,91.4v4.5h2.1
			c1.1,0,2-0.9,2-2.3s-0.9-2.3-2-2.3H141.1z"/>
		<path class="st2" d="M150.3,89.4h8.3v2.1h-5.8v3.2h3.9v2.1h-3.9v3.2h5.9v2.1h-8.4V89.4z"/>
		<path class="st2" d="M165.9,102.3c-3.1,0-5.5-2.4-5.5-6.7s2.4-6.7,5.5-6.7c3.1,0,5.5,2.4,5.5,6.7S169,102.3,165.9,102.3z
			 M165.9,91.2c-1.5,0-2.9,1.3-2.9,4.5c0,3.2,1.4,4.5,2.9,4.5c1.5,0,2.9-1.4,2.9-4.5C168.8,92.5,167.5,91.2,165.9,91.2z"/>
		<path class="st2" d="M177,102h-2.5V89.4h4.6c2.9,0,4.6,1.7,4.6,4.3c0,2.6-1.7,4.3-4.6,4.3H177V102z M177,91.4v4.5h2.1
			c1.1,0,2-0.9,2-2.3s-0.9-2.3-2-2.3H177z"/>
		<path class="st2" d="M186.2,89.4h2.5v10.5h5.3v2.1h-7.8V89.4z"/>
		<path class="st2" d="M196.5,89.4h8.3v2.1h-5.8v3.2h3.9v2.1h-3.9v3.2h5.9v2.1h-8.4V89.4z"/>
	</g>
</g>
</svg>
