<?xml version="1.0" encoding="utf-8"?>
<!-- Generator: Adobe Illustrator 21.0.2, SVG Export Plug-In . SVG Version: 6.00 Build 0)  -->
<svg version="1.1" id="Layer_1" xmlns="http://www.w3.org/2000/svg" xmlns:xlink="http://www.w3.org/1999/xlink" x="0px" y="0px"
	 viewBox="0 0 255.8 60" style="enable-background:new 0 0 255.8 60;" xml:space="preserve">
<style type="text/css">
	.st0{fill:#C0BFBF;}
	.st1{fill:#EB6661;}
	.st2{fill:#C64852;}
</style>
<polygon class="st0" points="26.1,27.2 0,53.3 0,60 246.8,60 255.8,51 46,51 26.1,31.1 "/>
<rect x="30.1" class="st1" width="209.9" height="35.1"/>
<path class="st2" d="M235.9,31.1H26.1L46,51h209.8L235.9,31.1z M233.1,32.5h2.7v2.7h-2.7V32.5z M225.8,32.5h2.7v2.7h-2.7V32.5z
	 M176.4,34.4h-1v-1h1V34.4z M180.1,38.1h-1v-1h1V38.1z M183.7,41.7h-1v-1h1V41.7z M183.9,34.5h-1.3v-1.2h1.3V34.5z M187.4,45.4h-1
	v-1h1V45.4z M187.5,38.1h-1.2v-1.2h1.2V38.1z M191,49h-1v-1h1V49z M191.2,41.8h-1.3v-1.2h1.3V41.8z M191.4,34.7h-1.6v-1.6h1.6V34.7z
	 M194.8,45.4h-1.2v-1.2h1.2V45.4z M195,38.3h-1.6v-1.6h1.6V38.3z M198.5,49.1h-1.3v-1.2h1.3V49.1z M198.7,42h-1.6v-1.6h1.6V42z
	 M198.9,34.8h-2v-1.9h2V34.8z M202.3,45.6h-1.6V44h1.6V45.6z M202.5,38.5h-2v-2h2V38.5z M206,49.3h-1.6v-1.6h1.6V49.3z M206.2,42.2
	h-2v-2h2V42.2z M206.3,35H204v-2.3h2.3V35z M209.8,45.8h-2v-2h2V45.8z M210,38.7h-2.4v-2.4h2.4V38.7z M213.6,49.5h-2v-2h2V49.5z
	 M213.7,42.3h-2.3V40h2.3V42.3z M213.9,35.2h-2.7v-2.7h2.7V35.2z M217.4,46H215v-2.4h2.4V46z M217.6,38.9h-2.7v-2.7h2.7V38.9z
	 M221,49.6h-2.3v-2.3h2.3V49.6z M221.2,42.5h-2.7v-2.7h2.7V42.5z M221.3,35.2h-2.7v-2.7h2.7V35.2z M224.9,46.2h-2.7v-2.7h2.7V46.2z
	 M225,38.9h-2.7v-2.7h2.7V38.9z M228.5,49.8h-2.7v-2.7h2.7V49.8z M228.6,42.5h-2.7v-2.7h2.7V42.5z M229.5,36.2h2.7v2.7h-2.7V36.2z
	 M232.3,46.2h-2.7v-2.7h2.7V46.2z M233.1,39.8h2.7v2.7h-2.7V39.8z M235.9,49.8h-2.7v-2.7h2.7V49.8z M239.5,46.2h-2.7v-2.7h2.7V46.2z
	 M239.5,38.9h-2.7v-2.7h2.7V38.9z M243.1,49.8h-2.7v-2.7h2.7V49.8z M243.1,42.5h-2.7v-2.7h2.7V42.5z M246.8,46.2h-2.7v-2.7h2.7V46.2
	z M247.7,49.8v-2.7h2.7v2.7H247.7z"/>
</svg>
