<?xml version="1.0" encoding="utf-8"?>
<!-- Generator: Adobe Illustrator 21.0.2, SVG Export Plug-In . SVG Version: 6.00 Build 0)  -->
<svg version="1.1" id="Layer_1" xmlns="http://www.w3.org/2000/svg" xmlns:xlink="http://www.w3.org/1999/xlink" x="0px" y="0px"
	 viewBox="0 0 318.2 60" style="enable-background:new 0 0 318.2 60;" xml:space="preserve">
<style type="text/css">
	.st0{fill:#C0BFBF;}
	.st1{fill:#EB6661;}
	.st2{fill:#C64852;}
</style>
<polygon class="st0" points="26.1,27.2 0,53.3 0,60 309.2,60 318.2,51 46,51 26.1,31.1 "/>
<rect x="30.1" class="st1" width="272.2" height="35.1"/>
<path class="st2" d="M298.2,31.1H26.1L46,51h272.2L298.2,31.1z M295.4,32.5h2.7v2.7h-2.7V32.5z M288.1,32.5h2.7v2.7h-2.7V32.5z
	 M238.7,34.4h-1v-1h1V34.4z M242.4,38.1h-1v-1h1V38.1z M246,41.7h-1v-1h1V41.7z M246.2,34.5h-1.3v-1.2h1.3V34.5z M249.7,45.4h-1v-1
	h1V45.4z M249.8,38.1h-1.2v-1.2h1.2V38.1z M253.3,49h-1v-1h1V49z M253.5,41.8h-1.3v-1.2h1.3V41.8z M253.7,34.7h-1.6v-1.6h1.6V34.7z
	 M257.1,45.4h-1.2v-1.2h1.2V45.4z M257.3,38.3h-1.6v-1.6h1.6V38.3z M260.9,49.1h-1.3v-1.2h1.3V49.1z M261.1,42h-1.6v-1.6h1.6V42z
	 M261.3,34.8h-2v-1.9h2V34.8z M264.7,45.6h-1.6V44h1.6V45.6z M264.9,38.5h-2v-2h2V38.5z M268.4,49.3h-1.6v-1.6h1.6V49.3z
	 M268.6,42.2h-2v-2h2V42.2z M268.7,35h-2.3v-2.3h2.3V35z M272.2,45.8h-2v-2h2V45.8z M272.4,38.7H270v-2.4h2.4V38.7z M275.9,49.5h-2
	v-2h2V49.5z M276,42.3h-2.3V40h2.3V42.3z M276.2,35.2h-2.7v-2.7h2.7V35.2z M279.7,46h-2.4v-2.4h2.4V46z M279.9,38.9h-2.7v-2.7h2.7
	V38.9z M283.3,49.6H281v-2.3h2.3V49.6z M283.5,42.5h-2.7v-2.7h2.7V42.5z M283.6,35.2h-2.7v-2.7h2.7V35.2z M287.2,46.2h-2.7v-2.7h2.7
	V46.2z M287.3,38.9h-2.7v-2.7h2.7V38.9z M290.8,49.8h-2.7v-2.7h2.7V49.8z M290.9,42.5h-2.7v-2.7h2.7V42.5z M291.8,36.2h2.7v2.7h-2.7
	V36.2z M294.6,46.2h-2.7v-2.7h2.7V46.2z M295.4,39.8h2.7v2.7h-2.7V39.8z M298.2,49.8h-2.7v-2.7h2.7V49.8z M301.8,46.2h-2.7v-2.7h2.7
	V46.2z M301.8,38.9h-2.7v-2.7h2.7V38.9z M305.5,49.8h-2.7v-2.7h2.7V49.8z M305.5,42.5h-2.7v-2.7h2.7V42.5z M309.2,46.2h-2.7v-2.7
	h2.7V46.2z M310.1,49.8v-2.7h2.7v2.7H310.1z"/>
</svg>
