<?xml version="1.0" encoding="utf-8"?>
<!-- Generator: Adobe Illustrator 21.0.2, SVG Export Plug-In . SVG Version: 6.00 Build 0)  -->
<svg version="1.1" id="Layer_1" xmlns="http://www.w3.org/2000/svg" xmlns:xlink="http://www.w3.org/1999/xlink" x="0px" y="0px"
	 viewBox="0 0 41.2 618" style="enable-background:new 0 0 41.2 618;" xml:space="preserve" preserveAspectRatio="xMinYMax slice">
<style type="text/css">
	.st0{fill:#E3E5E5;}
</style>
<g>
	<rect y="591.7" class="st0" width="2.9" height="5.8"/>
	<rect x="15.6" y="527.7" class="st0" width="10" height="10"/>
	<rect x="14.5" y="485.5" class="st0" width="12.2" height="12.2"/>
	<rect x="16.6" y="570" class="st0" width="7.9" height="7.9"/>
	<rect x="17.7" y="612.2" class="st0" width="5.8" height="5.8"/>
	<rect y="549.4" class="st0" width="4" height="7.9"/>
	<rect y="338.1" class="st0" width="9.3" height="18.5"/>
	<rect y="380.4" class="st0" width="8.2" height="16.4"/>
	<rect y="507.1" class="st0" width="5" height="10"/>
	<rect y="464.9" class="st0" width="6.1" height="12.2"/>
	<rect y="422.6" class="st0" width="7.1" height="14.3"/>
	<rect x="36.1" y="507.1" class="st0" width="5" height="10"/>
	<rect x="33" y="380.4" class="st0" width="8.2" height="16.4"/>
	<rect x="34" y="422.6" class="st0" width="7.1" height="14.3"/>
	<rect x="13.4" y="443.2" class="st0" width="14.3" height="14.3"/>
	<path class="st0" d="M32,295.8v-19.5h9.2v-22.8H33v-17.4h8.1v-24.9h-7.1v-15.2h7.1v-27h-6v-13.1h6v-29.1h-4.9v-11h4.9V84.5h-3.9
		v-8.9h3.9V42.3h-2.8v-6.8h2.8V0H0v35.5h2.8v6.8H0v33.4h3.9v8.9H0v31.3h4.9v11H0v29.1h6V169H0v27h7.1v15.2H0v24.9h8.1v17.4H0v22.8
		h9.2v19.5H0v20.7h10.3v20.6h20.7v-20.6h10.3v-20.7H32z M30.8,296.9v19.5H10.3v-19.5H30.8z M11.4,274.2v-17.4h18.4v17.4H11.4z
		 M12.4,231.9v-15.2h16.3v15.2H12.4z M13.5,189.6v-13.1h14.1v13.1H13.5z M14.6,147.4v-11h12v11H14.6z M15.6,105.1v-8.9h9.9v8.9H15.6
		z M16.7,62.8v-6.8h7.8v6.8H16.7z"/>
	<rect x="31.9" y="338.1" class="st0" width="9.3" height="18.5"/>
	<rect x="35.1" y="464.9" class="st0" width="6.1" height="12.2"/>
	<rect x="11.3" y="358.7" class="st0" width="18.5" height="18.5"/>
	<rect x="38.3" y="591.7" class="st0" width="2.9" height="5.8"/>
	<rect x="12.4" y="400.9" class="st0" width="16.4" height="16.4"/>
	<rect x="37.2" y="549.4" class="st0" width="4" height="7.9"/>
</g>
</svg>
