<?xml version="1.0" encoding="utf-8"?>
<!-- Generator: Adobe Illustrator 21.0.2, SVG Export Plug-In . SVG Version: 6.00 Build 0)  -->
<svg version="1.1" id="Layer_1" xmlns="http://www.w3.org/2000/svg" xmlns:xlink="http://www.w3.org/1999/xlink" x="0px" y="0px"
	 viewBox="0 0 68 917.1" style="enable-background:new 0 0 68 917.1;" xml:space="preserve">
<style type="text/css">
	.st0{fill:#FFFFFF;}
</style>
<g>
	<rect x="63.4" y="78.9" class="st0" width="2.8" height="2.8"/>
	<rect x="61.9" y="135.1" class="st0" width="5.7" height="5.7"/>
	<rect x="61.6" y="149.1" class="st0" width="6.5" height="6.5"/>
	<rect x="63.8" y="64.8" class="st0" width="2" height="2"/>
	<path class="st0" d="M68,192.4v-1.1H62v-6.1H68v-0.8v-7.2h-6.4v-6.8H68v-7.2h-6.8V156H54v-7.2h-7.2v-7.2h-7.2v-7.2h-7.2v-7.2h-7.2
		V120H18v-7.2h-7.2v-7.2H3.6v-7.2H0v7.2h3.6v6.8H0v8h3.2v6.1H0v8.7h2.8v5.3H0v9.5h2.5v4.6H0v10.2h2.1v3.9H0v10.9h1.7v3.1H0v11.7h1.4
		v2.4H0v654.8l68,65.7V192.4z M56.6,254.3v-2.4H59v2.4H56.6z M13.4,208.7h2.3v2.4h-2.3V208.7z M13,193.9h3.1v3.1H13V193.9z
		 M12.7,179.2h3.8v3.9h-3.8V179.2z M12.3,164.4h4.6v4.6h-4.6V164.4z M11.9,149.6h5.3v5.3h-5.3V149.6z M11.6,134.8h6.1v6.1h-6.1
		V134.8z M53.6,176.9h-6.1v-6.1h6.1V176.9z M49.1,233.1V230h3.1v3.1H49.1z M20.2,204.3v-3.1h3.1v3.1H20.2z M19.9,186.4h3.8v3.9h-3.8
		V186.4z M19.5,171.6h4.6v4.6h-4.6V171.6z M19.1,156.8h5.3v5.3h-5.3V156.8z M46.1,183.7h-5.3v-5.3h5.3V183.7z M41.5,211.8V208h3.8
		v3.9H41.5z M27.1,197.4v-3.9h3.8v3.9H27.1z M26.7,178.8h4.6v4.6h-4.6V178.8z M38.5,190.6h-4.6V186h4.6V190.6z M34.3,204.6v-3.9h3.8
		v3.9H34.3z M41.1,197.8v-4.6h4.6v4.6H41.1z M38.9,176.5h-5.3v-5.3h5.3V176.5z M31.7,169.3h-5.3V164h5.3V169.3z M27.4,211.5v-3.1
		h3.1v3.1H27.4z M34.7,218.7v-3.1h3.1v3.1H34.7z M41.9,225.9v-3.1h3.1v3.1H41.9z M48.7,219v-3.9h3.8v3.9H48.7z M48.3,205v-4.6h4.6
		v4.6H48.3z M47.9,190.9v-5.3h5.3v5.3H47.9z M46.4,169.7h-6.1v-6.1h6.1V169.7z M39.2,162.5h-6.1v-6.1h6.1V162.5z M32,155.3H26v-6.1
		H32V155.3z M24.8,148.1h-6.1V142h6.1V148.1z M20.6,215.9H23v2.4h-2.3V215.9z M27.8,223.1h2.3v2.4h-2.3V223.1z M35,230.3h2.3v2.4H35
		V230.3z M42.2,237.5h2.3v2.4h-2.3V237.5z M49.4,244.7h2.3v2.4h-2.3V244.7z M56.3,240.3v-3.1h3.1v3.1H56.3z M55.9,226.2v-3.9h3.8
		v3.9H55.9z M55.5,212.2v-4.6h4.6v4.6H55.5z M55.1,198.1v-5.3h5.3v5.3H55.1z M54.8,184.1V178h6.1v6.1H54.8z M54.4,170v-6.8h6.8v6.8
		H54.4z M47.2,162.8V156H54v6.8H47.2z M40,155.6v-6.8h6.8v6.8H40z M32.8,148.4v-6.8h6.8v6.8H32.8z M25.6,141.2v-6.8h6.8v6.8H25.6z
		 M18.4,134v-6.8h6.8v6.8H18.4z M11.2,126.8V120H18v6.8H11.2z M4,119.6v-6.8h6.8v6.8H4z M10.4,133.6H4.4v-6.1h6.1V133.6z M10,147.7
		H4.7v-5.3H10V147.7z M9.7,161.7H5.1v-4.6h4.6V161.7z M9.3,175.8H5.5v-3.9h3.8V175.8z M8.9,189.8H5.8v-3.1h3.1V189.8z M8.6,203.9
		H6.2v-2.4h2.3V203.9z M66.2,261.5h-2.3v-2.4h2.3V261.5z M66.6,247.5h-3.1v-3.1h3.1V247.5z M66.9,233.4h-3.8v-3.9h3.8V233.4z
		 M67.3,219.4h-4.6v-4.6h4.6V219.4z M67.7,205.3h-5.3V200h5.3V205.3z"/>
	<rect x="18.7" y="91.9" class="st0" width="5.7" height="5.7"/>
	<rect x="13" y="28.5" class="st0" width="2.8" height="2.8"/>
	<rect x="18.4" y="105.9" class="st0" width="6.5" height="6.5"/>
	<rect x="13.4" y="14.4" class="st0" width="2" height="2"/>
	<rect x="19.1" y="77.8" class="st0" width="5" height="5"/>
	<rect x="12.3" y="56.6" class="st0" width="4.3" height="4.3"/>
	<rect x="11.9" y="70.6" class="st0" width="5" height="5"/>
	<rect x="12.6" y="42.5" class="st0" width="3.5" height="3.5"/>
	<rect x="11.5" y="84.7" class="st0" width="5.7" height="5.7"/>
	<rect x="19.5" y="63.8" class="st0" width="4.3" height="4.3"/>
	<rect x="25.9" y="99.1" class="st0" width="5.7" height="5.7"/>
	<rect x="26.3" y="85" class="st0" width="5" height="5"/>
	<rect x="26.7" y="71" class="st0" width="4.3" height="4.3"/>
	<rect x="20.2" y="35.7" class="st0" width="2.8" height="2.8"/>
	<rect x="20.6" y="21.6" class="st0" width="2" height="2"/>
	<rect x="19.8" y="49.7" class="st0" width="3.5" height="3.5"/>
	<rect x="25.6" y="113.1" class="st0" width="6.5" height="6.5"/>
	<rect x="11.2" y="98.7" class="st0" width="6.5" height="6.5"/>
	<rect y="42.1" class="st0" width="2.1" height="4.3"/>
	<rect y="28.1" class="st0" width="1.8" height="3.5"/>
	<rect class="st0" width="1" height="2"/>
	<rect y="14" class="st0" width="1.4" height="2.8"/>
	<rect y="56.2" class="st0" width="2.5" height="5"/>
	<rect y="84.3" class="st0" width="3.2" height="6.5"/>
	<rect y="70.2" class="st0" width="2.9" height="5.7"/>
	<rect x="4" y="91.5" class="st0" width="6.5" height="6.5"/>
	<rect x="6.2" y="7.2" class="st0" width="2" height="2"/>
	<rect x="5.4" y="35.3" class="st0" width="3.5" height="3.5"/>
	<rect x="5.8" y="21.3" class="st0" width="2.8" height="2.8"/>
	<rect x="63.1" y="92.9" class="st0" width="3.5" height="3.5"/>
	<rect x="4.3" y="77.5" class="st0" width="5.7" height="5.7"/>
	<rect x="27.1" y="56.9" class="st0" width="3.5" height="3.5"/>
	<rect x="4.7" y="63.4" class="st0" width="5" height="5"/>
	<rect x="5.1" y="49.4" class="st0" width="4.3" height="4.3"/>
	<rect x="27.8" y="28.8" class="st0" width="2" height="2"/>
	<rect x="48.7" y="78.5" class="st0" width="3.5" height="3.5"/>
	<rect x="54.7" y="127.9" class="st0" width="5.7" height="5.7"/>
	<rect x="54.4" y="141.9" class="st0" width="6.5" height="6.5"/>
	<rect x="49" y="64.5" class="st0" width="2.8" height="2.8"/>
	<rect x="47.5" y="120.7" class="st0" width="5.7" height="5.7"/>
	<rect x="47.9" y="106.6" class="st0" width="5" height="5"/>
	<rect x="48.3" y="92.6" class="st0" width="4.3" height="4.3"/>
	<rect x="56.2" y="71.7" class="st0" width="2.8" height="2.8"/>
	<rect x="62.3" y="121" class="st0" width="5" height="5"/>
	<rect x="47.2" y="134.7" class="st0" width="6.5" height="6.5"/>
	<rect x="55.1" y="113.8" class="st0" width="5" height="5"/>
	<rect x="62.7" y="107" class="st0" width="4.3" height="4.3"/>
	<rect x="55.5" y="99.8" class="st0" width="4.3" height="4.3"/>
	<rect x="55.9" y="85.7" class="st0" width="3.5" height="3.5"/>
	<rect x="56.6" y="57.6" class="st0" width="2" height="2"/>
	<rect x="49.4" y="50.4" class="st0" width="2" height="2"/>
	<rect x="33.5" y="92.2" class="st0" width="5" height="5"/>
	<rect x="33.9" y="78.2" class="st0" width="4.3" height="4.3"/>
	<rect x="34.3" y="64.1" class="st0" width="3.5" height="3.5"/>
	<rect x="35" y="36" class="st0" width="2" height="2"/>
	<rect x="27.4" y="42.9" class="st0" width="2.8" height="2.8"/>
	<rect x="41.8" y="57.3" class="st0" width="2.8" height="2.8"/>
	<rect x="33.1" y="106.3" class="st0" width="5.7" height="5.7"/>
	<rect x="32.8" y="120.3" class="st0" width="6.5" height="6.5"/>
	<rect x="41.5" y="71.3" class="st0" width="3.5" height="3.5"/>
	<rect x="34.6" y="50.1" class="st0" width="2.8" height="2.8"/>
	<rect x="41.1" y="85.4" class="st0" width="4.3" height="4.3"/>
	<rect x="42.2" y="43.2" class="st0" width="2" height="2"/>
	<rect x="40" y="127.5" class="st0" width="6.5" height="6.5"/>
	<rect x="40.7" y="99.4" class="st0" width="5" height="5"/>
	<rect x="40.3" y="113.5" class="st0" width="5.7" height="5.7"/>
</g>
</svg>
