<?xml version="1.0" encoding="utf-8"?>
<!-- Generator: Adobe Illustrator 21.0.2, SVG Export Plug-In . SVG Version: 6.00 Build 0)  -->
<svg version="1.1" id="Layer_1" xmlns="http://www.w3.org/2000/svg" xmlns:xlink="http://www.w3.org/1999/xlink" x="0px" y="0px"
	 viewBox="0 0 41.2 618" style="enable-background:new 0 0 41.2 618;" xml:space="preserve" preserveAspectRatio="xMinYMax slice">
<style type="text/css">
	.st0{fill:#E3E5E5;}
</style>
<g>
	<rect x="38.3" y="20.6" class="st0" width="2.9" height="5.8"/>
	<rect x="15.6" y="80.3" class="st0" width="10" height="10"/>
	<rect x="14.5" y="120.4" class="st0" width="12.2" height="12.2"/>
	<rect x="16.6" y="40.1" class="st0" width="7.9" height="7.9"/>
	<rect x="17.7" class="st0" width="5.8" height="5.8"/>
	<rect x="37.2" y="60.7" class="st0" width="4" height="7.9"/>
	<rect x="31.9" y="261.4" class="st0" width="9.3" height="18.5"/>
	<rect x="33" y="221.3" class="st0" width="8.2" height="16.4"/>
	<rect x="36.1" y="100.9" class="st0" width="5" height="10"/>
	<rect x="35.1" y="141" class="st0" width="6.1" height="12.2"/>
	<rect x="34" y="181.1" class="st0" width="7.1" height="14.3"/>
	<rect y="100.9" class="st0" width="5" height="10"/>
	<rect y="221.3" class="st0" width="8.2" height="16.4"/>
	<rect y="181.1" class="st0" width="7.1" height="14.3"/>
	<rect x="13.4" y="160.6" class="st0" width="14.3" height="14.3"/>
	<path class="st0" d="M9.2,322.2v19.5H0v22.8h8.1v17.4H0v24.9h7.1V422H0v27h6v13.1H0v29.1h4.9v11H0v31.3h3.9v8.9H0v33.4h2.8v6.8H0
		V618h41.2v-35.5h-2.8v-6.8h2.8v-33.4h-3.9v-8.9h3.9v-31.3h-4.9v-11h4.9v-29.1h-6V449h6v-27h-7.1v-15.2h7.1v-24.9H33v-17.4h8.1
		v-22.8H32v-19.5h9.2v-20.7H30.9V281H10.3v20.6H0v20.7H9.2z M10.3,321.1v-19.5h20.5v19.5H10.3z M29.8,343.9v17.4H11.4v-17.4H29.8z
		 M28.7,386.2v15.2H12.4v-15.2H28.7z M27.6,428.4v13.1H13.5v-13.1H27.6z M26.6,470.7v11h-12v-11H26.6z M25.5,512.9v8.9h-9.9v-8.9
		H25.5z M24.5,555.2v6.8h-7.8v-6.8H24.5z"/>
	<rect y="261.4" class="st0" width="9.3" height="18.5"/>
	<rect y="141" class="st0" width="6.1" height="12.2"/>
	<rect x="11.3" y="240.8" class="st0" width="18.5" height="18.5"/>
	<rect y="20.6" class="st0" width="2.9" height="5.8"/>
	<rect x="12.4" y="200.7" class="st0" width="16.4" height="16.4"/>
	<rect y="60.7" class="st0" width="4" height="7.9"/>
</g>
</svg>
