<svg id="Layer_1" data-name="Layer 1" xmlns="http://www.w3.org/2000/svg" viewBox="0 0 472.62 93.55"><defs><style>.cls-1{fill:#ffcebd;}</style></defs><title>layers_title</title><path class="cls-1" d="M27.66,5V65.89H59.92v22.7H2.57V5H27.66m2.57-2.57H0V91.16H62.49V63.32H30.23V2.39h0Z"/><path class="cls-1" d="M129.33,5l27.48,83.63H129.33l-3.58-13.14H103L99.46,88.59H72L99.46,5h29.87M109,53.94h10.75L115,36H113.8L109,53.94M131.19,2.39H97.6L97,4.16,69.54,87.79l-1.11,3.37h33l0.52-1.89L105,78h18.77l3.07,11.25,0.52,1.89h33l-1.11-3.37L131.77,4.16l-0.58-1.77h0Zm-18.83,49,2-7.61,2,7.61h-4.06Z"/><path class="cls-1" d="M227.53,5L201.25,63.5V88.59H176.16V63.5L149.88,5h26.88l11.35,29.87h1.19L200.65,5h26.88m4-2.57H198.88L198.25,4,188.7,29.16,179.16,4l-0.63-1.66H145.9L147.53,6l26.06,58V91.16h30.23V64.05L229.88,6l1.63-3.62h0Z"/><path class="cls-1" d="M302.08,5v21.5H266.24V36h22.7v21.5h-22.7v9.56h37v21.5H241.15V5h60.93m2.57-2.57H238.58V91.16h67.27V64.51h-37V60.1h22.7V33.45h-22.7V29h35.84V2.39h0Z"/><path class="cls-1" d="M356.56,5q15.77,0,23.71,7.59t7.94,21.09a23.91,23.91,0,0,1-1.79,10,27.44,27.44,0,0,1-3.82,6.27,18,18,0,0,1-5.73,4.06v1.19l17.32,33.45H366.12L353.57,62.31h-7.77V88.59H320.72V5h35.84M345.81,42H356a5.39,5.39,0,0,0,4.12-2.15,9.26,9.26,0,0,0,1.85-6.21,9.26,9.26,0,0,0-1.85-6.21A5.39,5.39,0,0,0,356,25.27H345.81V42M356.56,2.39H318.15V91.16h30.23V64.88h3.57L363.8,89.69l0.7,1.46h33.92l-1.94-3.75L379.85,55.3a20.79,20.79,0,0,0,4.61-3.65l0.05-.05,0-.06a30.09,30.09,0,0,0,4.2-6.86,26.51,26.51,0,0,0,2-11.05c0-9.69-2.94-17.41-8.74-22.95s-14.34-8.3-25.49-8.3h0Zm-8.18,25.45H356a2.81,2.81,0,0,1,2.17,1.26,6.9,6.9,0,0,1,1.23,4.53,6.9,6.9,0,0,1-1.23,4.54A2.81,2.81,0,0,1,356,39.43h-7.58V27.84h0Z"/><path class="cls-1" d="M440.78,2.57a42.07,42.07,0,0,1,12,1.55,48.14,48.14,0,0,1,8.78,3.46,36.08,36.08,0,0,1,7.29,5.14L458.7,30a38.08,38.08,0,0,0-4.42-3.35,24.94,24.94,0,0,0-5-2.27,19,19,0,0,0-6.15-1q-4.06,0-5.91,1.61a5.49,5.49,0,0,0-1.85,4.36A4.63,4.63,0,0,0,438,33.51a35.77,35.77,0,0,0,6.39,2.93q3.82,1.37,8.36,3A32.76,32.76,0,0,1,461.09,44a23.92,23.92,0,0,1,6.39,7.35q2.57,4.48,2.57,11.53a26.49,26.49,0,0,1-2.27,10.93,26,26,0,0,1-6.57,8.9,31.49,31.49,0,0,1-10.51,6A41.92,41.92,0,0,1,436.6,91a43.06,43.06,0,0,1-13-1.85A53.46,53.46,0,0,1,413.66,85a46.57,46.57,0,0,1-8.72-6L415.1,61.71a32.86,32.86,0,0,0,5.73,4.18A40.4,40.4,0,0,0,427,68.82a20.24,20.24,0,0,0,7.17,1.25q4.54,0,6.75-2a6.68,6.68,0,0,0,2.21-5.14q0-2.27-2.57-3.58a45.25,45.25,0,0,0-6.39-2.57q-3.83-1.25-8.36-2.93a30.74,30.74,0,0,1-8.36-4.66,24.39,24.39,0,0,1-6.39-7.71q-2.57-4.72-2.57-12a24.15,24.15,0,0,1,2.27-10.27,25.39,25.39,0,0,1,6.45-8.54A32.4,32.4,0,0,1,427.4,4.78a38.35,38.35,0,0,1,13.38-2.21m0-2.57a41.09,41.09,0,0,0-14.27,2.37,35.11,35.11,0,0,0-11,6.33,28.07,28.07,0,0,0-7.1,9.4A26.82,26.82,0,0,0,406,29.45a27.54,27.54,0,0,0,2.88,13.24,27.05,27.05,0,0,0,7.07,8.5,33.46,33.46,0,0,0,9.06,5c3,1.12,5.87,2.11,8.45,3a42.93,42.93,0,0,1,6,2.41c1.17,0.6,1.17,1.07,1.17,1.3a4.12,4.12,0,0,1-1.38,3.24c-1,.9-2.66,1.35-5,1.35a17.78,17.78,0,0,1-6.27-1.09,38,38,0,0,1-5.82-2.74,30.49,30.49,0,0,1-5.3-3.86l-2.34-2.13-1.6,2.74L402.73,77.73l-1.07,1.83,1.6,1.4a49.36,49.36,0,0,0,9.2,6.3,56.16,56.16,0,0,0,10.36,4.31,45.8,45.8,0,0,0,13.8,2,44.66,44.66,0,0,0,15-2.36,34.18,34.18,0,0,0,11.36-6.53,28.7,28.7,0,0,0,7.21-9.77,29.17,29.17,0,0,0,2.49-12c0-5.13-1-9.44-2.91-12.81A26.58,26.58,0,0,0,462.64,42a35.48,35.48,0,0,0-9-4.9c-3.07-1.13-5.89-2.16-8.38-3.05a33.42,33.42,0,0,1-5.93-2.71C438,30.51,438,29.8,438,29.45a2.89,2.89,0,0,1,1-2.42c0.73-.63,2.23-1,4.23-1a16.53,16.53,0,0,1,5.32.82,22.55,22.55,0,0,1,4.42,2A35.67,35.67,0,0,1,457,32L459.35,34l1.58-2.69L471.08,14l1-1.79-1.52-1.4a38.82,38.82,0,0,0-7.8-5.51,50.91,50.91,0,0,0-9.27-3.67A44.81,44.81,0,0,0,440.78,0h0Z"/></svg>