<svg id="Layer_1" data-name="Layer 1" xmlns="http://www.w3.org/2000/svg" viewBox="0 0 36.7 39.65"><defs><style>.cls-1{fill:#fff;}.cls-2{fill:#fbc8b3;}</style></defs><title>layers_nav_logo</title><path class="cls-1" d="M1.14,0H2.92V7.43H6.67V8.89H1.14V0Z"/><path class="cls-2" d="M36.7,5.27H13.91V3.75H36.7V5.27Z"/><path class="cls-1" d="M1.84,24.14H0l2.86-8.89H5.08l2.86,8.89H6.1L5.53,22.36H2.41ZM4,17.6H3.94l-1,3.24H5Z"/><path class="cls-1" d="M20,15.25h1.84L19,21.35v2.8H17.24v-2.8l-2.8-6.1h1.84l1.8,3.94h0.08Z"/><path class="cls-2" d="M36.7,20.52H29V19H36.7v1.52Z"/><path class="cls-1" d="M1.14,30.5H7V32H2.92v2.29H5.65v1.46H2.92v2.22H7.05v1.46H1.14V30.5Z"/><path class="cls-1" d="M18.91,30.5a4,4,0,0,1,1.32.2,2.7,2.7,0,0,1,1,.58,2.51,2.51,0,0,1,.61.92A3.33,3.33,0,0,1,22,33.42a3,3,0,0,1-.22,1.23,2.88,2.88,0,0,1-.48.78,2.23,2.23,0,0,1-.7.53V36l2,3.37h-2l-1.78-3H17.44v3H15.67V30.5h3.24Zm-1.46,4.38h1.46a1.19,1.19,0,0,0,.9-0.39,1.73,1.73,0,0,0,0-2.13,1.19,1.19,0,0,0-.9-0.39H17.44v2.92Z"/><path class="cls-1" d="M32.69,32.91a0.79,0.79,0,0,0,.3.65,3,3,0,0,0,.74.43q0.44,0.18,1,.36a4.3,4.3,0,0,1,1,.47,2.54,2.54,0,0,1,.74.76,2.21,2.21,0,0,1,.3,1.21,2.69,2.69,0,0,1-.24,1.12,2.66,2.66,0,0,1-.67.91,3.19,3.19,0,0,1-1.07.61,4.38,4.38,0,0,1-1.45.22A3.78,3.78,0,0,1,32,39.47a4.13,4.13,0,0,1-.86-0.39,3.23,3.23,0,0,1-.71-0.57l0.76-1.21a2.58,2.58,0,0,0,.5.41,2.7,2.7,0,0,0,.61.3,2.41,2.41,0,0,0,.8.12,1.88,1.88,0,0,0,1.29-.38,1.23,1.23,0,0,0,.43-1,0.74,0.74,0,0,0-.3-0.62,3,3,0,0,0-.74-0.4l-1-.34a4,4,0,0,1-1-.47,2.52,2.52,0,0,1-.74-0.78,2.36,2.36,0,0,1-.3-1.26,2.53,2.53,0,0,1,.22-1A2.5,2.5,0,0,1,31.68,31a3,3,0,0,1,1-.57,3.57,3.57,0,0,1,1.25-.21,3.79,3.79,0,0,1,1.16.16,4,4,0,0,1,.81.35,2.8,2.8,0,0,1,.64.51l-0.7,1.21a3.59,3.59,0,0,0-.48-0.36,3.25,3.25,0,0,0-.57-0.24,2.37,2.37,0,0,0-.72-0.1,1.38,1.38,0,0,0-1,.33A1.07,1.07,0,0,0,32.69,32.91Z"/></svg>